<svg width="21" height="18" viewBox="0 0 21 18" fill="none" xmlns="http://www.w3.org/2000/svg">
<g clip-path="url(#clip0_2473_590)">
<path d="M20.461 2.80847C19.712 3.13847 18.919 3.35647 18.107 3.45447C18.962 2.94047 19.602 2.13447 19.909 1.18547C19.117 1.64747 18.238 1.98447 17.303 2.17247C16.035 0.815472 14.013 0.481472 12.376 1.35647C10.738 2.23247 9.893 4.09947 10.317 5.90747C6.908 5.74647 3.889 4.10847 1.867 1.63547C1.499 2.26047 1.307 2.97347 1.312 3.69747C1.312 5.12247 2.037 6.37547 3.135 7.11147C2.484 7.09047 1.847 6.91447 1.278 6.59747V6.64747C1.278 8.60047 2.653 10.2835 4.567 10.6705C3.965 10.8315 3.335 10.8555 2.723 10.7415C3.263 12.4125 4.804 13.5555 6.56 13.5885C5.11 14.7275 3.319 15.3445 1.475 15.3425C1.15 15.3425 0.826 15.3235 0.5 15.2875C2.38 16.4905 4.565 17.1295 6.798 17.1275C14.342 17.1275 18.463 10.8815 18.463 5.47347C18.463 5.29847 18.463 5.12347 18.45 4.94847C19.255 4.36947 19.949 3.65047 20.5 2.82547L20.461 2.80847Z" fill="white"/>
</g>
<defs>
<clipPath id="clip0_2473_590">
<rect width="20" height="16.2552" fill="white" transform="translate(0.5 0.872314)"/>
</clipPath>
</defs>
</svg>
