<svg width="20" height="21" viewBox="0 0 20 21" fill="none" xmlns="http://www.w3.org/2000/svg">
<g clip-path="url(#clip0_2449_3552)">
<path d="M7.9993 11.2207C7.9993 11.4787 7.94065 11.7309 7.83078 11.9454C7.7209 12.1599 7.56474 12.3271 7.38202 12.4258C7.19931 12.5245 6.99826 12.5503 6.80429 12.5C6.61032 12.4497 6.43215 12.3254 6.29231 12.143C6.15247 11.9606 6.05723 11.7282 6.01865 11.4752C5.98007 11.2222 5.99987 10.9599 6.07555 10.7216C6.15124 10.4832 6.2794 10.2795 6.44384 10.1362C6.60827 9.99289 6.8016 9.91639 6.99937 9.91639C7.26456 9.91639 7.5189 10.0538 7.70642 10.2984C7.89395 10.543 7.9993 10.8748 7.9993 11.2207ZM12.9989 9.91639C12.8012 9.91639 12.6078 9.99289 12.4434 10.1362C12.279 10.2795 12.1508 10.4832 12.0751 10.7216C11.9994 10.9599 11.9796 11.2222 12.0182 11.4752C12.0568 11.7282 12.152 11.9606 12.2919 12.143C12.4317 12.3254 12.6099 12.4497 12.8039 12.5C12.9978 12.5503 13.1989 12.5245 13.3816 12.4258C13.5643 12.3271 13.7205 12.1599 13.8304 11.9454C13.9402 11.7309 13.9989 11.4787 13.9989 11.2207C13.9989 10.8748 13.8935 10.543 13.706 10.2984C13.5185 10.0538 13.2641 9.91639 12.9989 9.91639ZM19.2027 16.9707L13.6197 20.2C13.4519 20.2974 13.2705 20.3489 13.0868 20.3515C12.9031 20.354 12.7209 20.3076 12.5515 20.2149C12.3821 20.1223 12.2289 19.9854 12.1016 19.8128C11.9742 19.6401 11.8752 19.4353 11.8107 19.2109L11.1349 16.8196C10.7616 16.8522 10.383 16.8689 9.99915 16.8696C9.61529 16.8703 9.23671 16.8537 8.8634 16.8196L8.18762 19.2109C8.12303 19.4352 8.024 19.6399 7.89658 19.8125C7.76917 19.985 7.61606 20.1218 7.44666 20.2145C7.27727 20.3071 7.09514 20.3536 6.91148 20.3511C6.72781 20.3486 6.54647 20.2972 6.37858 20.2L0.795641 16.9707C0.507483 16.8063 0.273419 16.5139 0.135158 16.1454C-0.0031035 15.7769 -0.0365797 15.3564 0.0406945 14.9587L2.49969 2.30776C2.56458 1.97875 2.70162 1.68157 2.89402 1.4526C3.08642 1.22364 3.32584 1.07283 3.58294 1.01864L6.58773 0.374082C6.91898 0.304584 7.2582 0.39828 7.53943 0.636946C7.82065 0.875612 8.02377 1.24219 8.10929 1.66538L8.38094 3.06102C8.91034 2.99363 9.44975 2.95993 9.99915 2.95993C10.5486 2.95993 11.0874 2.99363 11.6157 3.06102L11.8874 1.66538C11.9727 1.24206 12.1758 0.875331 12.4571 0.636627C12.7383 0.397923 13.0776 0.304332 13.4089 0.374082L16.4154 1.01864C16.6725 1.07283 16.9119 1.22364 17.1043 1.4526C17.2967 1.68157 17.4337 1.97875 17.4986 2.30776L19.9593 14.9577C20.0367 15.3557 20.0031 15.7767 19.8645 16.1455C19.7259 16.5142 19.4913 16.8067 19.2027 16.9707ZM18.6652 15.3816L16.2045 2.74254C16.2045 2.74254 16.2045 2.74254 16.1979 2.74254L13.1931 2.09037C13.1909 2.08875 13.1885 2.0879 13.186 2.0879C13.1835 2.0879 13.1811 2.08875 13.1789 2.09037L12.9431 3.30123C13.3597 3.4034 13.7764 3.52514 14.1789 3.67297C14.3375 3.72573 14.4758 3.85282 14.5672 4.03002C14.6586 4.20721 14.6969 4.42211 14.6746 4.63373C14.6524 4.84535 14.5712 5.03888 14.4466 5.17742C14.3219 5.31596 14.1626 5.38982 13.9989 5.38491C13.938 5.38469 13.8775 5.37372 13.8189 5.3523C12.5739 4.91164 11.2891 4.69191 9.99915 4.69905C8.70923 4.69155 7.42442 4.91092 6.17943 5.35121C6.09438 5.38551 6.00492 5.39724 5.91635 5.38571C5.82777 5.37418 5.74185 5.33963 5.66368 5.28409C5.5855 5.22854 5.51665 5.15314 5.46117 5.06232C5.4057 4.97151 5.36473 4.86712 5.34069 4.75531C5.31665 4.64351 5.31001 4.52656 5.32118 4.41135C5.33235 4.29615 5.36109 4.18503 5.40572 4.08456C5.45034 3.98408 5.50994 3.89628 5.581 3.82634C5.65206 3.75639 5.73314 3.70572 5.81945 3.67731C6.22109 3.52949 6.63439 3.40775 7.05436 3.30558L6.81855 2.09037C6.81855 2.09037 6.81855 2.09037 6.80855 2.09037L3.80043 2.73493C3.79797 2.73405 3.79538 2.73405 3.79293 2.73493L1.3331 15.387L6.91604 18.612C6.91885 18.614 6.922 18.615 6.92521 18.615C6.92841 18.615 6.93156 18.614 6.93437 18.612L7.49933 16.625C6.93328 16.5121 6.37289 16.3553 5.82112 16.1555C5.65677 16.087 5.51919 15.938 5.43729 15.7399C5.35539 15.5419 5.33555 15.3101 5.38195 15.0933C5.42835 14.8766 5.53737 14.6917 5.68609 14.5776C5.83481 14.4635 6.01165 14.4291 6.17943 14.4816C7.42434 14.9224 8.7092 15.1418 9.99915 15.1337C11.2891 15.1418 12.574 14.9224 13.8189 14.4816C13.9892 14.4193 14.1714 14.4478 14.3256 14.5609C14.4797 14.6739 14.5932 14.8622 14.6409 15.0843C14.6886 15.3064 14.6668 15.5442 14.5801 15.7452C14.4935 15.9463 14.3491 16.0943 14.1789 16.1566C13.6265 16.3561 13.0656 16.5125 12.499 16.625L13.0614 18.612C13.0641 18.6139 13.0671 18.6149 13.0702 18.6149C13.0732 18.6149 13.0763 18.6139 13.0789 18.612L18.6652 15.3816Z" fill="white"/>
</g>
<defs>
<clipPath id="clip0_2449_3552">
<rect width="20" height="20" fill="white" transform="translate(0 0.351562)"/>
</clipPath>
</defs>
</svg>
