<svg width="350" height="148" viewBox="0 0 350 148" fill="none" xmlns="http://www.w3.org/2000/svg">
<g clip-path="url(#clip0_2449_3506)">
<rect width="350" height="148" rx="24" fill="url(#paint0_linear_2449_3506)"/>
<path d="M89.986 60.707V46.1616H98.7076V47.7241H91.7473V52.6388H98.0542V54.2013H91.7473V60.707H89.986ZM107.688 56.2468V49.7979H109.365V60.707H107.688V58.8604H107.575C107.319 59.4144 106.921 59.8855 106.382 60.2738C105.842 60.6573 105.16 60.8491 104.336 60.8491C103.654 60.8491 103.048 60.6999 102.518 60.4016C101.988 60.0986 101.571 59.6441 101.268 59.038C100.965 58.4272 100.813 57.6578 100.813 56.7298V49.7979H102.49V56.6161C102.49 57.4116 102.712 58.046 103.157 58.5195C103.607 58.993 104.18 59.2298 104.876 59.2298C105.293 59.2298 105.716 59.1232 106.147 58.9102C106.583 58.6971 106.947 58.3704 107.241 57.93C107.539 57.4897 107.688 56.9286 107.688 56.2468ZM114.111 46.1616V60.707H112.434V46.1616H114.111ZM118.857 46.1616V60.707H117.181V46.1616H118.857ZM123.006 64.7979C122.722 64.7979 122.469 64.7743 122.246 64.7269C122.024 64.6843 121.87 64.6417 121.785 64.5991L122.211 63.1218C122.618 63.226 122.978 63.2638 123.29 63.2354C123.603 63.207 123.88 63.0674 124.121 62.8164C124.367 62.5702 124.592 62.1701 124.796 61.6161L125.108 60.7638L121.074 49.7979H122.893L125.904 58.4911H126.018L129.029 49.7979H130.847L126.216 62.2979C126.008 62.8614 125.75 63.3278 125.442 63.6971C125.135 64.0711 124.777 64.3481 124.37 64.5281C123.967 64.708 123.513 64.7979 123.006 64.7979ZM138.684 60.707V49.7979H140.361V60.707H138.684ZM139.537 47.9798C139.21 47.9798 138.928 47.8685 138.692 47.646C138.46 47.4234 138.344 47.1559 138.344 46.8434C138.344 46.5309 138.46 46.2634 138.692 46.0408C138.928 45.8183 139.21 45.707 139.537 45.707C139.863 45.707 140.143 45.8183 140.375 46.0408C140.612 46.2634 140.73 46.5309 140.73 46.8434C140.73 47.1559 140.612 47.4234 140.375 47.646C140.143 47.8685 139.863 47.9798 139.537 47.9798ZM145.107 54.1445V60.707H143.431V49.7979H145.05V51.5025H145.192C145.448 50.9485 145.836 50.5034 146.357 50.1673C146.878 49.8263 147.55 49.6559 148.374 49.6559C149.112 49.6559 149.759 49.8074 150.313 50.1104C150.867 50.4087 151.298 50.8633 151.605 51.4741C151.913 52.0801 152.067 52.8472 152.067 53.7752V60.707H150.391V53.8888C150.391 53.0318 150.168 52.3642 149.723 51.886C149.278 51.4031 148.667 51.1616 147.891 51.1616C147.356 51.1616 146.878 51.2776 146.456 51.5096C146.039 51.7416 145.71 52.0801 145.469 52.5252C145.227 52.9703 145.107 53.5101 145.107 54.1445ZM159.874 49.7979V51.2184H154.221V49.7979H159.874ZM155.868 47.1843H157.545V57.582C157.545 58.0555 157.613 58.4106 157.751 58.6474C157.893 58.8794 158.073 59.0356 158.29 59.1161C158.513 59.1919 158.747 59.2298 158.993 59.2298C159.178 59.2298 159.33 59.2203 159.448 59.2013C159.566 59.1777 159.661 59.1587 159.732 59.1445L160.073 60.6502C159.959 60.6928 159.801 60.7354 159.597 60.7781C159.394 60.8254 159.135 60.8491 158.823 60.8491C158.349 60.8491 157.885 60.7473 157.431 60.5437C156.981 60.3401 156.607 60.0299 156.309 59.6133C156.015 59.1966 155.868 58.671 155.868 58.0366V47.1843ZM166.852 60.9343C165.801 60.9343 164.894 60.7023 164.132 60.2383C163.374 59.7695 162.79 59.1161 162.378 58.2781C161.97 57.4353 161.767 56.4551 161.767 55.3377C161.767 54.2203 161.97 53.2354 162.378 52.3832C162.79 51.5262 163.363 50.8585 164.096 50.3803C164.835 49.8974 165.697 49.6559 166.682 49.6559C167.25 49.6559 167.811 49.7506 168.365 49.94C168.919 50.1294 169.423 50.4371 169.878 50.8633C170.332 51.2847 170.694 51.8434 170.964 52.5394C171.234 53.2354 171.369 54.0924 171.369 55.1104V55.8207H162.96V54.3718H169.665C169.665 53.7563 169.541 53.207 169.295 52.7241C169.054 52.2411 168.708 51.86 168.258 51.5806C167.813 51.3013 167.288 51.1616 166.682 51.1616C166.014 51.1616 165.436 51.3273 164.949 51.6587C164.466 51.9854 164.094 52.4116 163.834 52.9371C163.573 53.4627 163.443 54.0262 163.443 54.6275V55.5934C163.443 56.4173 163.585 57.1156 163.869 57.6886C164.158 58.2567 164.558 58.69 165.069 58.9883C165.581 59.2818 166.175 59.4286 166.852 59.4286C167.292 59.4286 167.69 59.3671 168.045 59.244C168.405 59.1161 168.715 58.9267 168.976 58.6758C169.236 58.4201 169.437 58.1029 169.579 57.7241L171.199 58.1786C171.028 58.7279 170.742 59.2108 170.339 59.6275C169.937 60.0394 169.44 60.3614 168.848 60.5934C168.256 60.8207 167.591 60.9343 166.852 60.9343ZM173.919 60.707V49.7979H175.538V51.4457H175.652C175.851 50.9059 176.211 50.4679 176.731 50.1317C177.252 49.7956 177.839 49.6275 178.493 49.6275C178.616 49.6275 178.77 49.6299 178.954 49.6346C179.139 49.6393 179.279 49.6464 179.373 49.6559V51.3604C179.317 51.3462 179.186 51.3249 178.983 51.2965C178.784 51.2634 178.573 51.2468 178.351 51.2468C177.82 51.2468 177.347 51.3581 176.93 51.5806C176.518 51.7984 176.192 52.1014 175.95 52.4897C175.713 52.8732 175.595 53.3112 175.595 53.8036V60.707H173.919ZM185.46 60.9343C184.475 60.9343 183.611 60.6999 182.868 60.2312C182.129 59.7624 181.551 59.1067 181.135 58.2638C180.723 57.421 180.517 56.4362 180.517 55.3093C180.517 54.1729 180.723 53.181 181.135 52.3335C181.551 51.4859 182.129 50.8278 182.868 50.359C183.611 49.8903 184.475 49.6559 185.46 49.6559C186.445 49.6559 187.307 49.8903 188.045 50.359C188.789 50.8278 189.366 51.4859 189.778 52.3335C190.195 53.181 190.403 54.1729 190.403 55.3093C190.403 56.4362 190.195 57.421 189.778 58.2638C189.366 59.1067 188.789 59.7624 188.045 60.2312C187.307 60.6999 186.445 60.9343 185.46 60.9343ZM185.46 59.4286C186.208 59.4286 186.824 59.2369 187.307 58.8533C187.79 58.4698 188.147 57.9656 188.379 57.3406C188.611 56.7156 188.727 56.0385 188.727 55.3093C188.727 54.5801 188.611 53.9007 188.379 53.271C188.147 52.6412 187.79 52.1322 187.307 51.744C186.824 51.3557 186.208 51.1616 185.46 51.1616C184.712 51.1616 184.096 51.3557 183.613 51.744C183.131 52.1322 182.773 52.6412 182.541 53.271C182.309 53.9007 182.193 54.5801 182.193 55.3093C182.193 56.0385 182.309 56.7156 182.541 57.3406C182.773 57.9656 183.131 58.4698 183.613 58.8533C184.096 59.2369 184.712 59.4286 185.46 59.4286ZM192.962 64.7979V49.7979H194.581V51.5309H194.78C194.903 51.3415 195.074 51.1 195.291 50.8065C195.514 50.5082 195.831 50.243 196.243 50.011C196.66 49.7743 197.223 49.6559 197.933 49.6559C198.852 49.6559 199.662 49.8855 200.362 50.3448C201.063 50.8041 201.61 51.4551 202.003 52.2979C202.396 53.1407 202.593 54.1351 202.593 55.2809C202.593 56.4362 202.396 57.4376 202.003 58.2852C201.61 59.128 201.066 59.7814 200.369 60.2454C199.673 60.7047 198.871 60.9343 197.962 60.9343C197.261 60.9343 196.7 60.8183 196.279 60.5863C195.857 60.3496 195.533 60.082 195.306 59.7837C195.078 59.4807 194.903 59.2298 194.78 59.0309H194.638V64.7979H192.962ZM194.61 55.2525C194.61 56.0763 194.73 56.8031 194.972 57.4329C195.213 58.0579 195.566 58.5479 196.03 58.9031C196.494 59.2534 197.062 59.4286 197.735 59.4286C198.435 59.4286 199.02 59.244 199.489 58.8746C199.962 58.5006 200.317 57.9987 200.554 57.369C200.796 56.7345 200.916 56.029 200.916 55.2525C200.916 54.4854 200.798 53.7942 200.561 53.1786C200.329 52.5584 199.977 52.0683 199.503 51.7085C199.034 51.3439 198.445 51.1616 197.735 51.1616C197.053 51.1616 196.48 51.3344 196.016 51.68C195.552 52.021 195.201 52.4992 194.965 53.1147C194.728 53.7255 194.61 54.4381 194.61 55.2525ZM209.723 60.9343C208.672 60.9343 207.765 60.7023 207.003 60.2383C206.245 59.7695 205.661 59.1161 205.249 58.2781C204.842 57.4353 204.638 56.4551 204.638 55.3377C204.638 54.2203 204.842 53.2354 205.249 52.3832C205.661 51.5262 206.234 50.8585 206.968 50.3803C207.706 49.8974 208.568 49.6559 209.553 49.6559C210.121 49.6559 210.682 49.7506 211.236 49.94C211.79 50.1294 212.294 50.4371 212.749 50.8633C213.203 51.2847 213.566 51.8434 213.835 52.5394C214.105 53.2354 214.24 54.0924 214.24 55.1104V55.8207H205.831V54.3718H212.536C212.536 53.7563 212.413 53.207 212.166 52.7241C211.925 52.2411 211.579 51.86 211.129 51.5806C210.684 51.3013 210.159 51.1616 209.553 51.1616C208.885 51.1616 208.307 51.3273 207.82 51.6587C207.337 51.9854 206.965 52.4116 206.705 52.9371C206.444 53.4627 206.314 54.0262 206.314 54.6275V55.5934C206.314 56.4173 206.456 57.1156 206.74 57.6886C207.029 58.2567 207.429 58.69 207.941 58.9883C208.452 59.2818 209.046 59.4286 209.723 59.4286C210.164 59.4286 210.561 59.3671 210.916 59.244C211.276 59.1161 211.586 58.9267 211.847 58.6758C212.107 58.4201 212.308 58.1029 212.45 57.7241L214.07 58.1786C213.899 58.7279 213.613 59.2108 213.21 59.6275C212.808 60.0394 212.311 60.3614 211.719 60.5934C211.127 60.8207 210.462 60.9343 209.723 60.9343ZM216.79 60.707V49.7979H218.409V51.4457H218.523C218.722 50.9059 219.082 50.4679 219.602 50.1317C220.123 49.7956 220.71 49.6275 221.364 49.6275C221.487 49.6275 221.641 49.6299 221.825 49.6346C222.01 49.6393 222.15 49.6464 222.244 49.6559V51.3604C222.188 51.3462 222.057 51.3249 221.854 51.2965C221.655 51.2634 221.444 51.2468 221.222 51.2468C220.691 51.2468 220.218 51.3581 219.801 51.5806C219.389 51.7984 219.063 52.1014 218.821 52.4897C218.584 52.8732 218.466 53.3112 218.466 53.8036V60.707H216.79ZM227.442 60.9627C226.75 60.9627 226.123 60.8325 225.559 60.5721C224.996 60.3069 224.549 59.9258 224.217 59.4286C223.886 58.9267 223.72 58.3207 223.72 57.6104C223.72 56.9854 223.843 56.4788 224.089 56.0906C224.336 55.6976 224.665 55.3898 225.077 55.1673C225.488 54.9447 225.943 54.779 226.44 54.6701C226.942 54.5565 227.446 54.4665 227.953 54.4002C228.616 54.315 229.153 54.2511 229.565 54.2085C229.982 54.1611 230.285 54.083 230.474 53.9741C230.668 53.8652 230.765 53.6758 230.765 53.4059V53.3491C230.765 52.6483 230.574 52.1038 230.19 51.7156C229.811 51.3273 229.236 51.1332 228.464 51.1332C227.664 51.1332 227.037 51.3084 226.582 51.6587C226.128 52.0091 225.808 52.3832 225.623 52.7809L224.032 52.2127C224.317 51.5498 224.695 51.0337 225.169 50.6644C225.647 50.2904 226.168 50.0299 226.731 49.8832C227.3 49.7317 227.858 49.6559 228.407 49.6559C228.758 49.6559 229.16 49.6985 229.615 49.7837C230.074 49.8642 230.517 50.0323 230.943 50.288C231.374 50.5437 231.731 50.9296 232.015 51.4457C232.3 51.9618 232.442 52.6531 232.442 53.5195V60.707H230.765V59.2298H230.68C230.567 59.4665 230.377 59.7198 230.112 59.9897C229.847 60.2596 229.494 60.4892 229.054 60.6786C228.613 60.868 228.076 60.9627 227.442 60.9627ZM227.697 59.457C228.36 59.457 228.919 59.3268 229.373 59.0664C229.833 58.806 230.178 58.4698 230.41 58.0579C230.647 57.646 230.765 57.2127 230.765 56.7582V55.2241C230.694 55.3093 230.538 55.3874 230.297 55.4585C230.06 55.5247 229.785 55.5839 229.473 55.636C229.165 55.6834 228.864 55.726 228.571 55.7638C228.282 55.797 228.048 55.8254 227.868 55.8491C227.432 55.9059 227.025 55.9982 226.646 56.1261C226.272 56.2492 225.969 56.4362 225.737 56.6871C225.51 56.9334 225.396 57.2695 225.396 57.6957C225.396 58.2781 225.612 58.7184 226.042 59.0167C226.478 59.3103 227.03 59.457 227.697 59.457ZM235.728 60.707V46.1616H237.404V51.5309H237.546C237.669 51.3415 237.84 51.1 238.058 50.8065C238.28 50.5082 238.597 50.243 239.009 50.011C239.426 49.7743 239.99 49.6559 240.7 49.6559C241.618 49.6559 242.428 49.8855 243.129 50.3448C243.829 50.8041 244.376 51.4551 244.769 52.2979C245.162 53.1407 245.359 54.1351 245.359 55.2809C245.359 56.4362 245.162 57.4376 244.769 58.2852C244.376 59.128 243.832 59.7814 243.136 60.2454C242.44 60.7047 241.637 60.9343 240.728 60.9343C240.027 60.9343 239.466 60.8183 239.045 60.5863C238.624 60.3496 238.299 60.082 238.072 59.7837C237.845 59.4807 237.669 59.2298 237.546 59.0309H237.347V60.707H235.728ZM237.376 55.2525C237.376 56.0763 237.497 56.8031 237.738 57.4329C237.98 58.0579 238.332 58.5479 238.796 58.9031C239.26 59.2534 239.829 59.4286 240.501 59.4286C241.202 59.4286 241.786 59.244 242.255 58.8746C242.729 58.5006 243.084 57.9987 243.32 57.369C243.562 56.7345 243.683 56.029 243.683 55.2525C243.683 54.4854 243.564 53.7942 243.328 53.1786C243.096 52.5584 242.743 52.0683 242.269 51.7085C241.801 51.3439 241.211 51.1616 240.501 51.1616C239.819 51.1616 239.246 51.3344 238.782 51.68C238.318 52.021 237.968 52.4992 237.731 53.1147C237.494 53.7255 237.376 54.4381 237.376 55.2525ZM249.599 46.1616V60.707H247.923V46.1616H249.599ZM257.243 60.9343C256.192 60.9343 255.285 60.7023 254.523 60.2383C253.765 59.7695 253.18 59.1161 252.768 58.2781C252.361 57.4353 252.157 56.4551 252.157 55.3377C252.157 54.2203 252.361 53.2354 252.768 52.3832C253.18 51.5262 253.753 50.8585 254.487 50.3803C255.226 49.8974 256.087 49.6559 257.072 49.6559C257.64 49.6559 258.202 49.7506 258.756 49.94C259.309 50.1294 259.814 50.4371 260.268 50.8633C260.723 51.2847 261.085 51.8434 261.355 52.5394C261.625 53.2354 261.76 54.0924 261.76 55.1104V55.8207H253.351V54.3718H260.055C260.055 53.7563 259.932 53.207 259.686 52.7241C259.444 52.2411 259.099 51.86 258.649 51.5806C258.204 51.3013 257.678 51.1616 257.072 51.1616C256.405 51.1616 255.827 51.3273 255.339 51.6587C254.856 51.9854 254.485 52.4116 254.224 52.9371C253.964 53.4627 253.834 54.0262 253.834 54.6275V55.5934C253.834 56.4173 253.976 57.1156 254.26 57.6886C254.549 58.2567 254.949 58.69 255.46 58.9883C255.971 59.2818 256.566 59.4286 257.243 59.4286C257.683 59.4286 258.081 59.3671 258.436 59.244C258.796 59.1161 259.106 58.9267 259.366 58.6758C259.627 58.4201 259.828 58.1029 259.97 57.7241L261.589 58.1786C261.419 58.7279 261.132 59.2108 260.73 59.6275C260.327 60.0394 259.83 60.3614 259.238 60.5934C258.647 60.8207 257.981 60.9343 257.243 60.9343Z" fill="white"/>
</g>
<defs>
<linearGradient id="paint0_linear_2449_3506" x1="175" y1="0" x2="175" y2="148" gradientUnits="userSpaceOnUse">
<stop stop-color="white" stop-opacity="0.26"/>
<stop offset="1" stop-color="#7E7D83" stop-opacity="0"/>
</linearGradient>
<clipPath id="clip0_2449_3506">
<rect width="350" height="148" fill="white"/>
</clipPath>
</defs>
</svg>
