<svg width="202" height="220" viewBox="0 0 202 220" fill="none" xmlns="http://www.w3.org/2000/svg">
<g clip-path="url(#clip0_2473_583)">
<path d="M100.48 220C97.6029 220 94.8605 219.421 92.8093 218.234L3.2043 166.497C1.19822 165.34 0.09375 163.732 0.09375 161.966C0.09375 159.847 1.68659 157.713 4.45904 156.113L91.5546 105.833C96.7614 102.828 104.68 102.497 109.196 105.112L198.801 156.849C200.807 158.006 201.912 159.614 201.912 161.38C201.912 163.499 200.319 165.633 197.546 167.233L110.451 217.513C107.603 219.158 103.944 220 100.48 220ZM101.525 103.677C98.1213 103.677 94.5224 104.503 91.7199 106.126L4.62434 156.406C1.95708 157.946 0.431854 159.975 0.431854 161.966C0.431854 163.604 1.47622 165.107 3.3696 166.204L92.9746 217.941C97.4 220.496 105.161 220.172 110.286 217.22L197.381 166.94C200.048 165.4 201.574 163.371 201.574 161.38C201.574 159.742 200.529 158.239 198.636 157.142L109.031 105.405C107.025 104.248 104.342 103.684 101.525 103.684V103.677Z" fill="#DCFCF7"/>
<path style="mix-blend-mode:lighten" opacity="0.3" d="M130.546 142.063C101.612 158.765 54.7054 158.765 25.7787 142.063C-3.15542 125.361 -3.15542 98.275 25.7787 81.5726C54.7129 64.8703 101.619 64.8703 130.546 81.5726C159.48 98.275 159.48 125.361 130.546 142.063Z" fill="url(#paint0_radial_2473_583)"/>
<path style="mix-blend-mode:lighten" d="M85.3847 114.903C86.2412 111.266 83.9947 107.63 80.3582 106.766C76.7217 105.909 73.0852 108.156 72.2212 111.792C71.3646 115.429 73.6111 119.065 77.2476 119.929C80.8841 120.786 84.5206 118.539 85.3847 114.903Z" fill="url(#paint1_radial_2473_583)"/>
<path d="M80.7525 113.355C80.7525 114.422 79.8885 115.286 78.8216 115.286C77.7547 115.286 76.8906 114.422 76.8906 113.355C76.8906 112.288 77.7547 111.424 78.8216 111.424C79.8885 111.424 80.7525 112.288 80.7525 113.355Z" fill="#DCFCF7"/>
<path style="mix-blend-mode:lighten" d="M10.6293 159.562C14.3634 159.562 17.3913 156.534 17.3913 152.8C17.3913 149.066 14.3634 146.038 10.6293 146.038C6.89509 146.038 3.86719 149.066 3.86719 152.8C3.86719 156.534 6.89509 159.562 10.6293 159.562Z" fill="url(#paint2_radial_2473_583)"/>
<path d="M12.5572 152.8C12.5572 153.867 11.6932 154.731 10.6263 154.731C9.55936 154.731 8.69531 153.867 8.69531 152.8C8.69531 151.733 9.55936 150.869 10.6263 150.869C11.6932 150.869 12.5572 151.733 12.5572 152.8Z" fill="#DCFCF7"/>
<path style="mix-blend-mode:lighten" d="M158.637 196.258C162.371 196.258 165.399 193.23 165.399 189.495C165.399 185.761 162.371 182.733 158.637 182.733C154.903 182.733 151.875 185.761 151.875 189.495C151.875 193.23 154.903 196.258 158.637 196.258Z" fill="url(#paint3_radial_2473_583)"/>
<path d="M158.634 191.426C159.701 191.426 160.565 190.562 160.565 189.495C160.565 188.428 159.701 187.564 158.634 187.564C157.567 187.564 156.703 188.428 156.703 189.495C156.703 190.562 157.567 191.426 158.634 191.426Z" fill="#DCFCF7"/>
<path style="mix-blend-mode:lighten" d="M171.176 188.864C174.91 188.864 177.938 185.837 177.938 182.102C177.938 178.368 174.91 175.34 171.176 175.34C167.442 175.34 164.414 178.368 164.414 182.102C164.414 185.837 167.442 188.864 171.176 188.864Z" fill="url(#paint4_radial_2473_583)"/>
<path d="M173.096 182.103C173.096 183.17 172.232 184.034 171.165 184.034C170.098 184.034 169.234 183.17 169.234 182.103C169.234 181.036 170.098 180.172 171.165 180.172C172.232 180.172 173.096 181.036 173.096 182.103Z" fill="#DCFCF7"/>
<path style="mix-blend-mode:lighten" d="M183.723 181.592C187.457 181.592 190.485 178.564 190.485 174.829C190.485 171.095 187.457 168.067 183.723 168.067C179.989 168.067 176.961 171.095 176.961 174.829C176.961 178.564 179.989 181.592 183.723 181.592Z" fill="url(#paint5_radial_2473_583)"/>
<path d="M185.635 174.83C185.635 175.897 184.771 176.761 183.704 176.761C182.637 176.761 181.773 175.897 181.773 174.83C181.773 173.763 182.637 172.899 183.704 172.899C184.771 172.899 185.635 173.763 185.635 174.83Z" fill="#DCFCF7"/>
<path d="M92.4689 203.351L28.6049 166.482C23.7512 163.68 24.3598 158.789 29.9648 155.55L91.109 120.252C96.714 117.014 105.189 116.668 110.043 119.471L173.907 156.339C178.76 159.142 178.152 164.033 172.547 167.271L111.403 202.569C105.798 205.808 97.3225 206.153 92.4689 203.351Z" fill="#22252D"/>
<path d="M185.306 123.678V110.477H151.24L110.968 87.2226C105.596 84.1195 96.2043 84.5102 89.9982 88.0941L51.229 110.477H17.1406V124.429H17.1707C17.0204 126.533 18.1925 128.554 20.7696 130.049L91.5009 170.884C96.873 173.987 106.265 173.597 112.471 170.013L180.189 130.913C183.766 128.847 185.494 126.172 185.298 123.678H185.306Z" fill="#787A91"/>
<path opacity="0.5" d="M185.306 123.678V110.477H151.24L110.968 87.2226C105.596 84.1195 96.2043 84.5102 89.9982 88.0941L51.229 110.477H17.1406V124.429H17.1707C17.0204 126.533 18.1925 128.554 20.7696 130.049L91.5009 170.884C96.873 173.987 106.265 173.597 112.471 170.013L180.189 130.913C183.766 128.847 185.494 126.172 185.298 123.678H185.306Z" fill="url(#paint6_linear_2473_583)"/>
<path d="M110.987 87.223C108.403 85.7278 104.894 85.0516 101.25 85.1417V172.959C105.187 172.861 109.267 171.869 112.498 170.013L180.216 130.913C183.792 128.847 185.52 126.172 185.325 123.678V110.477H151.259L110.987 87.223Z" fill="url(#paint7_linear_2473_583)"/>
<path d="M91.5318 156.933L20.8005 116.097C15.4284 112.994 16.0971 107.577 22.3032 103.993L90.0216 64.8934C96.2277 61.3095 105.619 60.9188 110.992 64.0219L181.723 104.857C187.095 107.96 186.426 113.377 180.22 116.961L112.502 156.061C106.296 159.645 96.9039 160.036 91.5318 156.933Z" fill="#787A91"/>
<path opacity="0.5" d="M91.5318 156.933L20.8005 116.097C15.4284 112.994 16.0971 107.577 22.3032 103.993L90.0216 64.8934C96.2277 61.3095 105.619 60.9188 110.992 64.0219L181.723 104.857C187.095 107.96 186.426 113.377 180.22 116.961L112.502 156.061C106.296 159.645 96.9039 160.036 91.5318 156.933Z" fill="url(#paint8_linear_2473_583)"/>
<path d="M93.4118 147.909L36.4225 115.008C32.0948 112.506 32.6357 108.141 37.6322 105.255L92.1946 73.7517C97.1985 70.8665 104.757 70.551 109.092 73.0529L166.082 105.954C170.409 108.456 169.868 112.821 164.872 115.707L110.309 147.21C105.305 150.096 97.747 150.411 93.4118 147.909Z" fill="#E5FFF6"/>
<path d="M37.6348 109.515L92.1972 78.0115C97.2011 75.1263 104.76 74.8108 109.095 77.3127L166.084 110.214C167.151 110.83 167.925 111.566 168.406 112.355C169.661 110.049 168.939 107.592 166.084 105.946L109.095 73.0451C104.767 70.5431 97.2011 70.8587 92.1972 73.7439L37.6348 105.248C33.8706 107.419 32.6308 110.432 34.1035 112.859C34.7571 111.664 35.9292 110.5 37.6348 109.515Z" fill="#BFE8DA"/>
<path opacity="0.5" d="M93.9091 156.931L23.1778 116.096C17.8057 112.993 16.5209 108.432 24.6805 103.992L92.3989 64.8921C95.4493 63.1265 99.2737 62.1422 103.008 61.9619C98.5674 61.759 93.7288 62.7508 90.0246 64.8921L22.3062 103.992C16.1001 107.576 15.4239 112.993 20.8035 116.096L91.5348 156.931C94.2697 158.509 98.0339 159.178 101.896 158.99C98.898 158.855 96.0729 158.179 93.9091 156.931Z" fill="url(#paint9_linear_2473_583)"/>
<path opacity="0.5" d="M180.221 122.859L112.502 161.959C106.296 165.543 96.9043 165.934 91.5322 162.831L20.8009 121.995C18.2162 120.508 17.0441 118.479 17.2019 116.375H17.1719V119.268H17.2019C17.0517 121.372 18.2237 123.393 20.8009 124.888L91.5322 165.723C96.9043 168.827 106.296 168.436 112.502 164.852L180.221 125.752C183.797 123.686 185.525 121.011 185.33 118.517V115.624C185.533 118.118 183.804 120.793 180.221 122.859Z" fill="url(#paint10_linear_2473_583)"/>
<path d="M167.938 119.012C168.712 119.455 168.712 120.184 167.938 120.627C167.164 121.07 165.917 121.07 165.143 120.627C164.369 120.184 164.369 119.462 165.143 119.012C165.917 118.561 167.164 118.568 167.938 119.012Z" fill="#FCF8F3"/>
<path d="M172.266 116.495C173.04 116.938 173.04 117.659 172.266 118.11C171.492 118.561 170.245 118.553 169.471 118.11C168.697 117.667 168.697 116.938 169.471 116.495C170.245 116.051 171.492 116.051 172.266 116.495Z" fill="#FCF8F3"/>
<path d="M176.641 113.986C177.415 114.429 177.415 115.158 176.641 115.601C175.867 116.044 174.62 116.044 173.846 115.601C173.072 115.158 173.072 114.436 173.846 113.986C174.62 113.535 175.867 113.542 176.641 113.986Z" fill="#FCF8F3"/>
<path opacity="0.5" d="M95.1058 139.937L50.401 114.128C47.0049 112.167 47.4332 108.741 51.3552 106.479L94.1516 81.7677C98.0736 79.5062 104.009 79.2583 107.405 81.2193L152.11 107.028C155.506 108.989 155.078 112.415 151.156 114.677L108.359 139.388C104.437 141.65 98.5019 141.898 95.1058 139.937Z" fill="#272744"/>
<path opacity="0.5" d="M185.322 110.477C185.337 110.229 185.344 109.973 185.322 109.733V72.8495L126.725 73.1124L110.984 64.0287C105.612 60.9257 96.2202 61.3164 90.0142 64.9003L75.3855 73.3453L17.1641 73.6008V110.484H17.1941C17.0438 112.588 18.2159 114.609 20.793 116.104L91.5243 156.94C96.8964 160.043 106.288 159.652 112.494 156.068L180.213 116.968C183.436 115.105 185.157 112.753 185.322 110.477Z" fill="#E5FFF6"/>
<path d="M185.306 72.8495V59.6484H151.24L110.968 36.3944C105.596 33.2914 96.2043 33.6821 89.9982 37.266L51.229 59.6484H17.1406V73.6009H17.1707C17.0204 75.7046 18.1925 77.7257 20.7696 79.2209L91.5009 120.056C96.873 123.159 106.265 122.769 112.471 119.185L180.189 80.0849C183.766 78.0188 185.494 75.344 185.298 72.8495H185.306Z" fill="#787A91"/>
<path opacity="0.5" d="M185.306 72.8495V59.6484H151.24L110.968 36.3944C105.596 33.2914 96.2043 33.6821 89.9982 37.266L51.229 59.6484H17.1406V73.6009H17.1707C17.0204 75.7046 18.1925 77.7257 20.7696 79.2209L91.5009 120.056C96.873 123.159 106.265 122.769 112.471 119.185L180.189 80.0849C183.766 78.0188 185.494 75.344 185.298 72.8495H185.306Z" fill="url(#paint11_linear_2473_583)"/>
<path d="M110.987 36.3948C108.403 34.8997 104.894 34.2234 101.25 34.3136V122.13C105.187 122.033 109.267 121.048 112.498 119.185L180.216 80.0853C183.792 78.0192 185.52 75.3444 185.325 72.8499V59.6488H151.259L110.987 36.3948Z" fill="url(#paint12_linear_2473_583)"/>
<path d="M91.5318 106.097L20.8005 65.2614C15.4284 62.1584 16.0971 56.7412 22.3032 53.1573L90.0216 14.0575C96.2277 10.4736 105.619 10.0829 110.992 13.1859L181.723 54.0213C187.095 57.1244 186.426 62.5416 180.22 66.1255L112.502 105.225C106.296 108.809 96.9039 109.2 91.5318 106.097Z" fill="#787A91"/>
<path opacity="0.5" d="M91.5318 106.097L20.8005 65.2614C15.4284 62.1584 16.0971 56.7412 22.3032 53.1573L90.0216 14.0575C96.2277 10.4736 105.619 10.0829 110.992 13.1859L181.723 54.0213C187.095 57.1244 186.426 62.5416 180.22 66.1255L112.502 105.225C106.296 108.809 96.9039 109.2 91.5318 106.097Z" fill="url(#paint13_linear_2473_583)"/>
<path opacity="0.5" d="M93.9091 106.097L23.1778 65.2611C17.8057 62.1581 16.5209 57.5974 24.6805 53.157L92.3989 14.0572C95.4493 12.2915 99.2737 11.3073 103.008 11.1269C98.5674 10.9241 93.7288 11.9158 90.0246 14.0572L22.3062 53.157C16.1001 56.7409 15.4239 62.1581 20.8035 65.2611L91.5348 106.097C94.2697 107.674 98.0339 108.343 101.896 108.155C98.898 108.02 96.0729 107.344 93.9091 106.097Z" fill="url(#paint14_linear_2473_583)"/>
<path opacity="0.5" d="M180.221 72.0313L112.502 111.131C106.296 114.715 96.9043 115.106 91.5322 112.003L20.8009 71.1673C18.2162 69.6796 17.0441 67.651 17.2019 65.5472H17.1719V68.4399H17.2019C17.0517 70.5437 18.2237 72.5648 20.8009 74.0599L91.5322 114.895C96.9043 117.998 106.296 117.608 112.502 114.024L180.221 74.924C183.797 72.8578 185.525 70.183 185.33 67.6886V64.7959C185.533 67.2904 183.804 69.9651 180.221 72.0313Z" fill="url(#paint15_linear_2473_583)"/>
<path opacity="0.2" d="M95.6271 62.6016C97.0997 63.4506 97.0997 64.8256 95.6271 65.6746C94.1545 66.5236 91.7802 66.5236 90.3076 65.6746C88.835 64.8256 88.835 63.4506 90.3076 62.6016C91.7727 61.7526 94.1545 61.7526 95.6271 62.6016Z" fill="#E5FFF6"/>
<path opacity="0.6" d="M103.908 57.8155C105.381 58.6645 105.381 60.0394 103.908 60.8885C102.436 61.7375 100.061 61.7375 98.5888 60.8885C97.1162 60.0394 97.1162 58.6645 98.5888 57.8155C100.054 56.9665 102.436 56.9665 103.908 57.8155Z" fill="#E5FFF6"/>
<path d="M112.19 53.0298C113.662 53.8788 113.662 55.2538 112.19 56.1028C110.717 56.9518 108.343 56.9518 106.87 56.1028C105.397 55.2538 105.397 53.8788 106.87 53.0298C108.343 52.1808 110.717 52.1808 112.19 53.0298Z" fill="#E5FFF6"/>
<path opacity="0.5" d="M100.78 96.066C98.1577 96.066 95.6482 95.5326 93.7849 94.4581L41.484 64.2617C39.5831 63.1648 38.5312 61.617 38.5312 59.9115C38.5312 57.8903 40.0114 55.8768 42.596 54.3891L92.6654 25.4775C97.3914 22.7501 104.589 22.4571 108.699 24.8313L161 55.0277C162.901 56.1247 163.953 57.6725 163.953 59.378C163.953 61.3991 162.473 63.4127 159.888 64.9004L109.819 93.812C107.241 95.2996 103.928 96.066 100.78 96.066ZM94.3109 93.5265C98.1277 95.7354 104.845 95.4424 109.285 92.8803L159.355 63.9687C161.594 62.6764 162.886 60.9934 162.886 59.3705C162.886 58.0632 162.029 56.846 160.474 55.9444L108.173 25.7479C104.356 23.539 97.6393 23.832 93.1989 26.3941L43.1295 55.3057C40.883 56.598 39.5982 58.2735 39.5982 59.9039C39.5982 61.2113 40.4547 62.4285 42.0175 63.3301L94.3184 93.5265H94.3109Z" fill="#272744"/>
<path d="M100.48 116.653C97.6029 116.653 94.8605 116.074 92.8093 114.887L3.2043 63.1499C1.19822 61.9928 0.09375 60.385 0.09375 58.6193C0.09375 56.5005 1.68659 54.3667 4.45904 52.7664L91.5546 2.48659C96.7614 -0.51878 104.68 -0.84937 109.196 1.7653L198.801 53.5027C200.807 54.6597 201.912 56.2676 201.912 58.0333C201.912 60.1521 200.319 62.2859 197.546 63.8862L110.451 114.166C107.603 115.811 103.944 116.653 100.48 116.653ZM101.525 0.337749C98.1213 0.337749 94.5224 1.16423 91.7199 2.78712L4.62434 53.0669C1.95708 54.6071 0.431854 56.6358 0.431854 58.6268C0.431854 60.2648 1.47622 61.7674 3.3696 62.8644L92.9746 114.602C97.4 117.156 105.169 116.833 110.286 113.88L197.381 63.6007C200.048 62.0605 201.574 60.0318 201.574 58.0408C201.574 56.4029 200.529 54.9002 198.636 53.8032L109.031 2.06584C107.025 0.908771 104.342 0.345264 101.525 0.345264V0.337749Z" fill="#DCFCF7"/>
<path style="mix-blend-mode:lighten" d="M78.8089 16.7693C82.5431 16.7693 85.571 13.7414 85.571 10.0072C85.571 6.27302 82.5431 3.24512 78.8089 3.24512C75.0748 3.24512 72.0469 6.27302 72.0469 10.0072C72.0469 13.7414 75.0748 16.7693 78.8089 16.7693Z" fill="url(#paint16_radial_2473_583)"/>
<path d="M80.7525 10.0081C80.7525 11.075 79.8885 11.939 78.8216 11.939C77.7547 11.939 76.8906 11.075 76.8906 10.0081C76.8906 8.94119 77.7547 8.07715 78.8216 8.07715C79.8885 8.07715 80.7525 8.94119 80.7525 10.0081Z" fill="#DCFCF7"/>
<path style="mix-blend-mode:lighten" d="M10.6293 56.2224C14.3634 56.2224 17.3913 53.1945 17.3913 49.4603C17.3913 45.7261 14.3634 42.6982 10.6293 42.6982C6.89509 42.6982 3.86719 45.7261 3.86719 49.4603C3.86719 53.1945 6.89509 56.2224 10.6293 56.2224Z" fill="url(#paint17_radial_2473_583)"/>
<path d="M10.6263 51.3917C11.6932 51.3917 12.5572 50.5276 12.5572 49.4607C12.5572 48.3938 11.6932 47.5298 10.6263 47.5298C9.55936 47.5298 8.69531 48.3938 8.69531 49.4607C8.69531 50.5276 9.55936 51.3917 10.6263 51.3917Z" fill="#DCFCF7"/>
<path style="mix-blend-mode:lighten" d="M161.219 92.3918C164.667 90.9643 166.305 87.0047 164.878 83.5561C163.45 80.1074 159.491 78.4695 156.042 79.897C152.593 81.3246 150.955 85.2841 152.383 88.7328C153.81 92.1815 157.77 93.8194 161.219 92.3918Z" fill="url(#paint18_radial_2473_583)"/>
<path d="M160.565 86.1487C160.565 87.2156 159.701 88.0797 158.634 88.0797C157.567 88.0797 156.703 87.2156 156.703 86.1487C156.703 85.0818 157.567 84.2178 158.634 84.2178C159.701 84.2178 160.565 85.0818 160.565 86.1487Z" fill="#DCFCF7"/>
<path style="mix-blend-mode:lighten" d="M171.176 85.5246C174.91 85.5246 177.938 82.4967 177.938 78.7626C177.938 75.0284 174.91 72.0005 171.176 72.0005C167.442 72.0005 164.414 75.0284 164.414 78.7626C164.414 82.4967 167.442 85.5246 171.176 85.5246Z" fill="url(#paint19_radial_2473_583)"/>
<path d="M171.181 80.6939C172.248 80.6939 173.112 79.8299 173.112 78.763C173.112 77.6961 172.248 76.832 171.181 76.832C170.114 76.832 169.25 77.6961 169.25 78.763C169.25 79.8299 170.114 80.6939 171.181 80.6939Z" fill="#DCFCF7"/>
<path style="mix-blend-mode:lighten" d="M183.723 78.2449C187.457 78.2449 190.485 75.2169 190.485 71.4828C190.485 67.7486 187.457 64.7207 183.723 64.7207C179.989 64.7207 176.961 67.7486 176.961 71.4828C176.961 75.2169 179.989 78.2449 183.723 78.2449Z" fill="url(#paint20_radial_2473_583)"/>
<path d="M185.635 71.4822C185.635 72.5491 184.771 73.4132 183.704 73.4132C182.637 73.4132 181.773 72.5491 181.773 71.4822C181.773 70.4153 182.637 69.5513 183.704 69.5513C184.771 69.5513 185.635 70.4153 185.635 71.4822Z" fill="#DCFCF7"/>
</g>
<defs>
<radialGradient id="paint0_radial_2473_583" cx="0" cy="0" r="1" gradientUnits="userSpaceOnUse" gradientTransform="translate(200.438 186.014) rotate(30) scale(60.4905 52.624)">
<stop stop-color="#B6DED1"/>
<stop offset="0.09" stop-color="#94B3AB"/>
<stop offset="0.17" stop-color="#79938F"/>
<stop offset="0.26" stop-color="#627878"/>
<stop offset="0.35" stop-color="#4E5F61"/>
<stop offset="0.44" stop-color="#404B50"/>
<stop offset="0.54" stop-color="#363E44"/>
<stop offset="0.66" stop-color="#30343D"/>
<stop offset="0.82" stop-color="#2F323B"/>
</radialGradient>
<radialGradient id="paint1_radial_2473_583" cx="0" cy="0" r="1" gradientUnits="userSpaceOnUse" gradientTransform="translate(78.7954 113.34) scale(6.76208)">
<stop stop-color="#BFE8DA"/>
<stop offset="0.02" stop-color="#B3D8CD"/>
<stop offset="0.1" stop-color="#99B9B4"/>
<stop offset="0.18" stop-color="#83A0A0"/>
<stop offset="0.26" stop-color="#71858A"/>
<stop offset="0.35" stop-color="#6B7479"/>
<stop offset="0.44" stop-color="#575D6B"/>
<stop offset="0.54" stop-color="#4E5162"/>
<stop offset="0.66" stop-color="#40425C"/>
<stop offset="0.82" stop-color="#3E3E5B"/>
</radialGradient>
<radialGradient id="paint2_radial_2473_583" cx="0" cy="0" r="1" gradientUnits="userSpaceOnUse" gradientTransform="translate(10.6293 152.785) scale(6.76207 6.76207)">
<stop stop-color="#BFE8DA"/>
<stop offset="0.02" stop-color="#B3D8CD"/>
<stop offset="0.1" stop-color="#99B9B4"/>
<stop offset="0.18" stop-color="#83A0A0"/>
<stop offset="0.26" stop-color="#71858A"/>
<stop offset="0.35" stop-color="#6B7479"/>
<stop offset="0.44" stop-color="#575D6B"/>
<stop offset="0.54" stop-color="#4E5162"/>
<stop offset="0.66" stop-color="#40425C"/>
<stop offset="0.82" stop-color="#3E3E5B"/>
</radialGradient>
<radialGradient id="paint3_radial_2473_583" cx="0" cy="0" r="1" gradientUnits="userSpaceOnUse" gradientTransform="translate(158.637 189.48) scale(6.76207)">
<stop stop-color="#B6DED1"/>
<stop offset="0.09" stop-color="#94B3AB"/>
<stop offset="0.17" stop-color="#79938F"/>
<stop offset="0.26" stop-color="#627878"/>
<stop offset="0.35" stop-color="#4E5F61"/>
<stop offset="0.44" stop-color="#404B50"/>
<stop offset="0.54" stop-color="#363E44"/>
<stop offset="0.66" stop-color="#30343D"/>
<stop offset="0.82" stop-color="#2F323B"/>
</radialGradient>
<radialGradient id="paint4_radial_2473_583" cx="0" cy="0" r="1" gradientUnits="userSpaceOnUse" gradientTransform="translate(171.176 182.087) scale(6.76207)">
<stop stop-color="#B6DED1"/>
<stop offset="0.09" stop-color="#94B3AB"/>
<stop offset="0.17" stop-color="#79938F"/>
<stop offset="0.26" stop-color="#627878"/>
<stop offset="0.35" stop-color="#4E5F61"/>
<stop offset="0.44" stop-color="#404B50"/>
<stop offset="0.54" stop-color="#363E44"/>
<stop offset="0.66" stop-color="#30343D"/>
<stop offset="0.82" stop-color="#2F323B"/>
</radialGradient>
<radialGradient id="paint5_radial_2473_583" cx="0" cy="0" r="1" gradientUnits="userSpaceOnUse" gradientTransform="translate(183.723 174.814) scale(6.76207)">
<stop stop-color="#B6DED1"/>
<stop offset="0.09" stop-color="#94B3AB"/>
<stop offset="0.17" stop-color="#79938F"/>
<stop offset="0.26" stop-color="#627878"/>
<stop offset="0.35" stop-color="#4E5F61"/>
<stop offset="0.44" stop-color="#404B50"/>
<stop offset="0.54" stop-color="#363E44"/>
<stop offset="0.66" stop-color="#30343D"/>
<stop offset="0.82" stop-color="#2F323B"/>
</radialGradient>
<linearGradient id="paint6_linear_2473_583" x1="-20.0207" y1="129.057" x2="148.152" y2="129.057" gradientUnits="userSpaceOnUse">
<stop stop-color="#BFE8DA"/>
<stop offset="0.1" stop-color="#AACDC4"/>
<stop offset="0.34" stop-color="#88A5A4"/>
<stop offset="0.56" stop-color="#6D7F85"/>
<stop offset="0.75" stop-color="#59616E"/>
<stop offset="0.91" stop-color="#494B60"/>
<stop offset="1" stop-color="#3E3E5B"/>
</linearGradient>
<linearGradient id="paint7_linear_2473_583" x1="101.25" y1="129.05" x2="185.34" y2="129.05" gradientUnits="userSpaceOnUse">
<stop stop-color="#66677C"/>
<stop offset="1" stop-color="#3E3E5B"/>
</linearGradient>
<linearGradient id="paint8_linear_2473_583" x1="17.1715" y1="110.477" x2="185.352" y2="110.477" gradientUnits="userSpaceOnUse">
<stop stop-color="#BFE8DA"/>
<stop offset="0.1" stop-color="#AACDC4"/>
<stop offset="0.34" stop-color="#88A5A4"/>
<stop offset="0.56" stop-color="#6D7F85"/>
<stop offset="0.75" stop-color="#59616E"/>
<stop offset="0.91" stop-color="#494B60"/>
<stop offset="1" stop-color="#3E3E5B"/>
</linearGradient>
<linearGradient id="paint9_linear_2473_583" x1="17.167" y1="110.484" x2="103.008" y2="110.484" gradientUnits="userSpaceOnUse">
<stop stop-color="#BFE8DA"/>
<stop offset="0.1" stop-color="#AACDC4"/>
<stop offset="0.34" stop-color="#88A5A4"/>
<stop offset="0.56" stop-color="#6D7F85"/>
<stop offset="0.75" stop-color="#59616E"/>
<stop offset="0.91" stop-color="#494B60"/>
<stop offset="1" stop-color="#3E3E5B"/>
</linearGradient>
<linearGradient id="paint10_linear_2473_583" x1="40.0427" y1="159.42" x2="180.814" y2="67.4104" gradientUnits="userSpaceOnUse">
<stop stop-color="#BFE8DA"/>
<stop offset="0.1" stop-color="#AACDC4"/>
<stop offset="0.34" stop-color="#88A5A4"/>
<stop offset="0.56" stop-color="#6D7F85"/>
<stop offset="0.75" stop-color="#59616E"/>
<stop offset="0.91" stop-color="#494B60"/>
<stop offset="1" stop-color="#3E3E5B"/>
</linearGradient>
<linearGradient id="paint11_linear_2473_583" x1="-46.3402" y1="78.2291" x2="-45.5889" y2="78.2291" gradientUnits="userSpaceOnUse">
<stop stop-color="#BFE8DA"/>
<stop offset="0.1" stop-color="#AACDC4"/>
<stop offset="0.34" stop-color="#88A5A4"/>
<stop offset="0.56" stop-color="#6D7F85"/>
<stop offset="0.75" stop-color="#59616E"/>
<stop offset="0.91" stop-color="#494B60"/>
<stop offset="1" stop-color="#3E3E5B"/>
</linearGradient>
<linearGradient id="paint12_linear_2473_583" x1="-46.3285" y1="78.222" x2="-45.5772" y2="78.222" gradientUnits="userSpaceOnUse">
<stop stop-color="#66677C"/>
<stop offset="1" stop-color="#3E3E5B"/>
</linearGradient>
<linearGradient id="paint13_linear_2473_583" x1="17.1715" y1="59.6414" x2="185.352" y2="59.6414" gradientUnits="userSpaceOnUse">
<stop stop-color="#BFE8DA"/>
<stop offset="0.1" stop-color="#AACDC4"/>
<stop offset="0.34" stop-color="#88A5A4"/>
<stop offset="0.56" stop-color="#6D7F85"/>
<stop offset="0.75" stop-color="#59616E"/>
<stop offset="0.91" stop-color="#494B60"/>
<stop offset="1" stop-color="#3E3E5B"/>
</linearGradient>
<linearGradient id="paint14_linear_2473_583" x1="17.167" y1="59.6486" x2="103.008" y2="59.6486" gradientUnits="userSpaceOnUse">
<stop stop-color="#BFE8DA"/>
<stop offset="0.1" stop-color="#AACDC4"/>
<stop offset="0.34" stop-color="#88A5A4"/>
<stop offset="0.56" stop-color="#6D7F85"/>
<stop offset="0.75" stop-color="#59616E"/>
<stop offset="0.91" stop-color="#494B60"/>
<stop offset="1" stop-color="#3E3E5B"/>
</linearGradient>
<linearGradient id="paint15_linear_2473_583" x1="40.0427" y1="108.592" x2="180.814" y2="16.5748" gradientUnits="userSpaceOnUse">
<stop stop-color="#BFE8DA"/>
<stop offset="0.1" stop-color="#AACDC4"/>
<stop offset="0.34" stop-color="#88A5A4"/>
<stop offset="0.56" stop-color="#6D7F85"/>
<stop offset="0.75" stop-color="#59616E"/>
<stop offset="0.91" stop-color="#494B60"/>
<stop offset="1" stop-color="#3E3E5B"/>
</linearGradient>
<radialGradient id="paint16_radial_2473_583" cx="0" cy="0" r="1" gradientUnits="userSpaceOnUse" gradientTransform="translate(78.8089 9.99217) scale(6.76207)">
<stop stop-color="#B6DED1"/>
<stop offset="0.09" stop-color="#94B3AB"/>
<stop offset="0.17" stop-color="#79938F"/>
<stop offset="0.26" stop-color="#627878"/>
<stop offset="0.35" stop-color="#4E5F61"/>
<stop offset="0.44" stop-color="#404B50"/>
<stop offset="0.54" stop-color="#363E44"/>
<stop offset="0.66" stop-color="#30343D"/>
<stop offset="0.82" stop-color="#2F323B"/>
</radialGradient>
<radialGradient id="paint17_radial_2473_583" cx="0" cy="0" r="1" gradientUnits="userSpaceOnUse" gradientTransform="translate(10.6293 49.4453) scale(6.76207)">
<stop stop-color="#B6DED1"/>
<stop offset="0.09" stop-color="#94B3AB"/>
<stop offset="0.17" stop-color="#79938F"/>
<stop offset="0.26" stop-color="#627878"/>
<stop offset="0.35" stop-color="#4E5F61"/>
<stop offset="0.44" stop-color="#404B50"/>
<stop offset="0.54" stop-color="#363E44"/>
<stop offset="0.66" stop-color="#30343D"/>
<stop offset="0.82" stop-color="#2F323B"/>
</radialGradient>
<radialGradient id="paint18_radial_2473_583" cx="0" cy="0" r="1" gradientUnits="userSpaceOnUse" gradientTransform="translate(158.627 86.1332) scale(6.76208 6.76207)">
<stop stop-color="#B6DED1"/>
<stop offset="0.09" stop-color="#94B3AB"/>
<stop offset="0.17" stop-color="#79938F"/>
<stop offset="0.26" stop-color="#627878"/>
<stop offset="0.35" stop-color="#4E5F61"/>
<stop offset="0.44" stop-color="#404B50"/>
<stop offset="0.54" stop-color="#363E44"/>
<stop offset="0.66" stop-color="#30343D"/>
<stop offset="0.82" stop-color="#2F323B"/>
</radialGradient>
<radialGradient id="paint19_radial_2473_583" cx="0" cy="0" r="1" gradientUnits="userSpaceOnUse" gradientTransform="translate(171.176 78.7475) scale(6.76207)">
<stop stop-color="#B6DED1"/>
<stop offset="0.09" stop-color="#94B3AB"/>
<stop offset="0.17" stop-color="#79938F"/>
<stop offset="0.26" stop-color="#627878"/>
<stop offset="0.35" stop-color="#4E5F61"/>
<stop offset="0.44" stop-color="#404B50"/>
<stop offset="0.54" stop-color="#363E44"/>
<stop offset="0.66" stop-color="#30343D"/>
<stop offset="0.82" stop-color="#2F323B"/>
</radialGradient>
<radialGradient id="paint20_radial_2473_583" cx="0" cy="0" r="1" gradientUnits="userSpaceOnUse" gradientTransform="translate(183.723 71.4678) scale(6.76207)">
<stop stop-color="#B6DED1"/>
<stop offset="0.09" stop-color="#94B3AB"/>
<stop offset="0.17" stop-color="#79938F"/>
<stop offset="0.26" stop-color="#627878"/>
<stop offset="0.35" stop-color="#4E5F61"/>
<stop offset="0.44" stop-color="#404B50"/>
<stop offset="0.54" stop-color="#363E44"/>
<stop offset="0.66" stop-color="#30343D"/>
<stop offset="0.82" stop-color="#2F323B"/>
</radialGradient>
<clipPath id="clip0_2473_583">
<rect width="201.818" height="220" fill="white" transform="translate(0.09375)"/>
</clipPath>
</defs>
</svg>
