<svg width="19" height="18" viewBox="0 0 19 18" fill="none" xmlns="http://www.w3.org/2000/svg">
<g clip-path="url(#clip0_2449_3551)">
<path d="M18.7358 1.05523C18.6306 0.964445 18.5027 0.904067 18.3658 0.880601C18.2289 0.857135 18.0882 0.87147 17.9588 0.922062L0.769022 7.6492C0.525404 7.74393 0.319153 7.91524 0.18132 8.13733C0.0434865 8.35943 -0.0184684 8.62029 0.00478247 8.88064C0.0280333 9.14099 0.135231 9.38675 0.310238 9.5809C0.485245 9.77506 0.718588 9.90711 0.975137 9.95717L5.42908 10.8317V15.7979C5.4282 16.0684 5.50859 16.333 5.65983 16.5573C5.81106 16.7815 6.02617 16.9552 6.27729 17.0558C6.52801 17.1582 6.80374 17.1828 7.06862 17.1264C7.33349 17.0699 7.57527 16.9351 7.7625 16.7394L9.91016 14.5121L13.3174 17.4944C13.5632 17.7124 13.8803 17.8331 14.2089 17.8336C14.3529 17.8335 14.496 17.8109 14.633 17.7666C14.8569 17.6956 15.0582 17.5671 15.217 17.3941C15.3758 17.221 15.4865 17.0093 15.538 16.7802L18.9809 1.8025C19.0117 1.66742 19.0052 1.52651 18.962 1.39487C18.9188 1.26323 18.8406 1.14582 18.7358 1.05523ZM14.2106 16.4765L7.19759 10.327L17.2913 3.09263L14.2106 16.4765Z" fill="white"/>
</g>
<defs>
<clipPath id="clip0_2449_3551">
<rect width="19" height="16.964" fill="white" transform="translate(0 0.869629)"/>
</clipPath>
</defs>
</svg>
