<svg width="21" height="20" viewBox="0 0 21 20" fill="none" xmlns="http://www.w3.org/2000/svg">
<g clip-path="url(#clip0_2473_593)">
<path d="M8.4993 10.8692C8.4993 11.1271 8.44065 11.3793 8.33078 11.5938C8.2209 11.8083 8.06474 11.9755 7.88202 12.0742C7.69931 12.1729 7.49826 12.1988 7.30429 12.1484C7.11032 12.0981 6.93215 11.9739 6.79231 11.7915C6.65247 11.6091 6.55723 11.3766 6.51865 11.1236C6.48007 10.8706 6.49987 10.6084 6.57555 10.37C6.65124 10.1317 6.7794 9.92797 6.94384 9.78465C7.10827 9.64133 7.3016 9.56483 7.49937 9.56483C7.76456 9.56483 8.0189 9.70225 8.20642 9.94686C8.39395 10.1915 8.4993 10.5232 8.4993 10.8692ZM13.4989 9.56483C13.3012 9.56483 13.1078 9.64133 12.9434 9.78465C12.779 9.92797 12.6508 10.1317 12.5751 10.37C12.4994 10.6084 12.4796 10.8706 12.5182 11.1236C12.5568 11.3766 12.652 11.6091 12.7919 11.7915C12.9317 11.9739 13.1099 12.0981 13.3039 12.1484C13.4978 12.1988 13.6989 12.1729 13.8816 12.0742C14.0643 11.9755 14.2205 11.8083 14.3304 11.5938C14.4402 11.3793 14.4989 11.1271 14.4989 10.8692C14.4989 10.5232 14.3935 10.1915 14.206 9.94686C14.0185 9.70225 13.7641 9.56483 13.4989 9.56483ZM19.7027 16.6191L14.1197 19.8484C13.9519 19.9458 13.7705 19.9973 13.5868 19.9999C13.4031 20.0025 13.2209 19.956 13.0515 19.8634C12.8821 19.7707 12.7289 19.6339 12.6016 19.4612C12.4742 19.2885 12.3752 19.0837 12.3107 18.8593L11.6349 16.468C11.2616 16.5006 10.883 16.5173 10.4992 16.518C10.1153 16.5188 9.73671 16.5021 9.3634 16.468L8.68762 18.8593C8.62303 19.0836 8.524 19.2883 8.39658 19.4609C8.26917 19.6335 8.11606 19.7703 7.94666 19.8629C7.77727 19.9555 7.59514 20.002 7.41148 19.9995C7.22781 19.997 7.04647 19.9456 6.87858 19.8484L1.29564 16.6191C1.00748 16.4548 0.773419 16.1623 0.635158 15.7938C0.496896 15.4254 0.46342 15.0048 0.540695 14.6072L2.99969 1.9562C3.06458 1.62719 3.20162 1.33001 3.39402 1.10104C3.58642 0.872074 3.82584 0.721264 4.08294 0.667079L7.08773 0.0225191C7.41898 -0.046978 7.7582 0.0467176 8.03943 0.285384C8.32065 0.524049 8.52377 0.890624 8.60929 1.31381L8.88094 2.70945C9.41034 2.64206 9.94975 2.60837 10.4992 2.60837C11.0486 2.60837 11.5874 2.64206 12.1157 2.70945L12.3874 1.31381C12.4727 0.890494 12.6758 0.523769 12.9571 0.285065C13.2383 0.0463606 13.5776 -0.0472308 13.9089 0.0225191L16.9154 0.667079C17.1725 0.721264 17.4119 0.872074 17.6043 1.10104C17.7967 1.33001 17.9337 1.62719 17.9986 1.9562L20.4593 14.6061C20.5367 15.0042 20.5031 15.4252 20.3645 15.7939C20.2259 16.1626 19.9913 16.4551 19.7027 16.6191ZM19.1652 15.03L16.7045 2.39098C16.7045 2.39098 16.7045 2.39098 16.6979 2.39098L13.6931 1.73881C13.6909 1.73719 13.6885 1.73633 13.686 1.73633C13.6835 1.73633 13.6811 1.73719 13.6789 1.73881L13.4431 2.94967C13.8597 3.05184 14.2764 3.17358 14.6789 3.3214C14.8375 3.37416 14.9758 3.50126 15.0672 3.67846C15.1586 3.85565 15.1969 4.07055 15.1746 4.28217C15.1524 4.49378 15.0712 4.68732 14.9466 4.82586C14.8219 4.9644 14.6626 5.03826 14.4989 5.03335C14.438 5.03312 14.3775 5.02215 14.3189 5.00074C13.0739 4.56007 11.7891 4.34034 10.4992 4.34748C9.20923 4.33999 7.92442 4.55935 6.67943 4.99965C6.59438 5.03395 6.50492 5.04568 6.41635 5.03415C6.32777 5.02262 6.24185 4.98806 6.16368 4.93252C6.0855 4.87698 6.01665 4.80158 5.96117 4.71076C5.9057 4.61994 5.86473 4.51555 5.84069 4.40375C5.81665 4.29195 5.81001 4.17499 5.82118 4.05979C5.83235 3.94459 5.86109 3.83347 5.90572 3.733C5.95034 3.63252 6.00994 3.54472 6.081 3.47477C6.15206 3.40483 6.23314 3.35416 6.31945 3.32575C6.72109 3.17793 7.13439 3.05619 7.55436 2.95402L7.31855 1.73881C7.31855 1.73881 7.31855 1.73881 7.30855 1.73881L4.30043 2.38337C4.29797 2.38249 4.29538 2.38249 4.29293 2.38337L1.8331 15.0354L7.41604 18.2604C7.41885 18.2624 7.422 18.2635 7.42521 18.2635C7.42841 18.2635 7.43156 18.2624 7.43437 18.2604L7.99933 16.2735C7.43328 16.1605 6.87289 16.0037 6.32112 15.8039C6.15677 15.7354 6.01919 15.5865 5.93729 15.3884C5.85539 15.1903 5.83555 14.9585 5.88195 14.7418C5.92835 14.525 6.03737 14.3401 6.18609 14.2261C6.33481 14.112 6.51165 14.0775 6.67943 14.13C7.92434 14.5708 9.2092 14.7902 10.4992 14.7822C11.7891 14.7902 13.074 14.5708 14.3189 14.13C14.4892 14.0677 14.6714 14.0963 14.8256 14.2093C14.9797 14.3223 15.0932 14.5106 15.1409 14.7327C15.1886 14.9548 15.1668 15.1926 15.0801 15.3937C14.9935 15.5948 14.8491 15.7427 14.6789 15.805C14.1265 16.0045 13.5656 16.161 12.999 16.2735L13.5614 18.2604C13.5641 18.2623 13.5671 18.2633 13.5702 18.2633C13.5732 18.2633 13.5763 18.2623 13.5789 18.2604L19.1652 15.03Z" fill="white"/>
</g>
<defs>
<clipPath id="clip0_2473_593">
<rect width="20" height="20" fill="white" transform="translate(0.5)"/>
</clipPath>
</defs>
</svg>
