<svg width="260" height="120" viewBox="0 0 260 120" fill="none" xmlns="http://www.w3.org/2000/svg">
<g clip-path="url(#clip0_2467_516)">
<g filter="url(#filter0_d_2467_516)">
<rect width="260" height="120" rx="20" fill="url(#paint0_linear_2467_516)" shape-rendering="crispEdges"/>
</g>
<path d="M53.0374 59.707V46.6161H60.8868V48.0224H54.6226V52.4457H60.2987V53.8519H54.6226V59.707H53.0374ZM68.9695 55.6928V49.8888H70.4781V59.707H68.9695V58.0451H68.8673C68.6372 58.5437 68.2792 58.9677 67.7934 59.3171C67.3076 59.6623 66.694 59.8349 65.9525 59.8349C65.3389 59.8349 64.7934 59.7006 64.3161 59.4322C63.8389 59.1594 63.4639 58.7504 63.1911 58.2049C62.9184 57.6552 62.782 56.9627 62.782 56.1275V49.8888H64.2906V56.0252C64.2906 56.7411 64.4909 57.3121 64.8914 57.7383C65.2963 58.1644 65.8119 58.3775 66.4383 58.3775C66.8133 58.3775 67.1947 58.2816 67.5825 58.0898C67.9745 57.8981 68.3026 57.604 68.5669 57.2077C68.8353 56.8114 68.9695 56.3065 68.9695 55.6928ZM74.7496 46.6161V59.707H73.241V46.6161H74.7496ZM79.021 46.6161V59.707H77.5125V46.6161H79.021ZM82.7556 63.3888C82.4999 63.3888 82.2719 63.3675 82.0716 63.3249C81.8714 63.2866 81.7329 63.2482 81.6562 63.2099L82.0397 61.8803C82.4062 61.9741 82.73 62.0082 83.0113 61.9826C83.2925 61.957 83.5418 61.8313 83.7591 61.6055C83.9807 61.3839 84.1832 61.0238 84.3664 60.5252L84.6476 59.7582L81.017 49.8888H82.6533L85.3635 57.7127H85.4658L88.176 49.8888H89.8124L85.6448 61.1388C85.4573 61.646 85.2251 62.0657 84.9481 62.3981C84.6711 62.7347 84.3493 62.984 83.9829 63.146C83.6206 63.3079 83.2116 63.3888 82.7556 63.3888ZM96.866 59.707V49.8888H98.3746V59.707H96.866ZM97.6331 48.2525C97.339 48.2525 97.0855 48.1523 96.8724 47.9521C96.6636 47.7518 96.5592 47.511 96.5592 47.2298C96.5592 46.9485 96.6636 46.7077 96.8724 46.5075C97.0855 46.3072 97.339 46.207 97.6331 46.207C97.9271 46.207 98.1785 46.3072 98.3873 46.5075C98.6004 46.7077 98.7069 46.9485 98.7069 47.2298C98.7069 47.511 98.6004 47.7518 98.3873 47.9521C98.1785 48.1523 97.9271 48.2525 97.6331 48.2525ZM102.646 53.8008V59.707H101.138V49.8888H102.595V51.4229H102.723C102.953 50.9244 103.302 50.5238 103.771 50.2212C104.24 49.9144 104.845 49.761 105.586 49.761C106.251 49.761 106.833 49.8974 107.331 50.1701C107.83 50.4386 108.218 50.8477 108.495 51.3974C108.772 51.9428 108.91 52.6332 108.91 53.4684V59.707H107.402V53.5707C107.402 52.7994 107.201 52.1985 106.801 51.7681C106.4 51.3335 105.851 51.1161 105.152 51.1161C104.67 51.1161 104.24 51.2205 103.861 51.4293C103.486 51.6381 103.189 51.9428 102.972 52.3434C102.755 52.744 102.646 53.2298 102.646 53.8008ZM115.937 49.8888V51.1673H110.849V49.8888H115.937ZM112.332 47.5366H113.84V56.8945C113.84 57.3207 113.902 57.6403 114.025 57.8533C114.153 58.0621 114.315 58.2028 114.511 58.2752C114.712 58.3434 114.922 58.3775 115.144 58.3775C115.31 58.3775 115.447 58.369 115.553 58.3519C115.66 58.3306 115.745 58.3136 115.809 58.3008L116.116 59.6559C116.013 59.6942 115.871 59.7326 115.687 59.771C115.504 59.8136 115.272 59.8349 114.991 59.8349C114.565 59.8349 114.147 59.7433 113.738 59.56C113.333 59.3768 112.996 59.0977 112.728 58.7227C112.464 58.3477 112.332 57.8746 112.332 57.3036V47.5366ZM122.217 59.9116C121.271 59.9116 120.455 59.7028 119.769 59.2852C119.087 58.8633 118.561 58.2752 118.19 57.521C117.823 56.7624 117.64 55.8803 117.64 54.8746C117.64 53.869 117.823 52.9826 118.19 52.2156C118.561 51.4442 119.076 50.8434 119.737 50.413C120.402 49.9783 121.177 49.761 122.063 49.761C122.575 49.761 123.08 49.8462 123.578 50.0167C124.077 50.1871 124.531 50.4641 124.94 50.8477C125.349 51.2269 125.675 51.7298 125.918 52.3562C126.161 52.9826 126.282 53.7539 126.282 54.6701V55.3093H118.714V54.0053H124.748C124.748 53.4513 124.637 52.957 124.416 52.5224C124.198 52.0877 123.887 51.7447 123.483 51.4933C123.082 51.2418 122.609 51.1161 122.063 51.1161C121.463 51.1161 120.943 51.2653 120.504 51.5636C120.069 51.8576 119.735 52.2411 119.5 52.7141C119.266 53.1871 119.149 53.6942 119.149 54.2354V55.1048C119.149 55.8462 119.277 56.4748 119.532 56.9904C119.792 57.5018 120.152 57.8917 120.612 58.1602C121.073 58.4244 121.608 58.5565 122.217 58.5565C122.613 58.5565 122.971 58.5011 123.291 58.3903C123.615 58.2752 123.894 58.1048 124.128 57.8789C124.362 57.6488 124.544 57.3633 124.671 57.0224L126.129 57.4315C125.975 57.9258 125.718 58.3604 125.355 58.7354C124.993 59.1062 124.546 59.396 124.013 59.6048C123.48 59.8093 122.882 59.9116 122.217 59.9116ZM128.577 59.707V49.8888H130.034V51.3718H130.137C130.316 50.886 130.639 50.4918 131.108 50.1893C131.577 49.8867 132.105 49.7354 132.693 49.7354C132.804 49.7354 132.943 49.7376 133.109 49.7418C133.275 49.7461 133.401 49.7525 133.486 49.761V51.2951C133.435 51.2823 133.318 51.2631 133.134 51.2376C132.956 51.2077 132.766 51.1928 132.566 51.1928C132.088 51.1928 131.662 51.293 131.287 51.4933C130.916 51.6893 130.622 51.962 130.405 52.3114C130.192 52.6566 130.085 53.0508 130.085 53.494V59.707H128.577ZM138.964 59.9116C138.078 59.9116 137.3 59.7006 136.631 59.2788C135.966 58.8569 135.446 58.2667 135.071 57.5082C134.701 56.7496 134.515 55.8633 134.515 54.8491C134.515 53.8263 134.701 52.9336 135.071 52.1708C135.446 51.408 135.966 50.8157 136.631 50.3938C137.3 49.9719 138.078 49.761 138.964 49.761C139.85 49.761 140.626 49.9719 141.291 50.3938C141.96 50.8157 142.48 51.408 142.85 52.1708C143.225 52.9336 143.413 53.8263 143.413 54.8491C143.413 55.8633 143.225 56.7496 142.85 57.5082C142.48 58.2667 141.96 58.8569 141.291 59.2788C140.626 59.7006 139.85 59.9116 138.964 59.9116ZM138.964 58.5565C139.637 58.5565 140.191 58.3839 140.626 58.0387C141.061 57.6935 141.382 57.2397 141.591 56.6772C141.8 56.1147 141.904 55.5053 141.904 54.8491C141.904 54.1928 141.8 53.5813 141.591 53.0146C141.382 52.4478 141.061 51.9897 140.626 51.6403C140.191 51.2908 139.637 51.1161 138.964 51.1161C138.291 51.1161 137.737 51.2908 137.302 51.6403C136.867 51.9897 136.546 52.4478 136.337 53.0146C136.128 53.5813 136.024 54.1928 136.024 54.8491C136.024 55.5053 136.128 56.1147 136.337 56.6772C136.546 57.2397 136.867 57.6935 137.302 58.0387C137.737 58.3839 138.291 58.5565 138.964 58.5565ZM145.716 63.3888V49.8888H147.173V51.4485H147.352C147.463 51.2781 147.616 51.0607 147.812 50.7965C148.013 50.5281 148.298 50.2894 148.669 50.0806C149.044 49.8675 149.551 49.761 150.19 49.761C151.017 49.761 151.745 49.9677 152.376 50.381C153.007 50.7944 153.499 51.3803 153.853 52.1388C154.206 52.8974 154.383 53.7923 154.383 54.8235C154.383 55.8633 154.206 56.7646 153.853 57.5273C153.499 58.2859 153.009 58.8739 152.383 59.2915C151.756 59.7049 151.034 59.9116 150.216 59.9116C149.585 59.9116 149.08 59.8072 148.701 59.5984C148.321 59.3853 148.03 59.1445 147.825 58.8761C147.62 58.6033 147.463 58.3775 147.352 58.1985H147.224V63.3888H145.716ZM147.199 54.7979C147.199 55.5394 147.307 56.1935 147.525 56.7603C147.742 57.3228 148.059 57.7638 148.477 58.0835C148.895 58.3988 149.406 58.5565 150.011 58.5565C150.642 58.5565 151.168 58.3903 151.59 58.0579C152.016 57.7212 152.336 57.2695 152.549 56.7028C152.766 56.1317 152.875 55.4968 152.875 54.7979C152.875 54.1076 152.768 53.4854 152.555 52.9315C152.346 52.3732 152.029 51.9322 151.603 51.6083C151.181 51.2802 150.65 51.1161 150.011 51.1161C149.397 51.1161 148.882 51.2717 148.464 51.5827C148.047 51.8896 147.731 52.32 147.518 52.8739C147.305 53.4237 147.199 54.065 147.199 54.7979ZM160.801 59.9116C159.855 59.9116 159.039 59.7028 158.353 59.2852C157.671 58.8633 157.145 58.2752 156.774 57.521C156.407 56.7624 156.224 55.8803 156.224 54.8746C156.224 53.869 156.407 52.9826 156.774 52.2156C157.145 51.4442 157.66 50.8434 158.321 50.413C158.986 49.9783 159.761 49.761 160.647 49.761C161.159 49.761 161.664 49.8462 162.162 50.0167C162.661 50.1871 163.115 50.4641 163.524 50.8477C163.933 51.2269 164.259 51.7298 164.502 52.3562C164.745 52.9826 164.866 53.7539 164.866 54.6701V55.3093H157.298V54.0053H163.332C163.332 53.4513 163.221 52.957 163 52.5224C162.782 52.0877 162.471 51.7447 162.066 51.4933C161.666 51.2418 161.193 51.1161 160.647 51.1161C160.047 51.1161 159.527 51.2653 159.088 51.5636C158.653 51.8576 158.319 52.2411 158.084 52.7141C157.85 53.1871 157.733 53.6942 157.733 54.2354V55.1048C157.733 55.8462 157.861 56.4748 158.116 56.9904C158.376 57.5018 158.736 57.8917 159.196 58.1602C159.657 58.4244 160.191 58.5565 160.801 58.5565C161.197 58.5565 161.555 58.5011 161.875 58.3903C162.199 58.2752 162.478 58.1048 162.712 57.8789C162.946 57.6488 163.128 57.3633 163.255 57.0224L164.713 57.4315C164.559 57.9258 164.302 58.3604 163.939 58.7354C163.577 59.1062 163.13 59.396 162.597 59.6048C162.064 59.8093 161.466 59.9116 160.801 59.9116ZM167.161 59.707V49.8888H168.618V51.3718H168.721C168.9 50.886 169.223 50.4918 169.692 50.1893C170.161 49.8867 170.689 49.7354 171.277 49.7354C171.388 49.7354 171.527 49.7376 171.693 49.7418C171.859 49.7461 171.985 49.7525 172.07 49.761V51.2951C172.019 51.2823 171.902 51.2631 171.718 51.2376C171.54 51.2077 171.35 51.1928 171.15 51.1928C170.672 51.1928 170.246 51.293 169.871 51.4933C169.5 51.6893 169.206 51.962 168.989 52.3114C168.776 52.6566 168.669 53.0508 168.669 53.494V59.707H167.161ZM176.747 59.9371C176.125 59.9371 175.561 59.82 175.054 59.5856C174.546 59.3469 174.144 59.0039 173.845 58.5565C173.547 58.1048 173.398 57.5593 173.398 56.9201C173.398 56.3576 173.509 55.9016 173.73 55.5522C173.952 55.1985 174.248 54.9215 174.619 54.7212C174.99 54.521 175.399 54.3718 175.846 54.2738C176.298 54.1715 176.752 54.0906 177.208 54.0309C177.804 53.9542 178.288 53.8967 178.659 53.8583C179.034 53.8157 179.306 53.7454 179.477 53.6474C179.652 53.5494 179.739 53.3789 179.739 53.136V53.0849C179.739 52.4542 179.566 51.9641 179.221 51.6147C178.88 51.2653 178.362 51.0906 177.668 51.0906C176.948 51.0906 176.383 51.2482 175.974 51.5636C175.565 51.8789 175.277 52.2156 175.111 52.5735L173.679 52.0621C173.935 51.4656 174.276 51.0011 174.702 50.6687C175.132 50.332 175.601 50.0977 176.108 49.9656C176.62 49.8292 177.122 49.761 177.617 49.761C177.932 49.761 178.294 49.7994 178.703 49.8761C179.117 49.9485 179.515 50.0998 179.899 50.3299C180.286 50.56 180.608 50.9073 180.864 51.3718C181.12 51.8363 181.247 52.4585 181.247 53.2383V59.707H179.739V58.3775H179.662C179.56 58.5906 179.389 58.8185 179.151 59.0614C178.912 59.3043 178.595 59.511 178.198 59.6815C177.802 59.8519 177.318 59.9371 176.747 59.9371ZM176.978 58.582C177.574 58.582 178.077 58.4648 178.486 58.2305C178.899 57.9961 179.21 57.6935 179.419 57.3228C179.632 56.9521 179.739 56.5621 179.739 56.1531V54.7724C179.675 54.8491 179.534 54.9194 179.317 54.9833C179.104 55.043 178.857 55.0962 178.576 55.1431C178.299 55.1857 178.028 55.2241 177.764 55.2582C177.504 55.288 177.293 55.3136 177.131 55.3349C176.739 55.386 176.372 55.4691 176.032 55.5842C175.695 55.695 175.422 55.8633 175.213 56.0891C175.009 56.3107 174.907 56.6133 174.907 56.9968C174.907 57.521 175.1 57.9173 175.488 58.1857C175.88 58.4499 176.377 58.582 176.978 58.582ZM184.205 59.707V46.6161H185.714V51.4485H185.842C185.953 51.2781 186.106 51.0607 186.302 50.7965C186.502 50.5281 186.788 50.2894 187.158 50.0806C187.533 49.8675 188.041 49.761 188.68 49.761C189.506 49.761 190.235 49.9677 190.866 50.381C191.497 50.7944 191.989 51.3803 192.342 52.1388C192.696 52.8974 192.873 53.7923 192.873 54.8235C192.873 55.8633 192.696 56.7646 192.342 57.5273C191.989 58.2859 191.499 58.8739 190.872 59.2915C190.246 59.7049 189.524 59.9116 188.705 59.9116C188.075 59.9116 187.57 59.8072 187.19 59.5984C186.811 59.3853 186.519 59.1445 186.315 58.8761C186.11 58.6033 185.953 58.3775 185.842 58.1985H185.663V59.707H184.205ZM185.688 54.7979C185.688 55.5394 185.797 56.1935 186.014 56.7603C186.232 57.3228 186.549 57.7638 186.967 58.0835C187.384 58.3988 187.896 58.5565 188.501 58.5565C189.131 58.5565 189.658 58.3903 190.08 58.0579C190.506 57.7212 190.825 57.2695 191.038 56.7028C191.256 56.1317 191.364 55.4968 191.364 54.7979C191.364 54.1076 191.258 53.4854 191.045 52.9315C190.836 52.3732 190.519 51.9322 190.092 51.6083C189.671 51.2802 189.14 51.1161 188.501 51.1161C187.887 51.1161 187.372 51.2717 186.954 51.5827C186.536 51.8896 186.221 52.32 186.008 52.8739C185.795 53.4237 185.688 54.065 185.688 54.7979ZM196.689 46.6161V59.707H195.18V46.6161H196.689ZM203.568 59.9116C202.622 59.9116 201.806 59.7028 201.12 59.2852C200.438 58.8633 199.912 58.2752 199.541 57.521C199.175 56.7624 198.992 55.8803 198.992 54.8746C198.992 53.869 199.175 52.9826 199.541 52.2156C199.912 51.4442 200.428 50.8434 201.088 50.413C201.753 49.9783 202.529 49.761 203.415 49.761C203.926 49.761 204.431 49.8462 204.93 50.0167C205.429 50.1871 205.882 50.4641 206.291 50.8477C206.701 51.2269 207.027 51.7298 207.269 52.3562C207.512 52.9826 207.634 53.7539 207.634 54.6701V55.3093H200.066V54.0053H206.1C206.1 53.4513 205.989 52.957 205.767 52.5224C205.55 52.0877 205.239 51.7447 204.834 51.4933C204.434 51.2418 203.96 51.1161 203.415 51.1161C202.814 51.1161 202.294 51.2653 201.855 51.5636C201.421 51.8576 201.086 52.2411 200.852 52.7141C200.617 53.1871 200.5 53.6942 200.5 54.2354V55.1048C200.5 55.8462 200.628 56.4748 200.884 56.9904C201.144 57.5018 201.504 57.8917 201.964 58.1602C202.424 58.4244 202.959 58.5565 203.568 58.5565C203.965 58.5565 204.323 58.5011 204.642 58.3903C204.966 58.2752 205.245 58.1048 205.48 57.8789C205.714 57.6488 205.895 57.3633 206.023 57.0224L207.48 57.4315C207.327 57.9258 207.069 58.3604 206.707 58.7354C206.345 59.1062 205.897 59.396 205.365 59.6048C204.832 59.8093 204.233 59.9116 203.568 59.9116Z" fill="white"/>
</g>
<defs>
<filter id="filter0_d_2467_516" x="-15" y="-27" width="290" height="150" filterUnits="userSpaceOnUse" color-interpolation-filters="sRGB">
<feFlood flood-opacity="0" result="BackgroundImageFix"/>
<feColorMatrix in="SourceAlpha" type="matrix" values="0 0 0 0 0 0 0 0 0 0 0 0 0 0 0 0 0 0 127 0" result="hardAlpha"/>
<feOffset dy="-12"/>
<feGaussianBlur stdDeviation="7.5"/>
<feComposite in2="hardAlpha" operator="out"/>
<feColorMatrix type="matrix" values="0 0 0 0 1 0 0 0 0 1 0 0 0 0 1 0 0 0 0.1 0"/>
<feBlend mode="normal" in2="BackgroundImageFix" result="effect1_dropShadow_2467_516"/>
<feBlend mode="normal" in="SourceGraphic" in2="effect1_dropShadow_2467_516" result="shape"/>
</filter>
<linearGradient id="paint0_linear_2467_516" x1="130" y1="0" x2="130" y2="120" gradientUnits="userSpaceOnUse">
<stop stop-color="white" stop-opacity="0.26"/>
<stop offset="1" stop-color="#7E7D83" stop-opacity="0"/>
</linearGradient>
<clipPath id="clip0_2467_516">
<rect width="260" height="120" fill="white"/>
</clipPath>
</defs>
</svg>
