<svg width="326" height="356" viewBox="0 0 326 356" fill="none" xmlns="http://www.w3.org/2000/svg">
<g clip-path="url(#clip0_2449_3536)">
<path d="M162.164 355.351C157.516 355.351 153.086 354.417 149.773 352.499L5.0399 268.932C1.7996 267.063 0.015625 264.466 0.015625 261.614C0.015625 258.191 2.58844 254.745 7.06659 252.16L147.746 170.946C156.156 166.092 168.948 165.558 176.241 169.781L320.974 253.349C324.215 255.218 325.999 257.815 325.999 260.667C325.999 264.089 323.426 267.536 318.948 270.121L178.268 351.334C173.669 353.992 167.758 355.351 162.164 355.351ZM163.851 167.463C158.353 167.463 152.54 168.798 148.013 171.419L7.33358 252.633C3.02533 255.121 0.561742 258.398 0.561742 261.614C0.561742 264.259 2.24864 266.686 5.30689 268.458L150.04 352.026C157.188 356.152 169.724 355.631 178.001 350.861L318.681 269.648C322.989 267.16 325.453 263.883 325.453 260.667C325.453 258.021 323.766 255.594 320.707 253.822L175.974 170.254C172.734 168.385 168.402 167.475 163.851 167.475V167.463Z" fill="#DCFCF7"/>
<path style="mix-blend-mode:lighten" opacity="0.3" d="M210.728 229.465C163.993 256.443 88.228 256.443 41.5047 229.465C-5.23073 202.487 -5.23073 158.737 41.5047 131.759C88.2401 104.781 164.005 104.781 210.728 131.759C257.463 158.737 257.463 202.487 210.728 229.465Z" fill="url(#paint0_radial_2449_3536)"/>
<path style="mix-blend-mode:lighten" d="M137.791 185.594C139.174 179.72 135.546 173.847 129.672 172.451C123.798 171.067 117.924 174.696 116.529 180.57C115.145 186.444 118.774 192.317 124.647 193.713C130.521 195.097 136.395 191.468 137.791 185.594Z" fill="url(#paint1_radial_2449_3536)"/>
<path d="M130.293 183.094C130.293 184.817 128.897 186.213 127.174 186.213C125.45 186.213 124.055 184.817 124.055 183.094C124.055 181.371 125.45 179.975 127.174 179.975C128.897 179.975 130.293 181.371 130.293 183.094Z" fill="#DCFCF7"/>
<path style="mix-blend-mode:lighten" d="M17.0317 257.73C23.0633 257.73 27.954 252.839 27.954 246.808C27.954 240.776 23.0633 235.885 17.0317 235.885C11.0002 235.885 6.10938 240.776 6.10938 246.808C6.10938 252.839 11.0002 257.73 17.0317 257.73Z" fill="url(#paint2_radial_2449_3536)"/>
<path d="M20.1519 246.808C20.1519 248.531 18.7563 249.927 17.033 249.927C15.3097 249.927 13.9141 248.531 13.9141 246.808C13.9141 245.085 15.3097 243.689 17.033 243.689C18.7563 243.689 20.1519 245.085 20.1519 246.808Z" fill="#DCFCF7"/>
<path style="mix-blend-mode:lighten" d="M256.11 317.002C262.141 317.002 267.032 312.111 267.032 306.08C267.032 300.048 262.141 295.157 256.11 295.157C250.078 295.157 245.188 300.048 245.188 306.08C245.188 312.111 250.078 317.002 256.11 317.002Z" fill="url(#paint3_radial_2449_3536)"/>
<path d="M256.103 309.198C257.827 309.198 259.222 307.803 259.222 306.079C259.222 304.356 257.827 302.96 256.103 302.96C254.38 302.96 252.984 304.356 252.984 306.079C252.984 307.803 254.38 309.198 256.103 309.198Z" fill="#DCFCF7"/>
<path style="mix-blend-mode:lighten" d="M276.36 305.06C282.391 305.06 287.282 300.169 287.282 294.138C287.282 288.106 282.391 283.215 276.36 283.215C270.328 283.215 265.438 288.106 265.438 294.138C265.438 300.169 270.328 305.06 276.36 305.06Z" fill="url(#paint4_radial_2449_3536)"/>
<path d="M279.464 294.138C279.464 295.861 278.069 297.257 276.345 297.257C274.622 297.257 273.227 295.861 273.227 294.138C273.227 292.415 274.622 291.019 276.345 291.019C278.069 291.019 279.464 292.415 279.464 294.138Z" fill="#DCFCF7"/>
<path style="mix-blend-mode:lighten" d="M296.618 293.312C302.649 293.312 307.54 288.422 307.54 282.39C307.54 276.359 302.649 271.468 296.618 271.468C290.586 271.468 285.695 276.359 285.695 282.39C285.695 288.422 290.586 293.312 296.618 293.312Z" fill="url(#paint5_radial_2449_3536)"/>
<path d="M299.722 282.39C299.722 284.114 298.327 285.509 296.603 285.509C294.88 285.509 293.484 284.114 293.484 282.39C293.484 280.667 294.88 279.271 296.603 279.271C298.327 279.271 299.722 280.667 299.722 282.39Z" fill="#DCFCF7"/>
<path d="M149.214 328.458L46.0583 268.907C38.2185 264.381 39.2015 256.48 48.2549 251.249L147.017 194.235C156.07 189.004 169.76 188.446 177.6 192.973L280.755 252.524C288.595 257.05 287.612 264.951 278.558 270.182L179.796 327.196C170.743 332.427 157.053 332.985 149.214 328.458Z" fill="#22252D"/>
<path d="M299.189 199.769V178.446H244.164L179.116 140.885C170.439 135.873 155.269 136.504 145.245 142.293L82.6232 178.446H27.5625V200.983H27.611C27.3683 204.381 29.2615 207.645 33.4242 210.06L147.672 276.019C156.349 281.031 171.519 280.4 181.543 274.611L290.924 211.456C296.701 208.118 299.492 203.798 299.177 199.769H299.189Z" fill="#787A91"/>
<path opacity="0.5" d="M299.189 199.769V178.446H244.164L179.116 140.885C170.439 135.873 155.269 136.504 145.245 142.293L82.6232 178.446H27.5625V200.983H27.611C27.3683 204.381 29.2615 207.645 33.4242 210.06L147.672 276.019C156.349 281.031 171.519 280.4 181.543 274.611L290.924 211.456C296.701 208.118 299.492 203.798 299.177 199.769H299.189Z" fill="url(#paint6_linear_2449_3536)"/>
<path d="M179.127 140.885C174.952 138.47 169.284 137.378 163.398 137.524V279.368C169.758 279.21 176.347 277.609 181.566 274.611L290.947 211.456C296.724 208.118 299.515 203.798 299.199 199.769V178.446H244.175L179.127 140.885Z" fill="url(#paint7_linear_2449_3536)"/>
<path d="M147.695 253.483L33.447 187.524C24.7698 182.512 25.8499 173.762 35.8742 167.973L145.255 104.818C155.279 99.0288 170.449 98.3977 179.127 103.41L293.374 169.369C302.051 174.381 300.971 183.131 290.947 188.92L181.566 252.075C171.542 257.864 156.372 258.495 147.695 253.483Z" fill="#787A91"/>
<path opacity="0.5" d="M147.695 253.483L33.447 187.524C24.7698 182.512 25.8499 173.762 35.8742 167.973L145.255 104.818C155.279 99.0288 170.449 98.3977 179.127 103.41L293.374 169.369C302.051 174.381 300.971 183.131 290.947 188.92L181.566 252.075C171.542 257.864 156.372 258.495 147.695 253.483Z" fill="url(#paint8_linear_2449_3536)"/>
<path d="M150.74 238.907L58.6893 185.764C51.699 181.723 52.5728 174.672 60.6431 170.012L148.774 119.126C156.857 114.466 169.065 113.956 176.068 117.997L268.119 171.14C275.109 175.182 274.235 182.233 266.165 186.893L178.034 237.779C169.951 242.439 157.743 242.949 150.74 238.907Z" fill="#E5FFF6"/>
<path d="M60.6474 176.893L148.778 126.007C156.861 121.347 169.07 120.837 176.072 124.878L268.123 178.021C269.846 179.016 271.096 180.206 271.873 181.48C273.9 177.754 272.735 173.786 268.123 171.128L176.072 117.985C169.082 113.944 156.861 114.453 148.778 119.114L60.6474 169.999C54.5673 173.507 52.5649 178.373 54.9435 182.293C55.9993 180.364 57.8925 178.483 60.6474 176.893Z" fill="#BFE8DA"/>
<path opacity="0.5" d="M151.534 253.482L37.2869 187.524C28.6097 182.511 26.5344 175.145 39.714 167.973L149.095 104.817C154.022 101.965 160.199 100.376 166.231 100.084C159.059 99.7566 151.243 101.359 145.26 104.817L35.8791 167.973C25.8548 173.761 24.7626 182.511 33.4519 187.524L147.699 253.482C152.117 256.031 158.197 257.111 164.435 256.808C159.593 256.589 155.03 255.497 151.534 253.482Z" fill="url(#paint9_linear_2449_3536)"/>
<path opacity="0.5" d="M290.948 198.446L181.567 261.602C171.542 267.39 156.372 268.021 147.695 263.009L33.4476 197.051C29.2728 194.648 27.3796 191.371 27.6345 187.973H27.5859V192.645H27.6345C27.3918 196.043 29.285 199.308 33.4476 201.723L147.695 267.682C156.372 272.694 171.542 272.063 181.567 266.274L290.948 203.119C296.724 199.781 299.516 195.461 299.2 191.432V186.759C299.528 190.788 296.736 195.109 290.948 198.446Z" fill="url(#paint10_linear_2449_3536)"/>
<path d="M271.108 192.232C272.358 192.949 272.358 194.126 271.108 194.842C269.858 195.558 267.844 195.558 266.594 194.842C265.344 194.126 265.344 192.961 266.594 192.232C267.844 191.504 269.858 191.516 271.108 192.232Z" fill="#FCF8F3"/>
<path d="M278.132 188.167C279.382 188.883 279.382 190.048 278.132 190.776C276.882 191.504 274.867 191.492 273.617 190.776C272.367 190.06 272.367 188.883 273.617 188.167C274.867 187.451 276.882 187.451 278.132 188.167Z" fill="#FCF8F3"/>
<path d="M285.171 184.113C286.421 184.829 286.421 186.007 285.171 186.723C283.921 187.439 281.906 187.439 280.656 186.723C279.406 186.007 279.406 184.842 280.656 184.113C281.906 183.385 283.921 183.397 285.171 184.113Z" fill="#FCF8F3"/>
<path opacity="0.5" d="M153.473 226.031L81.264 184.344C75.7786 181.177 76.4703 175.643 82.8053 171.99L151.931 132.075C158.266 128.422 167.854 128.021 173.339 131.189L245.548 172.876C251.033 176.043 250.342 181.577 244.007 185.23L174.881 225.145C168.546 228.798 158.958 229.198 153.473 226.031Z" fill="#272744"/>
<path opacity="0.5" d="M299.184 178.446C299.209 178.045 299.221 177.633 299.184 177.244V117.669L204.536 118.094L179.112 103.422C170.434 98.4094 155.264 99.0405 145.24 104.829L121.612 118.47L27.5703 118.883V178.458H27.6189C27.3761 181.856 29.2693 185.121 33.432 187.536L147.68 253.494C156.357 258.507 171.527 257.875 181.551 252.087L290.932 188.931C296.138 185.922 298.917 182.123 299.184 178.446Z" fill="#E5FFF6"/>
<path d="M299.189 117.669V96.3465H244.164L179.116 58.7858C170.439 53.7737 155.269 54.4048 145.245 60.1936L82.6232 96.3465H27.5625V118.883H27.611C27.3683 122.281 29.2615 125.546 33.4242 127.961L147.672 193.919C156.349 198.931 171.519 198.3 181.543 192.512L290.924 129.356C296.701 126.019 299.492 121.698 299.177 117.669H299.189Z" fill="#787A91"/>
<path opacity="0.5" d="M299.189 117.669V96.3465H244.164L179.116 58.7858C170.439 53.7737 155.269 54.4048 145.245 60.1936L82.6232 96.3465H27.5625V118.883H27.611C27.3683 122.281 29.2615 125.546 33.4242 127.961L147.672 193.919C156.349 198.931 171.519 198.3 181.543 192.512L290.924 129.356C296.701 126.019 299.492 121.698 299.177 117.669H299.189Z" fill="url(#paint11_linear_2449_3536)"/>
<path d="M179.127 58.7856C174.952 56.3706 169.284 55.2783 163.398 55.424V197.269C169.758 197.111 176.347 195.521 181.566 192.511L290.947 129.356C296.724 126.019 299.515 121.698 299.199 117.669V96.3463H244.175L179.127 58.7856Z" fill="url(#paint12_linear_2449_3536)"/>
<path d="M147.695 171.371L33.447 105.412C24.7698 100.4 25.8499 91.65 35.8742 85.8611L145.255 22.7058C155.279 16.917 170.449 16.2859 179.127 21.298L293.374 87.2568C302.051 92.2689 300.971 101.019 290.947 106.808L181.566 169.963C171.542 175.752 156.372 176.383 147.695 171.371Z" fill="#787A91"/>
<path opacity="0.5" d="M147.695 171.371L33.447 105.412C24.7698 100.4 25.8499 91.65 35.8742 85.8611L145.255 22.7058C155.279 16.917 170.449 16.2859 179.127 21.298L293.374 87.2568C302.051 92.2689 300.971 101.019 290.947 106.808L181.566 169.963C171.542 175.752 156.372 176.383 147.695 171.371Z" fill="url(#paint13_linear_2449_3536)"/>
<path opacity="0.5" d="M151.534 171.371L37.2869 105.412C28.6097 100.4 26.5344 93.0336 39.714 85.8613L149.095 22.7059C154.022 19.854 160.199 18.2642 166.231 17.9729C159.059 17.6453 151.243 19.2472 145.26 22.7059L35.8791 85.8613C25.8548 91.6501 24.7626 100.4 33.4519 105.412L147.699 171.371C152.117 173.92 158.197 175 164.435 174.696C159.593 174.478 155.03 173.386 151.534 171.371Z" fill="url(#paint14_linear_2449_3536)"/>
<path opacity="0.5" d="M290.948 116.347L181.567 179.502C171.542 185.291 156.372 185.922 147.695 180.91L33.4476 114.951C29.2728 112.548 27.3796 109.271 27.6345 105.873H27.5859V110.546H27.6345C27.3918 113.944 29.285 117.208 33.4476 119.623L147.695 185.582C156.372 190.594 171.542 189.963 181.567 184.174L290.948 121.019C296.724 117.682 299.516 113.361 299.2 109.332V104.66C299.528 108.689 296.736 113.009 290.948 116.347Z" fill="url(#paint15_linear_2449_3536)"/>
<path opacity="0.2" d="M154.322 101.116C156.7 102.487 156.7 104.708 154.322 106.08C151.943 107.451 148.108 107.451 145.729 106.08C143.351 104.708 143.351 102.487 145.729 101.116C148.096 99.7446 151.943 99.7446 154.322 101.116Z" fill="#E5FFF6"/>
<path opacity="0.6" d="M167.712 93.3855C170.091 94.7568 170.091 96.9777 167.712 98.349C165.334 99.7204 161.499 99.7204 159.12 98.349C156.741 96.9777 156.741 94.7568 159.12 93.3855C161.486 92.0141 165.334 92.0141 167.712 93.3855Z" fill="#E5FFF6"/>
<path d="M181.079 85.655C183.458 87.0263 183.458 89.2472 181.079 90.6186C178.701 91.9899 174.866 91.9899 172.487 90.6186C170.108 89.2472 170.108 87.0263 172.487 85.655C174.866 84.2836 178.701 84.2836 181.079 85.655Z" fill="#E5FFF6"/>
<path opacity="0.5" d="M162.655 155.169C158.42 155.169 154.367 154.308 151.357 152.572L66.8788 103.798C63.8084 102.026 62.1094 99.526 62.1094 96.7712C62.1094 93.5066 64.5002 90.2542 68.6749 87.8513L149.549 41.1523C157.182 36.7469 168.808 36.2736 175.447 40.1086L259.925 88.8828C262.995 90.6547 264.694 93.1547 264.694 95.9095C264.694 99.1741 262.304 102.427 258.129 104.829L177.255 151.528C173.092 153.931 167.74 155.169 162.655 155.169ZM152.206 151.067C158.372 154.635 169.221 154.162 176.393 150.024L257.267 103.325C260.884 101.237 262.971 98.5188 262.971 95.8974C262.971 93.7858 261.588 91.8197 259.075 90.3634L174.597 41.5892C168.432 38.0212 157.583 38.4945 150.41 42.6328L69.5366 89.3319C65.9079 91.4193 63.8327 94.1256 63.8327 96.7591C63.8327 98.8707 65.2162 100.837 67.7404 102.293L152.219 151.067H152.206Z" fill="#272744"/>
<path d="M162.164 188.422C157.516 188.422 153.086 187.487 149.773 185.57L5.0399 102.002C1.7996 100.133 0.015625 97.5358 0.015625 94.6839C0.015625 91.2616 2.58844 87.815 7.06659 85.23L147.746 4.01642C156.156 -0.837951 168.948 -1.37193 176.241 2.85137L320.974 86.4193C324.215 88.2883 325.999 90.8853 325.999 93.7373C325.999 97.1596 323.426 100.606 318.948 103.191L178.268 184.405C173.669 187.063 167.758 188.422 162.164 188.422ZM163.851 0.545543C158.353 0.545543 152.54 1.8805 148.013 4.50186L7.33358 85.7154C3.02533 88.2033 0.561742 91.48 0.561742 94.696C0.561742 97.3417 2.24864 99.7688 5.30689 101.541L150.04 185.109C157.188 189.235 169.736 188.713 178.001 183.944L318.681 102.73C322.989 100.242 325.453 96.9654 325.453 93.7494C325.453 91.1038 323.766 88.6766 320.707 86.9048L175.974 3.33681C172.734 1.46788 168.402 0.557682 163.851 0.557682V0.545543Z" fill="#DCFCF7"/>
<path style="mix-blend-mode:lighten" d="M127.172 27.0868C133.204 27.0868 138.095 22.1961 138.095 16.1645C138.095 10.133 133.204 5.24219 127.172 5.24219C121.141 5.24219 116.25 10.133 116.25 16.1645C116.25 22.1961 121.141 27.0868 127.172 27.0868Z" fill="url(#paint16_radial_2449_3536)"/>
<path d="M130.293 16.1643C130.293 17.8876 128.897 19.2833 127.174 19.2833C125.45 19.2833 124.055 17.8876 124.055 16.1643C124.055 14.441 125.45 13.0454 127.174 13.0454C128.897 13.0454 130.293 14.441 130.293 16.1643Z" fill="#DCFCF7"/>
<path style="mix-blend-mode:lighten" d="M17.0317 90.8124C23.0633 90.8124 27.954 85.9217 27.954 79.8901C27.954 73.8586 23.0633 68.9678 17.0317 68.9678C11.0002 68.9678 6.10938 73.8586 6.10938 79.8901C6.10938 85.9217 11.0002 90.8124 17.0317 90.8124Z" fill="url(#paint17_radial_2449_3536)"/>
<path d="M17.033 83.0093C18.7563 83.0093 20.1519 81.6137 20.1519 79.8904C20.1519 78.1671 18.7563 76.7715 17.033 76.7715C15.3097 76.7715 13.9141 78.1671 13.9141 79.8904C13.9141 81.6137 15.3097 83.0093 17.033 83.0093Z" fill="#DCFCF7"/>
<path style="mix-blend-mode:lighten" d="M260.277 149.235C265.847 146.929 268.493 140.533 266.187 134.963C263.881 129.392 257.485 126.747 251.915 129.053C246.345 131.359 243.699 137.754 246.005 143.325C248.311 148.895 254.706 151.541 260.277 149.235Z" fill="url(#paint18_radial_2449_3536)"/>
<path d="M259.222 139.15C259.222 140.873 257.827 142.269 256.103 142.269C254.38 142.269 252.984 140.873 252.984 139.15C252.984 137.426 254.38 136.031 256.103 136.031C257.827 136.031 259.222 137.426 259.222 139.15Z" fill="#DCFCF7"/>
<path style="mix-blend-mode:lighten" d="M276.36 138.143C282.391 138.143 287.282 133.252 287.282 127.22C287.282 121.189 282.391 116.298 276.36 116.298C270.328 116.298 265.438 121.189 265.438 127.22C265.438 133.252 270.328 138.143 276.36 138.143Z" fill="url(#paint19_radial_2449_3536)"/>
<path d="M276.361 130.339C278.084 130.339 279.48 128.944 279.48 127.22C279.48 125.497 278.084 124.102 276.361 124.102C274.638 124.102 273.242 125.497 273.242 127.22C273.242 128.944 274.638 130.339 276.361 130.339Z" fill="#DCFCF7"/>
<path style="mix-blend-mode:lighten" d="M296.618 126.383C302.649 126.383 307.54 121.492 307.54 115.46C307.54 109.429 302.649 104.538 296.618 104.538C290.586 104.538 285.695 109.429 285.695 115.46C285.695 121.492 290.586 126.383 296.618 126.383Z" fill="url(#paint20_radial_2449_3536)"/>
<path d="M299.722 115.461C299.722 117.184 298.327 118.58 296.603 118.58C294.88 118.58 293.484 117.184 293.484 115.461C293.484 113.737 294.88 112.342 296.603 112.342C298.327 112.342 299.722 113.737 299.722 115.461Z" fill="#DCFCF7"/>
</g>
<defs>
<radialGradient id="paint0_radial_2449_3536" cx="0" cy="0" r="1" gradientUnits="userSpaceOnUse" gradientTransform="translate(323.62 300.457) rotate(30) scale(97.7063 85)">
<stop stop-color="#B6DED1"/>
<stop offset="0.09" stop-color="#94B3AB"/>
<stop offset="0.17" stop-color="#79938F"/>
<stop offset="0.26" stop-color="#627878"/>
<stop offset="0.35" stop-color="#4E5F61"/>
<stop offset="0.44" stop-color="#404B50"/>
<stop offset="0.54" stop-color="#363E44"/>
<stop offset="0.66" stop-color="#30343D"/>
<stop offset="0.82" stop-color="#2F323B"/>
</radialGradient>
<radialGradient id="paint1_radial_2449_3536" cx="0" cy="0" r="1" gradientUnits="userSpaceOnUse" gradientTransform="translate(127.147 183.07) scale(10.9223)">
<stop stop-color="#BFE8DA"/>
<stop offset="0.02" stop-color="#B3D8CD"/>
<stop offset="0.1" stop-color="#99B9B4"/>
<stop offset="0.18" stop-color="#83A0A0"/>
<stop offset="0.26" stop-color="#71858A"/>
<stop offset="0.35" stop-color="#6B7479"/>
<stop offset="0.44" stop-color="#575D6B"/>
<stop offset="0.54" stop-color="#4E5162"/>
<stop offset="0.66" stop-color="#40425C"/>
<stop offset="0.82" stop-color="#3E3E5B"/>
</radialGradient>
<radialGradient id="paint2_radial_2449_3536" cx="0" cy="0" r="1" gradientUnits="userSpaceOnUse" gradientTransform="translate(17.0317 246.783) scale(10.9223 10.9223)">
<stop stop-color="#BFE8DA"/>
<stop offset="0.02" stop-color="#B3D8CD"/>
<stop offset="0.1" stop-color="#99B9B4"/>
<stop offset="0.18" stop-color="#83A0A0"/>
<stop offset="0.26" stop-color="#71858A"/>
<stop offset="0.35" stop-color="#6B7479"/>
<stop offset="0.44" stop-color="#575D6B"/>
<stop offset="0.54" stop-color="#4E5162"/>
<stop offset="0.66" stop-color="#40425C"/>
<stop offset="0.82" stop-color="#3E3E5B"/>
</radialGradient>
<radialGradient id="paint3_radial_2449_3536" cx="0" cy="0" r="1" gradientUnits="userSpaceOnUse" gradientTransform="translate(256.11 306.055) scale(10.9223)">
<stop stop-color="#B6DED1"/>
<stop offset="0.09" stop-color="#94B3AB"/>
<stop offset="0.17" stop-color="#79938F"/>
<stop offset="0.26" stop-color="#627878"/>
<stop offset="0.35" stop-color="#4E5F61"/>
<stop offset="0.44" stop-color="#404B50"/>
<stop offset="0.54" stop-color="#363E44"/>
<stop offset="0.66" stop-color="#30343D"/>
<stop offset="0.82" stop-color="#2F323B"/>
</radialGradient>
<radialGradient id="paint4_radial_2449_3536" cx="0" cy="0" r="1" gradientUnits="userSpaceOnUse" gradientTransform="translate(276.36 294.113) scale(10.9223)">
<stop stop-color="#B6DED1"/>
<stop offset="0.09" stop-color="#94B3AB"/>
<stop offset="0.17" stop-color="#79938F"/>
<stop offset="0.26" stop-color="#627878"/>
<stop offset="0.35" stop-color="#4E5F61"/>
<stop offset="0.44" stop-color="#404B50"/>
<stop offset="0.54" stop-color="#363E44"/>
<stop offset="0.66" stop-color="#30343D"/>
<stop offset="0.82" stop-color="#2F323B"/>
</radialGradient>
<radialGradient id="paint5_radial_2449_3536" cx="0" cy="0" r="1" gradientUnits="userSpaceOnUse" gradientTransform="translate(296.618 282.366) scale(10.9223)">
<stop stop-color="#B6DED1"/>
<stop offset="0.09" stop-color="#94B3AB"/>
<stop offset="0.17" stop-color="#79938F"/>
<stop offset="0.26" stop-color="#627878"/>
<stop offset="0.35" stop-color="#4E5F61"/>
<stop offset="0.44" stop-color="#404B50"/>
<stop offset="0.54" stop-color="#363E44"/>
<stop offset="0.66" stop-color="#30343D"/>
<stop offset="0.82" stop-color="#2F323B"/>
</radialGradient>
<linearGradient id="paint6_linear_2449_3536" x1="-32.4618" y1="208.458" x2="239.177" y2="208.458" gradientUnits="userSpaceOnUse">
<stop stop-color="#BFE8DA"/>
<stop offset="0.1" stop-color="#AACDC4"/>
<stop offset="0.34" stop-color="#88A5A4"/>
<stop offset="0.56" stop-color="#6D7F85"/>
<stop offset="0.75" stop-color="#59616E"/>
<stop offset="0.91" stop-color="#494B60"/>
<stop offset="1" stop-color="#3E3E5B"/>
</linearGradient>
<linearGradient id="paint7_linear_2449_3536" x1="163.398" y1="208.446" x2="299.224" y2="208.446" gradientUnits="userSpaceOnUse">
<stop stop-color="#66677C"/>
<stop offset="1" stop-color="#3E3E5B"/>
</linearGradient>
<linearGradient id="paint8_linear_2449_3536" x1="27.5853" y1="178.446" x2="299.236" y2="178.446" gradientUnits="userSpaceOnUse">
<stop stop-color="#BFE8DA"/>
<stop offset="0.1" stop-color="#AACDC4"/>
<stop offset="0.34" stop-color="#88A5A4"/>
<stop offset="0.56" stop-color="#6D7F85"/>
<stop offset="0.75" stop-color="#59616E"/>
<stop offset="0.91" stop-color="#494B60"/>
<stop offset="1" stop-color="#3E3E5B"/>
</linearGradient>
<linearGradient id="paint9_linear_2449_3536" x1="27.5781" y1="178.458" x2="166.231" y2="178.458" gradientUnits="userSpaceOnUse">
<stop stop-color="#BFE8DA"/>
<stop offset="0.1" stop-color="#AACDC4"/>
<stop offset="0.34" stop-color="#88A5A4"/>
<stop offset="0.56" stop-color="#6D7F85"/>
<stop offset="0.75" stop-color="#59616E"/>
<stop offset="0.91" stop-color="#494B60"/>
<stop offset="1" stop-color="#3E3E5B"/>
</linearGradient>
<linearGradient id="paint10_linear_2449_3536" x1="64.5277" y1="257.5" x2="291.906" y2="108.883" gradientUnits="userSpaceOnUse">
<stop stop-color="#BFE8DA"/>
<stop offset="0.1" stop-color="#AACDC4"/>
<stop offset="0.34" stop-color="#88A5A4"/>
<stop offset="0.56" stop-color="#6D7F85"/>
<stop offset="0.75" stop-color="#59616E"/>
<stop offset="0.91" stop-color="#494B60"/>
<stop offset="1" stop-color="#3E3E5B"/>
</linearGradient>
<linearGradient id="paint11_linear_2449_3536" x1="-74.9739" y1="126.359" x2="-73.7603" y2="126.359" gradientUnits="userSpaceOnUse">
<stop stop-color="#BFE8DA"/>
<stop offset="0.1" stop-color="#AACDC4"/>
<stop offset="0.34" stop-color="#88A5A4"/>
<stop offset="0.56" stop-color="#6D7F85"/>
<stop offset="0.75" stop-color="#59616E"/>
<stop offset="0.91" stop-color="#494B60"/>
<stop offset="1" stop-color="#3E3E5B"/>
</linearGradient>
<linearGradient id="paint12_linear_2449_3536" x1="-74.9754" y1="126.346" x2="-73.7618" y2="126.346" gradientUnits="userSpaceOnUse">
<stop stop-color="#66677C"/>
<stop offset="1" stop-color="#3E3E5B"/>
</linearGradient>
<linearGradient id="paint13_linear_2449_3536" x1="27.5853" y1="96.3344" x2="299.236" y2="96.3344" gradientUnits="userSpaceOnUse">
<stop stop-color="#BFE8DA"/>
<stop offset="0.1" stop-color="#AACDC4"/>
<stop offset="0.34" stop-color="#88A5A4"/>
<stop offset="0.56" stop-color="#6D7F85"/>
<stop offset="0.75" stop-color="#59616E"/>
<stop offset="0.91" stop-color="#494B60"/>
<stop offset="1" stop-color="#3E3E5B"/>
</linearGradient>
<linearGradient id="paint14_linear_2449_3536" x1="27.5781" y1="96.3467" x2="166.231" y2="96.3467" gradientUnits="userSpaceOnUse">
<stop stop-color="#BFE8DA"/>
<stop offset="0.1" stop-color="#AACDC4"/>
<stop offset="0.34" stop-color="#88A5A4"/>
<stop offset="0.56" stop-color="#6D7F85"/>
<stop offset="0.75" stop-color="#59616E"/>
<stop offset="0.91" stop-color="#494B60"/>
<stop offset="1" stop-color="#3E3E5B"/>
</linearGradient>
<linearGradient id="paint15_linear_2449_3536" x1="64.5277" y1="175.4" x2="291.906" y2="26.7713" gradientUnits="userSpaceOnUse">
<stop stop-color="#BFE8DA"/>
<stop offset="0.1" stop-color="#AACDC4"/>
<stop offset="0.34" stop-color="#88A5A4"/>
<stop offset="0.56" stop-color="#6D7F85"/>
<stop offset="0.75" stop-color="#59616E"/>
<stop offset="0.91" stop-color="#494B60"/>
<stop offset="1" stop-color="#3E3E5B"/>
</linearGradient>
<radialGradient id="paint16_radial_2449_3536" cx="0" cy="0" r="1" gradientUnits="userSpaceOnUse" gradientTransform="translate(127.172 16.1402) scale(10.9223)">
<stop stop-color="#B6DED1"/>
<stop offset="0.09" stop-color="#94B3AB"/>
<stop offset="0.17" stop-color="#79938F"/>
<stop offset="0.26" stop-color="#627878"/>
<stop offset="0.35" stop-color="#4E5F61"/>
<stop offset="0.44" stop-color="#404B50"/>
<stop offset="0.54" stop-color="#363E44"/>
<stop offset="0.66" stop-color="#30343D"/>
<stop offset="0.82" stop-color="#2F323B"/>
</radialGradient>
<radialGradient id="paint17_radial_2449_3536" cx="0" cy="0" r="1" gradientUnits="userSpaceOnUse" gradientTransform="translate(17.0317 79.8658) scale(10.9223)">
<stop stop-color="#B6DED1"/>
<stop offset="0.09" stop-color="#94B3AB"/>
<stop offset="0.17" stop-color="#79938F"/>
<stop offset="0.26" stop-color="#627878"/>
<stop offset="0.35" stop-color="#4E5F61"/>
<stop offset="0.44" stop-color="#404B50"/>
<stop offset="0.54" stop-color="#363E44"/>
<stop offset="0.66" stop-color="#30343D"/>
<stop offset="0.82" stop-color="#2F323B"/>
</radialGradient>
<radialGradient id="paint18_radial_2449_3536" cx="0" cy="0" r="1" gradientUnits="userSpaceOnUse" gradientTransform="translate(256.09 139.125) scale(10.9223 10.9223)">
<stop stop-color="#B6DED1"/>
<stop offset="0.09" stop-color="#94B3AB"/>
<stop offset="0.17" stop-color="#79938F"/>
<stop offset="0.26" stop-color="#627878"/>
<stop offset="0.35" stop-color="#4E5F61"/>
<stop offset="0.44" stop-color="#404B50"/>
<stop offset="0.54" stop-color="#363E44"/>
<stop offset="0.66" stop-color="#30343D"/>
<stop offset="0.82" stop-color="#2F323B"/>
</radialGradient>
<radialGradient id="paint19_radial_2449_3536" cx="0" cy="0" r="1" gradientUnits="userSpaceOnUse" gradientTransform="translate(276.36 127.196) scale(10.9223)">
<stop stop-color="#B6DED1"/>
<stop offset="0.09" stop-color="#94B3AB"/>
<stop offset="0.17" stop-color="#79938F"/>
<stop offset="0.26" stop-color="#627878"/>
<stop offset="0.35" stop-color="#4E5F61"/>
<stop offset="0.44" stop-color="#404B50"/>
<stop offset="0.54" stop-color="#363E44"/>
<stop offset="0.66" stop-color="#30343D"/>
<stop offset="0.82" stop-color="#2F323B"/>
</radialGradient>
<radialGradient id="paint20_radial_2449_3536" cx="0" cy="0" r="1" gradientUnits="userSpaceOnUse" gradientTransform="translate(296.618 115.436) scale(10.9223)">
<stop stop-color="#B6DED1"/>
<stop offset="0.09" stop-color="#94B3AB"/>
<stop offset="0.17" stop-color="#79938F"/>
<stop offset="0.26" stop-color="#627878"/>
<stop offset="0.35" stop-color="#4E5F61"/>
<stop offset="0.44" stop-color="#404B50"/>
<stop offset="0.54" stop-color="#363E44"/>
<stop offset="0.66" stop-color="#30343D"/>
<stop offset="0.82" stop-color="#2F323B"/>
</radialGradient>
<clipPath id="clip0_2449_3536">
<rect width="325.983" height="355.351" fill="white" transform="translate(0.015625)"/>
</clipPath>
</defs>
</svg>
