<svg width="642" height="429" viewBox="0 0 642 429" fill="none" xmlns="http://www.w3.org/2000/svg">
<g clip-path="url(#clip0_2842_2384)">
<g clip-path="url(#clip1_2842_2384)">
<mask id="mask0_2842_2384" style="mask-type:alpha" maskUnits="userSpaceOnUse" x="224" y="40" width="305" height="382">
<path d="M430.321 128.294C423.063 125.6 417.678 119.664 415.675 112.19C401.286 58.4892 344.304 27.5861 290.818 45.9233C246.223 61.2459 218.94 107.349 227.182 153.842C228.992 164.53 232.466 174.352 237.357 183.161C241.485 190.699 242.034 199.828 238.409 207.546C223.926 239.256 220.349 276.266 230.94 312.642C253.807 391.689 336.938 438.355 416.499 416.615C497.042 394.612 544.797 311.611 523.187 230.961C510.063 181.982 474.47 145.137 430.321 128.294Z" fill="url(#paint0_linear_2842_2384)"/>
</mask>
<g mask="url(#mask0_2842_2384)">
<g filter="url(#filter0_ii_2842_2384)">
<path d="M430.321 128.294C423.063 125.6 417.678 119.664 415.675 112.19C401.286 58.4892 344.304 27.5861 290.818 45.9233C246.223 61.2459 218.94 107.349 227.182 153.842C228.992 164.53 232.466 174.352 237.357 183.161C241.485 190.699 242.034 199.828 238.409 207.546C223.926 239.256 220.349 276.266 230.94 312.642C253.807 391.689 336.938 438.355 416.499 416.615C497.042 394.612 544.797 311.611 523.187 230.961C510.063 181.982 474.47 145.137 430.321 128.294Z" fill="url(#paint1_radial_2842_2384)"/>
<path d="M430.321 128.294C423.063 125.6 417.678 119.664 415.675 112.19C401.286 58.4892 344.304 27.5861 290.818 45.9233C246.223 61.2459 218.94 107.349 227.182 153.842C228.992 164.53 232.466 174.352 237.357 183.161C241.485 190.699 242.034 199.828 238.409 207.546C223.926 239.256 220.349 276.266 230.94 312.642C253.807 391.689 336.938 438.355 416.499 416.615C497.042 394.612 544.797 311.611 523.187 230.961C510.063 181.982 474.47 145.137 430.321 128.294Z" fill="#1F2E7E" fill-opacity="0.2"/>
</g>
</g>
<mask id="mask1_2842_2384" style="mask-type:alpha" maskUnits="userSpaceOnUse" x="102" y="103" width="224" height="200">
<path d="M103.83 211.552C111.664 260.063 156.524 294.524 205.401 289.776C205.671 289.677 206.126 289.663 206.311 289.749C224.292 287.752 242.067 291.045 258.513 298.66C267.753 302.939 278.547 304.346 289.488 301.557C310.744 296.364 325.731 276.598 325.075 254.75C324.651 240.64 317.996 228.357 308.092 220.181C297.72 211.563 290.894 199.65 289.217 186.307C289.204 185.852 289.005 185.311 289.077 184.671C282.342 133.303 235.607 97.0759 184.239 103.811C132.046 110.389 95.4183 158.959 103.83 211.552Z" fill="url(#paint2_linear_2842_2384)"/>
</mask>
<g mask="url(#mask1_2842_2384)">
<g filter="url(#filter1_dii_2842_2384)">
<path d="M103.83 211.552C111.664 260.063 156.524 294.524 205.401 289.776C205.671 289.677 206.126 289.663 206.311 289.749C224.292 287.752 242.067 291.045 258.513 298.66C267.753 302.939 278.547 304.346 289.488 301.557C310.744 296.364 325.731 276.598 325.075 254.75C324.651 240.64 317.996 228.357 308.092 220.181C297.72 211.563 290.894 199.65 289.217 186.307C289.204 185.852 289.005 185.311 289.077 184.671C282.342 133.303 235.607 97.0759 184.239 103.811C132.046 110.389 95.4183 158.959 103.83 211.552Z" fill="url(#paint3_radial_2842_2384)"/>
<path d="M103.83 211.552C111.664 260.063 156.524 294.524 205.401 289.776C205.671 289.677 206.126 289.663 206.311 289.749C224.292 287.752 242.067 291.045 258.513 298.66C267.753 302.939 278.547 304.346 289.488 301.557C310.744 296.364 325.731 276.598 325.075 254.75C324.651 240.64 317.996 228.357 308.092 220.181C297.72 211.563 290.894 199.65 289.217 186.307C289.204 185.852 289.005 185.311 289.077 184.671C282.342 133.303 235.607 97.0759 184.239 103.811C132.046 110.389 95.4183 158.959 103.83 211.552Z" fill="#1F2E7E" fill-opacity="0.2"/>
</g>
</g>
<g filter="url(#filter2_ii_2842_2384)">
<path d="M485.845 143.816C480.514 133.166 466.69 126.555 469.625 113.008C469.954 110.461 470.843 107.937 472.143 105.732C473.431 103.435 475.211 101.355 477.414 99.6861C479.616 98.017 482.07 96.8729 484.674 96.1741C487.277 95.4752 489.857 95.336 492.404 95.665C507.21 101.968 521.385 118.742 522.461 135.403C522.143 138.041 521.335 140.463 519.955 142.771C518.666 145.067 516.887 147.147 514.684 148.816C512.481 150.486 510.027 151.63 507.424 152.329C504.912 153.016 502.229 153.075 499.682 152.746C497.123 152.326 494.496 151.357 492.165 149.795C489.834 148.232 487.628 146.19 485.845 143.816Z" fill="url(#paint4_radial_2842_2384)"/>
<path d="M485.845 143.816C480.514 133.166 466.69 126.555 469.625 113.008C469.954 110.461 470.843 107.937 472.143 105.732C473.431 103.435 475.211 101.355 477.414 99.6861C479.616 98.017 482.07 96.8729 484.674 96.1741C487.277 95.4752 489.857 95.336 492.404 95.665C507.21 101.968 521.385 118.742 522.461 135.403C522.143 138.041 521.335 140.463 519.955 142.771C518.666 145.067 516.887 147.147 514.684 148.816C512.481 150.486 510.027 151.63 507.424 152.329C504.912 153.016 502.229 153.075 499.682 152.746C497.123 152.326 494.496 151.357 492.165 149.795C489.834 148.232 487.628 146.19 485.845 143.816Z" fill="#1F2E7E" fill-opacity="0.2"/>
</g>
<g filter="url(#filter3_diif_2842_2384)">
<path d="M247.57 373.433C240.712 370.092 231.107 372.111 227.325 364.078C226.501 362.655 225.97 361.025 225.772 359.397C225.534 357.727 225.629 355.976 226.099 354.27C226.57 352.563 227.373 351.026 228.424 349.657C229.476 348.288 230.735 347.212 232.158 346.388C242.143 343.829 255.884 346.842 262.919 354.897C263.785 356.362 264.316 357.909 264.513 359.62C264.752 361.29 264.656 363.041 264.186 364.747C263.716 366.454 262.913 367.992 261.861 369.361C260.851 370.688 259.509 371.763 258.085 372.588C256.62 373.37 254.907 373.9 253.113 374.013C251.319 374.126 249.402 373.946 247.57 373.433Z" fill="url(#paint5_radial_2842_2384)"/>
<path d="M247.57 373.433C240.712 370.092 231.107 372.111 227.325 364.078C226.501 362.655 225.97 361.025 225.772 359.397C225.534 357.727 225.629 355.976 226.099 354.27C226.57 352.563 227.373 351.026 228.424 349.657C229.476 348.288 230.735 347.212 232.158 346.388C242.143 343.829 255.884 346.842 262.919 354.897C263.785 356.362 264.316 357.909 264.513 359.62C264.752 361.29 264.656 363.041 264.186 364.747C263.716 366.454 262.913 367.992 261.861 369.361C260.851 370.688 259.509 371.763 258.085 372.588C256.62 373.37 254.907 373.9 253.113 374.013C251.319 374.126 249.402 373.946 247.57 373.433Z" fill="#1F2E7E" fill-opacity="0.2"/>
</g>
<g filter="url(#filter4_dii_2842_2384)">
<path d="M418.741 334.883C448.249 334.883 472.17 310.962 472.17 281.454C472.17 251.946 448.249 228.025 418.741 228.025C389.233 228.025 365.312 251.946 365.312 281.454C365.312 310.962 389.233 334.883 418.741 334.883Z" fill="url(#paint6_radial_2842_2384)"/>
<path d="M418.741 334.883C448.249 334.883 472.17 310.962 472.17 281.454C472.17 251.946 448.249 228.025 418.741 228.025C389.233 228.025 365.312 251.946 365.312 281.454C365.312 310.962 389.233 334.883 418.741 334.883Z" fill="#1F2E7E" fill-opacity="0.2"/>
</g>
<g filter="url(#filter5_di_2842_2384)">
<path d="M205.858 78.284C213.738 78.284 220.126 71.896 220.126 64.016C220.126 56.136 213.738 49.748 205.858 49.748C197.978 49.748 191.59 56.136 191.59 64.016C191.59 71.896 197.978 78.284 205.858 78.284Z" fill="url(#paint7_radial_2842_2384)"/>
<path d="M205.858 78.284C213.738 78.284 220.126 71.896 220.126 64.016C220.126 56.136 213.738 49.748 205.858 49.748C197.978 49.748 191.59 56.136 191.59 64.016C191.59 71.896 197.978 78.284 205.858 78.284Z" fill="#1F2E7E" fill-opacity="0.2"/>
</g>
<g filter="url(#filter6_diif_2842_2384)">
<path d="M351.858 75.841C366.269 87.5782 387.466 85.4109 399.203 71.0002C410.94 56.5895 408.773 35.3925 394.362 23.6553C379.952 11.9182 358.755 14.0855 347.018 28.4962C335.28 42.9069 337.448 64.1039 351.858 75.841Z" fill="url(#paint8_radial_2842_2384)"/>
<path d="M351.858 75.841C366.269 87.5782 387.466 85.4109 399.203 71.0002C410.94 56.5895 408.773 35.3925 394.362 23.6553C379.952 11.9182 358.755 14.0855 347.018 28.4962C335.28 42.9069 337.448 64.1039 351.858 75.841Z" fill="#1F2E7E" fill-opacity="0.2"/>
</g>
</g>
</g>
<defs>
<filter id="filter0_ii_2842_2384" x="206.469" y="40.6172" width="348.264" height="413.449" filterUnits="userSpaceOnUse" color-interpolation-filters="sRGB">
<feFlood flood-opacity="0" result="BackgroundImageFix"/>
<feBlend mode="normal" in="SourceGraphic" in2="BackgroundImageFix" result="shape"/>
<feColorMatrix in="SourceAlpha" type="matrix" values="0 0 0 0 0 0 0 0 0 0 0 0 0 0 0 0 0 0 127 0" result="hardAlpha"/>
<feOffset dx="-18.3516" dy="32.1153"/>
<feGaussianBlur stdDeviation="38.9971"/>
<feComposite in2="hardAlpha" operator="arithmetic" k2="-1" k3="1"/>
<feColorMatrix type="matrix" values="0 0 0 0 1 0 0 0 0 1 0 0 0 0 1 0 0 0 0.87 0"/>
<feBlend mode="lighten" in2="shape" result="effect1_innerShadow_2842_2384"/>
<feColorMatrix in="SourceAlpha" type="matrix" values="0 0 0 0 0 0 0 0 0 0 0 0 0 0 0 0 0 0 127 0" result="hardAlpha"/>
<feOffset dx="26.35" dy="15.3705"/>
<feGaussianBlur stdDeviation="15.3705"/>
<feComposite in2="hardAlpha" operator="arithmetic" k2="-1" k3="1"/>
<feColorMatrix type="matrix" values="0 0 0 0 0.168627 0 0 0 0 0.180392 0 0 0 0 0.239216 0 0 0 0.9 0"/>
<feBlend mode="multiply" in2="effect1_innerShadow_2842_2384" result="effect2_innerShadow_2842_2384"/>
</filter>
<filter id="filter1_dii_2842_2384" x="84.2734" y="103.006" width="267.17" height="243.994" filterUnits="userSpaceOnUse" color-interpolation-filters="sRGB">
<feFlood flood-opacity="0" result="BackgroundImageFix"/>
<feColorMatrix in="SourceAlpha" type="matrix" values="0 0 0 0 0 0 0 0 0 0 0 0 0 0 0 0 0 0 127 0" result="hardAlpha"/>
<feOffset dy="36"/>
<feGaussianBlur stdDeviation="4"/>
<feComposite in2="hardAlpha" operator="out"/>
<feColorMatrix type="matrix" values="0 0 0 0 0 0 0 0 0 0 0 0 0 0 0 0 0 0 0.16 0"/>
<feBlend mode="multiply" in2="BackgroundImageFix" result="effect1_dropShadow_2842_2384"/>
<feBlend mode="normal" in="SourceGraphic" in2="effect1_dropShadow_2842_2384" result="shape"/>
<feColorMatrix in="SourceAlpha" type="matrix" values="0 0 0 0 0 0 0 0 0 0 0 0 0 0 0 0 0 0 127 0" result="hardAlpha"/>
<feOffset dx="-18.3516" dy="32.1153"/>
<feGaussianBlur stdDeviation="38.9971"/>
<feComposite in2="hardAlpha" operator="arithmetic" k2="-1" k3="1"/>
<feColorMatrix type="matrix" values="0 0 0 0 1 0 0 0 0 1 0 0 0 0 1 0 0 0 0.87 0"/>
<feBlend mode="lighten" in2="shape" result="effect2_innerShadow_2842_2384"/>
<feColorMatrix in="SourceAlpha" type="matrix" values="0 0 0 0 0 0 0 0 0 0 0 0 0 0 0 0 0 0 127 0" result="hardAlpha"/>
<feOffset dx="26.3494" dy="15.3705"/>
<feGaussianBlur stdDeviation="15.3705"/>
<feComposite in2="hardAlpha" operator="arithmetic" k2="-1" k3="1"/>
<feColorMatrix type="matrix" values="0 0 0 0 0.168627 0 0 0 0 0.180392 0 0 0 0 0.239216 0 0 0 0.9 0"/>
<feBlend mode="multiply" in2="effect2_innerShadow_2842_2384" result="effect3_innerShadow_2842_2384"/>
</filter>
<filter id="filter2_ii_2842_2384" x="445.536" y="95.4951" width="110.933" height="98.8952" filterUnits="userSpaceOnUse" color-interpolation-filters="sRGB">
<feFlood flood-opacity="0" result="BackgroundImageFix"/>
<feBlend mode="normal" in="SourceGraphic" in2="BackgroundImageFix" result="shape"/>
<feColorMatrix in="SourceAlpha" type="matrix" values="0 0 0 0 0 0 0 0 0 0 0 0 0 0 0 0 0 0 127 0" result="hardAlpha"/>
<feOffset dx="-23.6862" dy="41.4509"/>
<feGaussianBlur stdDeviation="50.3332"/>
<feComposite in2="hardAlpha" operator="arithmetic" k2="-1" k3="1"/>
<feColorMatrix type="matrix" values="0 0 0 0 1 0 0 0 0 1 0 0 0 0 1 0 0 0 0.87 0"/>
<feBlend mode="lighten" in2="shape" result="effect1_innerShadow_2842_2384"/>
<feColorMatrix in="SourceAlpha" type="matrix" values="0 0 0 0 0 0 0 0 0 0 0 0 0 0 0 0 0 0 127 0" result="hardAlpha"/>
<feOffset dx="34.0089" dy="19.8385"/>
<feGaussianBlur stdDeviation="19.8385"/>
<feComposite in2="hardAlpha" operator="arithmetic" k2="-1" k3="1"/>
<feColorMatrix type="matrix" values="0 0 0 0 0.168627 0 0 0 0 0.180392 0 0 0 0 0.239216 0 0 0 0.9 0"/>
<feBlend mode="multiply" in2="effect1_innerShadow_2842_2384" result="effect2_innerShadow_2842_2384"/>
</filter>
<filter id="filter3_diif_2842_2384" x="207.293" y="332.91" width="83.6971" height="85.1359" filterUnits="userSpaceOnUse" color-interpolation-filters="sRGB">
<feFlood flood-opacity="0" result="BackgroundImageFix"/>
<feColorMatrix in="SourceAlpha" type="matrix" values="0 0 0 0 0 0 0 0 0 0 0 0 0 0 0 0 0 0 127 0" result="hardAlpha"/>
<feOffset dy="36"/>
<feGaussianBlur stdDeviation="4"/>
<feComposite in2="hardAlpha" operator="out"/>
<feColorMatrix type="matrix" values="0 0 0 0 0 0 0 0 0 0 0 0 0 0 0 0 0 0 0.16 0"/>
<feBlend mode="multiply" in2="BackgroundImageFix" result="effect1_dropShadow_2842_2384"/>
<feBlend mode="normal" in="SourceGraphic" in2="effect1_dropShadow_2842_2384" result="shape"/>
<feColorMatrix in="SourceAlpha" type="matrix" values="0 0 0 0 0 0 0 0 0 0 0 0 0 0 0 0 0 0 127 0" result="hardAlpha"/>
<feOffset dx="-18.3516" dy="32.1153"/>
<feGaussianBlur stdDeviation="38.9971"/>
<feComposite in2="hardAlpha" operator="arithmetic" k2="-1" k3="1"/>
<feColorMatrix type="matrix" values="0 0 0 0 1 0 0 0 0 1 0 0 0 0 1 0 0 0 0.87 0"/>
<feBlend mode="lighten" in2="shape" result="effect2_innerShadow_2842_2384"/>
<feColorMatrix in="SourceAlpha" type="matrix" values="0 0 0 0 0 0 0 0 0 0 0 0 0 0 0 0 0 0 127 0" result="hardAlpha"/>
<feOffset dx="26.3494" dy="15.3705"/>
<feGaussianBlur stdDeviation="15.3705"/>
<feComposite in2="hardAlpha" operator="arithmetic" k2="-1" k3="1"/>
<feColorMatrix type="matrix" values="0 0 0 0 0.168627 0 0 0 0 0.180392 0 0 0 0 0.239216 0 0 0 0.9 0"/>
<feBlend mode="multiply" in2="effect2_innerShadow_2842_2384" result="effect3_innerShadow_2842_2384"/>
<feGaussianBlur stdDeviation="6.295" result="effect4_foregroundBlur_2842_2384"/>
</filter>
<filter id="filter4_dii_2842_2384" x="346.961" y="228.025" width="151.556" height="150.857" filterUnits="userSpaceOnUse" color-interpolation-filters="sRGB">
<feFlood flood-opacity="0" result="BackgroundImageFix"/>
<feColorMatrix in="SourceAlpha" type="matrix" values="0 0 0 0 0 0 0 0 0 0 0 0 0 0 0 0 0 0 127 0" result="hardAlpha"/>
<feOffset dy="36"/>
<feGaussianBlur stdDeviation="4"/>
<feComposite in2="hardAlpha" operator="out"/>
<feColorMatrix type="matrix" values="0 0 0 0 0 0 0 0 0 0 0 0 0 0 0 0 0 0 0.16 0"/>
<feBlend mode="multiply" in2="BackgroundImageFix" result="effect1_dropShadow_2842_2384"/>
<feBlend mode="normal" in="SourceGraphic" in2="effect1_dropShadow_2842_2384" result="shape"/>
<feColorMatrix in="SourceAlpha" type="matrix" values="0 0 0 0 0 0 0 0 0 0 0 0 0 0 0 0 0 0 127 0" result="hardAlpha"/>
<feOffset dx="-18.3516" dy="32.1153"/>
<feGaussianBlur stdDeviation="38.9971"/>
<feComposite in2="hardAlpha" operator="arithmetic" k2="-1" k3="1"/>
<feColorMatrix type="matrix" values="0 0 0 0 1 0 0 0 0 1 0 0 0 0 1 0 0 0 0.87 0"/>
<feBlend mode="lighten" in2="shape" result="effect2_innerShadow_2842_2384"/>
<feColorMatrix in="SourceAlpha" type="matrix" values="0 0 0 0 0 0 0 0 0 0 0 0 0 0 0 0 0 0 127 0" result="hardAlpha"/>
<feOffset dx="26.3494" dy="15.3705"/>
<feGaussianBlur stdDeviation="15.3705"/>
<feComposite in2="hardAlpha" operator="arithmetic" k2="-1" k3="1"/>
<feColorMatrix type="matrix" values="0 0 0 0 0.168627 0 0 0 0 0.180392 0 0 0 0 0.239216 0 0 0 0.9 0"/>
<feBlend mode="multiply" in2="effect2_innerShadow_2842_2384" result="effect3_innerShadow_2842_2384"/>
</filter>
<filter id="filter5_di_2842_2384" x="186.689" y="49.748" width="35.5723" height="40.2862" filterUnits="userSpaceOnUse" color-interpolation-filters="sRGB">
<feFlood flood-opacity="0" result="BackgroundImageFix"/>
<feColorMatrix in="SourceAlpha" type="matrix" values="0 0 0 0 0 0 0 0 0 0 0 0 0 0 0 0 0 0 127 0" result="hardAlpha"/>
<feOffset dy="9.6137"/>
<feGaussianBlur stdDeviation="1.06819"/>
<feComposite in2="hardAlpha" operator="out"/>
<feColorMatrix type="matrix" values="0 0 0 0 0 0 0 0 0 0 0 0 0 0 0 0 0 0 0.16 0"/>
<feBlend mode="multiply" in2="BackgroundImageFix" result="effect1_dropShadow_2842_2384"/>
<feBlend mode="normal" in="SourceGraphic" in2="effect1_dropShadow_2842_2384" result="shape"/>
<feColorMatrix in="SourceAlpha" type="matrix" values="0 0 0 0 0 0 0 0 0 0 0 0 0 0 0 0 0 0 127 0" result="hardAlpha"/>
<feOffset dx="-4.90074" dy="8.5763"/>
<feGaussianBlur stdDeviation="10.4141"/>
<feComposite in2="hardAlpha" operator="arithmetic" k2="-1" k3="1"/>
<feColorMatrix type="matrix" values="0 0 0 0 1 0 0 0 0 1 0 0 0 0 1 0 0 0 0.87 0"/>
<feBlend mode="lighten" in2="shape" result="effect2_innerShadow_2842_2384"/>
</filter>
<filter id="filter6_diif_2842_2384" x="321.105" y="3.50473" width="112.01" height="123.897" filterUnits="userSpaceOnUse" color-interpolation-filters="sRGB">
<feFlood flood-opacity="0" result="BackgroundImageFix"/>
<feColorMatrix in="SourceAlpha" type="matrix" values="0 0 0 0 0 0 0 0 0 0 0 0 0 0 0 0 0 0 127 0" result="hardAlpha"/>
<feOffset dy="36"/>
<feGaussianBlur stdDeviation="4"/>
<feComposite in2="hardAlpha" operator="out"/>
<feColorMatrix type="matrix" values="0 0 0 0 0 0 0 0 0 0 0 0 0 0 0 0 0 0 0.16 0"/>
<feBlend mode="multiply" in2="BackgroundImageFix" result="effect1_dropShadow_2842_2384"/>
<feBlend mode="normal" in="SourceGraphic" in2="effect1_dropShadow_2842_2384" result="shape"/>
<feColorMatrix in="SourceAlpha" type="matrix" values="0 0 0 0 0 0 0 0 0 0 0 0 0 0 0 0 0 0 127 0" result="hardAlpha"/>
<feOffset dx="-18.3516" dy="32.1153"/>
<feGaussianBlur stdDeviation="38.9971"/>
<feComposite in2="hardAlpha" operator="arithmetic" k2="-1" k3="1"/>
<feColorMatrix type="matrix" values="0 0 0 0 1 0 0 0 0 1 0 0 0 0 1 0 0 0 0.87 0"/>
<feBlend mode="lighten" in2="shape" result="effect2_innerShadow_2842_2384"/>
<feColorMatrix in="SourceAlpha" type="matrix" values="0 0 0 0 0 0 0 0 0 0 0 0 0 0 0 0 0 0 127 0" result="hardAlpha"/>
<feOffset dx="26.3494" dy="15.3705"/>
<feGaussianBlur stdDeviation="15.3705"/>
<feComposite in2="hardAlpha" operator="arithmetic" k2="-1" k3="1"/>
<feColorMatrix type="matrix" values="0 0 0 0 0.168627 0 0 0 0 0.180392 0 0 0 0 0.239216 0 0 0 0.9 0"/>
<feBlend mode="multiply" in2="effect2_innerShadow_2842_2384" result="effect3_innerShadow_2842_2384"/>
<feGaussianBlur stdDeviation="6.295" result="effect4_foregroundBlur_2842_2384"/>
</filter>
<linearGradient id="paint0_linear_2842_2384" x1="424.702" y1="449.66" x2="342.044" y2="183.319" gradientUnits="userSpaceOnUse">
<stop offset="0.515679" stop-opacity="0"/>
<stop offset="1"/>
</linearGradient>
<radialGradient id="paint1_radial_2842_2384" cx="0" cy="0" r="1" gradientUnits="userSpaceOnUse" gradientTransform="translate(259.254 21.1158) rotate(72.8349) scale(139.3 281.459)">
<stop stop-color="#949494"/>
<stop offset="0.635171" stop-color="#181818"/>
<stop offset="1" stop-color="#1D1D1D"/>
</radialGradient>
<linearGradient id="paint2_linear_2842_2384" x1="77.2345" y1="86.4051" x2="253.337" y2="201.176" gradientUnits="userSpaceOnUse">
<stop offset="0.119214" stop-opacity="0"/>
<stop offset="1"/>
</linearGradient>
<radialGradient id="paint3_radial_2842_2384" cx="0" cy="0" r="1" gradientUnits="userSpaceOnUse" gradientTransform="translate(230.787 92.5723) rotate(111.274) scale(66.7768 222.194)">
<stop stop-color="#949494"/>
<stop offset="0.635171" stop-color="#181818"/>
<stop offset="1" stop-color="#1D1D1D"/>
</radialGradient>
<radialGradient id="paint4_radial_2842_2384" cx="0" cy="0" r="1" gradientUnits="userSpaceOnUse" gradientTransform="translate(523.643 111.2) rotate(169.586) scale(18.0744 54.5884)">
<stop stop-color="#949494"/>
<stop offset="0.635171" stop-color="#181818"/>
<stop offset="1" stop-color="#1D1D1D"/>
</radialGradient>
<radialGradient id="paint5_radial_2842_2384" cx="0" cy="0" r="1" gradientUnits="userSpaceOnUse" gradientTransform="translate(254.096 342.126) rotate(132.151) scale(11.5777 34.967)">
<stop stop-color="#949494"/>
<stop offset="0.635171" stop-color="#181818"/>
<stop offset="1" stop-color="#1D1D1D"/>
</radialGradient>
<radialGradient id="paint6_radial_2842_2384" cx="0" cy="0" r="1" gradientUnits="userSpaceOnUse" gradientTransform="translate(401.524 219.304) rotate(87.2124) scale(38.1045 99.0618)">
<stop stop-color="#949494"/>
<stop offset="0.635171" stop-color="#181818"/>
<stop offset="1" stop-color="#1D1D1D"/>
</radialGradient>
<radialGradient id="paint7_radial_2842_2384" cx="0" cy="0" r="1" gradientUnits="userSpaceOnUse" gradientTransform="translate(201.26 47.4191) rotate(87.2124) scale(10.1757 26.4542)">
<stop stop-color="#949494"/>
<stop offset="0.635171" stop-color="#181818"/>
<stop offset="1" stop-color="#1D1D1D"/>
</radialGradient>
<radialGradient id="paint8_radial_2842_2384" cx="0" cy="0" r="1" gradientUnits="userSpaceOnUse" gradientTransform="translate(389.423 12.5478) rotate(126.374) scale(24.0004 62.3948)">
<stop stop-color="#949494"/>
<stop offset="0.635171" stop-color="#181818"/>
<stop offset="1" stop-color="#1D1D1D"/>
</radialGradient>
<clipPath id="clip0_2842_2384">
<rect width="642" height="429" fill="white"/>
</clipPath>
<clipPath id="clip1_2842_2384">
<rect width="642" height="429" fill="white"/>
</clipPath>
</defs>
</svg>
