<svg width="20" height="17" viewBox="0 0 20 17" fill="none" xmlns="http://www.w3.org/2000/svg">
<g clip-path="url(#clip0_2449_3549)">
<path d="M19.961 2.16028C19.212 2.49028 18.419 2.70828 17.607 2.80628C18.462 2.29228 19.102 1.48628 19.409 0.537278C18.617 0.999278 17.738 1.33628 16.803 1.52428C15.535 0.167278 13.513 -0.166722 11.876 0.708278C10.238 1.58428 9.393 3.45128 9.817 5.25928C6.408 5.09828 3.389 3.46028 1.367 0.987278C0.999 1.61228 0.807 2.32528 0.812 3.04928C0.812 4.47428 1.537 5.72728 2.635 6.46328C1.984 6.44228 1.347 6.26628 0.778 5.94928V5.99928C0.778 7.95228 2.153 9.63528 4.067 10.0223C3.465 10.1833 2.835 10.2073 2.223 10.0933C2.763 11.7643 4.304 12.9073 6.06 12.9403C4.61 14.0793 2.819 14.6963 0.975 14.6943C0.65 14.6943 0.326 14.6753 0 14.6393C1.88 15.8423 4.065 16.4813 6.298 16.4793C13.842 16.4793 17.963 10.2333 17.963 4.82528C17.963 4.65028 17.963 4.47528 17.95 4.30028C18.755 3.72128 19.449 3.00228 20 2.17728L19.961 2.16028Z" fill="white"/>
</g>
<defs>
<clipPath id="clip0_2449_3549">
<rect width="20" height="16.2552" fill="white" transform="translate(0 0.224121)"/>
</clipPath>
</defs>
</svg>
