<svg width="21" height="20" viewBox="0 0 21 20" fill="none" xmlns="http://www.w3.org/2000/svg">
<g clip-path="url(#clip0_2473_591)">
<path d="M17.539 17.043H14.578V12.403C14.578 11.296 14.555 9.872 13.034 9.872C11.49 9.872 11.254 11.076 11.254 12.321V17.043H8.293V7.5H11.138V8.801H11.176C11.573 8.051 12.54 7.259 13.984 7.259C16.985 7.259 17.54 9.234 17.54 11.805V17.043H17.539ZM4.947 6.194C4.491 6.194 4.054 6.013 3.731 5.69C3.409 5.367 3.228 4.93 3.228 4.473C3.229 3.523 3.999 2.754 4.949 2.754C5.899 2.755 6.669 3.525 6.668 4.475C6.668 5.425 5.897 6.195 4.947 6.194ZM6.433 17.043H3.463V7.5H6.433V17.043ZM19.021 0H1.976C1.16 0 0.5 0.645 0.5 1.441V18.559C0.5 19.356 1.16 20 1.976 20H19.018C19.833 20 20.5 19.356 20.5 18.559V1.441C20.5 0.645 19.833 0 19.018 0H19.021Z" fill="white"/>
</g>
<defs>
<clipPath id="clip0_2473_591">
<rect width="20" height="20" fill="white" transform="translate(0.5)"/>
</clipPath>
</defs>
</svg>
