<svg width="260" height="120" viewBox="0 0 260 120" fill="none" xmlns="http://www.w3.org/2000/svg">
<g clip-path="url(#clip0_2467_520)">
<g filter="url(#filter0_d_2467_520)">
<rect width="260" height="120" rx="20" fill="url(#paint0_linear_2467_520)" shape-rendering="crispEdges"/>
</g>
<path d="M78.926 53.1818C78.8493 52.5341 78.5382 52.0312 77.9927 51.6733C77.4473 51.3153 76.7782 51.1364 75.9856 51.1364C75.4061 51.1364 74.899 51.2301 74.4643 51.4176C74.0339 51.6051 73.6973 51.8629 73.4544 52.1911C73.2157 52.5192 73.0964 52.892 73.0964 53.3097C73.0964 53.6591 73.1795 53.9595 73.3457 54.2109C73.5162 54.4581 73.7335 54.6648 73.9977 54.831C74.2619 54.9929 74.5389 55.1271 74.8287 55.2337C75.1184 55.3359 75.3848 55.419 75.6277 55.483L76.9572 55.8409C77.2981 55.9304 77.6774 56.054 78.095 56.2116C78.5169 56.3693 78.9196 56.5845 79.3031 56.8572C79.6909 57.1257 80.0105 57.4709 80.2619 57.8928C80.5133 58.3146 80.639 58.8324 80.639 59.446C80.639 60.1534 80.4537 60.7926 80.0829 61.3636C79.7164 61.9347 79.1795 62.3885 78.4721 62.7251C77.769 63.0618 76.9146 63.2301 75.9089 63.2301C74.9714 63.2301 74.1596 63.0788 73.4735 62.7763C72.7917 62.4737 72.2548 62.0518 71.8627 61.5107C71.475 60.9695 71.2555 60.3409 71.2044 59.625H72.8407C72.8833 60.1193 73.0495 60.5284 73.3393 60.8523C73.6333 61.1719 74.0041 61.4105 74.4515 61.5682C74.9032 61.7216 75.389 61.7983 75.9089 61.7983C76.514 61.7983 77.0574 61.7003 77.5389 61.5043C78.0204 61.304 78.4018 61.027 78.6831 60.6733C78.9643 60.3153 79.1049 59.8977 79.1049 59.4205C79.1049 58.9858 78.9835 58.6321 78.7406 58.3594C78.4977 58.0866 78.1781 57.8651 77.7818 57.6946C77.3855 57.5241 76.9572 57.375 76.497 57.2472L74.8862 56.7869C73.8635 56.4929 73.0538 56.0732 72.4572 55.5277C71.8606 54.9822 71.5623 54.2685 71.5623 53.3864C71.5623 52.6534 71.7605 52.0142 72.1568 51.4688C72.5574 50.919 73.0943 50.4929 73.7676 50.1903C74.4451 49.8835 75.2015 49.7301 76.0368 49.7301C76.8805 49.7301 77.6305 49.8814 78.2868 50.1839C78.943 50.4822 79.4629 50.8913 79.8464 51.4112C80.2342 51.9311 80.4387 52.5213 80.4601 53.1818H78.926ZM89.2283 58.9858V53.1818H90.7369V63H89.2283V61.3381H89.1261C88.896 61.8366 88.538 62.2607 88.0522 62.6101C87.5664 62.9553 86.9528 63.1278 86.2113 63.1278C85.5977 63.1278 85.0522 62.9936 84.5749 62.7251C84.0977 62.4524 83.7227 62.0433 83.4499 61.4979C83.1772 60.9482 83.0408 60.2557 83.0408 59.4205V53.1818H84.5494V59.3182C84.5494 60.0341 84.7496 60.6051 85.1502 61.0312C85.555 61.4574 86.0707 61.6705 86.6971 61.6705C87.0721 61.6705 87.4535 61.5746 87.8413 61.3828C88.2333 61.1911 88.5614 60.897 88.8256 60.5007C89.0941 60.1044 89.2283 59.5994 89.2283 58.9858ZM93.4998 66.6818V53.1818H94.9572V54.7415H95.1362C95.247 54.571 95.4004 54.3537 95.5964 54.0895C95.7967 53.821 96.0822 53.5824 96.4529 53.3736C96.8279 53.1605 97.335 53.054 97.9743 53.054C98.801 53.054 99.5297 53.2607 100.16 53.674C100.791 54.0874 101.283 54.6733 101.637 55.4318C101.991 56.1903 102.167 57.0852 102.167 58.1165C102.167 59.1562 101.991 60.0575 101.637 60.8203C101.283 61.5788 100.793 62.1669 100.167 62.5845C99.5403 62.9979 98.818 63.2045 97.9998 63.2045C97.3691 63.2045 96.8642 63.1001 96.4849 62.8913C96.1056 62.6783 95.8137 62.4375 95.6092 62.169C95.4047 61.8963 95.247 61.6705 95.1362 61.4915H95.0083V66.6818H93.4998ZM94.9828 58.0909C94.9828 58.8324 95.0914 59.4865 95.3088 60.0533C95.5261 60.6158 95.8436 61.0568 96.2612 61.3764C96.6788 61.6918 97.1902 61.8494 97.7953 61.8494C98.426 61.8494 98.9522 61.6832 99.3741 61.3509C99.8002 61.0142 100.12 60.5625 100.333 59.9957C100.55 59.4247 100.659 58.7898 100.659 58.0909C100.659 57.4006 100.552 56.7784 100.339 56.2244C100.131 55.6662 99.813 55.2251 99.3869 54.9013C98.965 54.5732 98.4345 54.4091 97.7953 54.4091C97.1816 54.4091 96.666 54.5646 96.2484 54.8757C95.8308 55.1825 95.5154 55.6129 95.3024 56.1669C95.0893 56.7166 94.9828 57.358 94.9828 58.0909ZM108.585 63.2045C107.639 63.2045 106.823 62.9957 106.137 62.5781C105.455 62.1562 104.929 61.5682 104.558 60.8139C104.192 60.0554 104.008 59.1733 104.008 58.1676C104.008 57.1619 104.192 56.2756 104.558 55.5085C104.929 54.7372 105.444 54.1364 106.105 53.706C106.77 53.2713 107.545 53.054 108.432 53.054C108.943 53.054 109.448 53.1392 109.947 53.3097C110.445 53.4801 110.899 53.7571 111.308 54.1406C111.717 54.5199 112.043 55.0227 112.286 55.6491C112.529 56.2756 112.65 57.0469 112.65 57.9631V58.6023H105.082V57.2983H111.116C111.116 56.7443 111.006 56.25 110.784 55.8153C110.567 55.3807 110.256 55.0376 109.851 54.7862C109.45 54.5348 108.977 54.4091 108.432 54.4091C107.831 54.4091 107.311 54.5582 106.872 54.8565C106.437 55.1506 106.103 55.5341 105.868 56.0071C105.634 56.4801 105.517 56.9872 105.517 57.5284V58.3977C105.517 59.1392 105.645 59.7678 105.9 60.2834C106.16 60.7947 106.52 61.1847 106.981 61.4531C107.441 61.7173 107.976 61.8494 108.585 61.8494C108.981 61.8494 109.339 61.794 109.659 61.6832C109.983 61.5682 110.262 61.3977 110.496 61.1719C110.731 60.9418 110.912 60.6562 111.04 60.3153L112.497 60.7244C112.344 61.2188 112.086 61.6534 111.724 62.0284C111.361 62.3991 110.914 62.6889 110.381 62.8977C109.849 63.1023 109.25 63.2045 108.585 63.2045ZM114.945 63V53.1818H116.403V54.6648H116.505C116.684 54.179 117.008 53.7848 117.476 53.4822C117.945 53.1797 118.474 53.0284 119.062 53.0284C119.172 53.0284 119.311 53.0305 119.477 53.0348C119.643 53.0391 119.769 53.0455 119.854 53.054V54.5881C119.803 54.5753 119.686 54.5561 119.503 54.5305C119.324 54.5007 119.134 54.4858 118.934 54.4858C118.456 54.4858 118.03 54.5859 117.655 54.7862C117.285 54.9822 116.991 55.255 116.773 55.6044C116.56 55.9496 116.454 56.3437 116.454 56.7869V63H114.945ZM125.332 63.2045C124.412 63.2045 123.619 62.9872 122.954 62.5526C122.29 62.1179 121.778 61.5192 121.42 60.7564C121.062 59.9936 120.883 59.1222 120.883 58.142C120.883 57.1449 121.067 56.2649 121.433 55.5021C121.804 54.7351 122.319 54.1364 122.98 53.706C123.645 53.2713 124.42 53.054 125.307 53.054C125.997 53.054 126.619 53.1818 127.173 53.4375C127.727 53.6932 128.181 54.0511 128.535 54.5114C128.888 54.9716 129.108 55.5085 129.193 56.1222H127.684C127.569 55.6747 127.314 55.2784 126.917 54.9332C126.525 54.5838 125.997 54.4091 125.332 54.4091C124.744 54.4091 124.229 54.5625 123.785 54.8693C123.346 55.1719 123.003 55.6001 122.756 56.1541C122.513 56.7038 122.392 57.3494 122.392 58.0909C122.392 58.8494 122.511 59.5099 122.75 60.0724C122.993 60.6349 123.334 61.0717 123.773 61.3828C124.216 61.6939 124.736 61.8494 125.332 61.8494C125.724 61.8494 126.08 61.7812 126.4 61.6449C126.719 61.5085 126.99 61.3125 127.211 61.0568C127.433 60.8011 127.591 60.4943 127.684 60.1364H129.193C129.108 60.7159 128.897 61.2379 128.56 61.7024C128.228 62.1626 127.787 62.5291 127.237 62.8018C126.692 63.0703 126.057 63.2045 125.332 63.2045ZM132.907 57.0938V63H131.398V49.9091H132.907V54.7159H133.035C133.265 54.2088 133.61 53.8061 134.07 53.5078C134.535 53.2053 135.153 53.054 135.924 53.054C136.593 53.054 137.179 53.1882 137.682 53.4567C138.184 53.7209 138.574 54.1278 138.851 54.6776C139.133 55.223 139.273 55.9176 139.273 56.7614V63H137.765V56.8636C137.765 56.0838 137.562 55.4808 137.157 55.0547C136.757 54.6243 136.201 54.4091 135.489 54.4091C134.995 54.4091 134.552 54.5135 134.16 54.7223C133.772 54.9311 133.465 55.2358 133.239 55.6364C133.018 56.0369 132.907 56.5227 132.907 57.0938ZM144.922 63.2301C144.3 63.2301 143.735 63.1129 143.228 62.8786C142.721 62.6399 142.319 62.2969 142.02 61.8494C141.722 61.3977 141.573 60.8523 141.573 60.2131C141.573 59.6506 141.684 59.1946 141.905 58.8452C142.127 58.4915 142.423 58.2145 142.794 58.0142C143.164 57.8139 143.574 57.6648 144.021 57.5668C144.473 57.4645 144.926 57.3835 145.382 57.3239C145.979 57.2472 146.463 57.1896 146.833 57.1513C147.208 57.1087 147.481 57.0384 147.652 56.9403C147.826 56.8423 147.914 56.6719 147.914 56.429V56.3778C147.914 55.7472 147.741 55.2571 147.396 54.9077C147.055 54.5582 146.537 54.3835 145.843 54.3835C145.123 54.3835 144.558 54.5412 144.149 54.8565C143.74 55.1719 143.452 55.5085 143.286 55.8665L141.854 55.3551C142.11 54.7585 142.451 54.294 142.877 53.9616C143.307 53.625 143.776 53.3906 144.283 53.2585C144.794 53.1222 145.297 53.054 145.792 53.054C146.107 53.054 146.469 53.0923 146.878 53.169C147.292 53.2415 147.69 53.3928 148.074 53.6229C148.461 53.853 148.783 54.2003 149.039 54.6648C149.294 55.1293 149.422 55.7514 149.422 56.5312V63H147.914V61.6705H147.837C147.735 61.8835 147.564 62.1115 147.326 62.3544C147.087 62.5973 146.77 62.804 146.373 62.9744C145.977 63.1449 145.493 63.2301 144.922 63.2301ZM145.152 61.875C145.749 61.875 146.252 61.7578 146.661 61.5234C147.074 61.2891 147.385 60.9865 147.594 60.6158C147.807 60.245 147.914 59.8551 147.914 59.446V58.0653C147.85 58.142 147.709 58.2124 147.492 58.2763C147.279 58.3359 147.032 58.3892 146.75 58.4361C146.473 58.4787 146.203 58.517 145.939 58.5511C145.679 58.581 145.468 58.6065 145.306 58.6278C144.914 58.679 144.547 58.7621 144.206 58.8771C143.87 58.9879 143.597 59.1562 143.388 59.3821C143.184 59.6037 143.081 59.9062 143.081 60.2898C143.081 60.8139 143.275 61.2102 143.663 61.4787C144.055 61.7429 144.551 61.875 145.152 61.875ZM152.176 63V53.1818H153.633V54.6648H153.735C153.914 54.179 154.238 53.7848 154.707 53.4822C155.176 53.1797 155.704 53.0284 156.292 53.0284C156.403 53.0284 156.541 53.0305 156.708 53.0348C156.874 53.0391 156.999 53.0455 157.085 53.054V54.5881C157.034 54.5753 156.916 54.5561 156.733 54.5305C156.554 54.5007 156.365 54.4858 156.164 54.4858C155.687 54.4858 155.261 54.5859 154.886 54.7862C154.515 54.9822 154.221 55.255 154.004 55.6044C153.791 55.9496 153.684 56.3437 153.684 56.7869V63H152.176ZM162.537 66.8864C161.808 66.8864 161.182 66.7926 160.658 66.6051C160.134 66.4219 159.697 66.179 159.347 65.8764C159.002 65.5781 158.727 65.2585 158.523 64.9176L159.725 64.0739C159.861 64.2528 160.034 64.4574 160.242 64.6875C160.451 64.9219 160.737 65.1243 161.099 65.2947C161.465 65.4695 161.945 65.5568 162.537 65.5568C163.33 65.5568 163.984 65.3651 164.499 64.9815C165.015 64.598 165.273 63.9972 165.273 63.179V61.1847H165.145C165.034 61.3636 164.877 61.5852 164.672 61.8494C164.472 62.1094 164.182 62.3416 163.803 62.5462C163.428 62.7464 162.921 62.8466 162.281 62.8466C161.489 62.8466 160.777 62.6591 160.146 62.2841C159.52 61.9091 159.024 61.3636 158.657 60.6477C158.295 59.9318 158.114 59.0625 158.114 58.0398C158.114 57.0341 158.291 56.1584 158.644 55.4126C158.998 54.6626 159.49 54.0831 160.121 53.674C160.752 53.2607 161.48 53.054 162.307 53.054C162.946 53.054 163.453 53.1605 163.828 53.3736C164.208 53.5824 164.497 53.821 164.698 54.0895C164.902 54.3537 165.06 54.571 165.171 54.7415H165.324V53.1818H166.781V63.2812C166.781 64.125 166.59 64.8111 166.206 65.3395C165.827 65.8722 165.316 66.2621 164.672 66.5092C164.033 66.7607 163.321 66.8864 162.537 66.8864ZM162.486 61.4915C163.091 61.4915 163.602 61.353 164.02 61.076C164.438 60.799 164.755 60.4006 164.972 59.8807C165.19 59.3608 165.298 58.7386 165.298 58.0142C165.298 57.3068 165.192 56.6825 164.979 56.1413C164.766 55.6001 164.45 55.1761 164.033 54.8693C163.615 54.5625 163.1 54.4091 162.486 54.4091C161.847 54.4091 161.314 54.571 160.888 54.8949C160.466 55.2187 160.149 55.6534 159.936 56.1989C159.727 56.7443 159.622 57.3494 159.622 58.0142C159.622 58.696 159.729 59.299 159.942 59.8232C160.159 60.343 160.479 60.7521 160.901 61.0504C161.327 61.3445 161.855 61.4915 162.486 61.4915ZM173.659 63.2045C172.713 63.2045 171.897 62.9957 171.211 62.5781C170.529 62.1562 170.003 61.5682 169.632 60.8139C169.266 60.0554 169.083 59.1733 169.083 58.1676C169.083 57.1619 169.266 56.2756 169.632 55.5085C170.003 54.7372 170.519 54.1364 171.179 53.706C171.844 53.2713 172.619 53.054 173.506 53.054C174.017 53.054 174.522 53.1392 175.021 53.3097C175.519 53.4801 175.973 53.7571 176.382 54.1406C176.791 54.5199 177.117 55.0227 177.36 55.6491C177.603 56.2756 177.725 57.0469 177.725 57.9631V58.6023H170.156V57.2983H176.191C176.191 56.7443 176.08 56.25 175.858 55.8153C175.641 55.3807 175.33 55.0376 174.925 54.7862C174.524 54.5348 174.051 54.4091 173.506 54.4091C172.905 54.4091 172.385 54.5582 171.946 54.8565C171.512 55.1506 171.177 55.5341 170.943 56.0071C170.708 56.4801 170.591 56.9872 170.591 57.5284V58.3977C170.591 59.1392 170.719 59.7678 170.975 60.2834C171.235 60.7947 171.595 61.1847 172.055 61.4531C172.515 61.7173 173.05 61.8494 173.659 61.8494C174.056 61.8494 174.414 61.794 174.733 61.6832C175.057 61.5682 175.336 61.3977 175.57 61.1719C175.805 60.9418 175.986 60.6562 176.114 60.3153L177.571 60.7244C177.418 61.2188 177.16 61.6534 176.798 62.0284C176.436 62.3991 175.988 62.6889 175.455 62.8977C174.923 63.1023 174.324 63.2045 173.659 63.2045ZM183.727 63.2045C182.909 63.2045 182.186 62.9979 181.56 62.5845C180.933 62.1669 180.443 61.5788 180.09 60.8203C179.736 60.0575 179.559 59.1562 179.559 58.1165C179.559 57.0852 179.736 56.1903 180.09 55.4318C180.443 54.6733 180.936 54.0874 181.566 53.674C182.197 53.2607 182.926 53.054 183.752 53.054C184.392 53.054 184.896 53.1605 185.267 53.3736C185.642 53.5824 185.928 53.821 186.124 54.0895C186.324 54.3537 186.48 54.571 186.59 54.7415H186.718V49.9091H188.227V63H186.769V61.4915H186.59C186.48 61.6705 186.322 61.8963 186.117 62.169C185.913 62.4375 185.621 62.6783 185.242 62.8913C184.862 63.1001 184.357 63.2045 183.727 63.2045ZM183.931 61.8494C184.536 61.8494 185.048 61.6918 185.465 61.3764C185.883 61.0568 186.2 60.6158 186.418 60.0533C186.635 59.4865 186.744 58.8324 186.744 58.0909C186.744 57.358 186.637 56.7166 186.424 56.1669C186.211 55.6129 185.896 55.1825 185.478 54.8757C185.061 54.5646 184.545 54.4091 183.931 54.4091C183.292 54.4091 182.759 54.5732 182.333 54.9013C181.911 55.2251 181.594 55.6662 181.381 56.2244C181.172 56.7784 181.068 57.4006 181.068 58.0909C181.068 58.7898 181.174 59.4247 181.387 59.9957C181.605 60.5625 181.924 61.0142 182.346 61.3509C182.772 61.6832 183.301 61.8494 183.931 61.8494ZM76.8182 88.6818V75.1818H78.2756V76.7415H78.4545C78.5653 76.571 78.7188 76.3537 78.9148 76.0895C79.1151 75.821 79.4006 75.5824 79.7713 75.3736C80.1463 75.1605 80.6534 75.054 81.2926 75.054C82.1193 75.054 82.848 75.2607 83.4787 75.674C84.1094 76.0874 84.6016 76.6733 84.9553 77.4318C85.3089 78.1903 85.4858 79.0852 85.4858 80.1165C85.4858 81.1562 85.3089 82.0575 84.9553 82.8203C84.6016 83.5788 84.1115 84.1669 83.4851 84.5845C82.8587 84.9979 82.1364 85.2045 81.3182 85.2045C80.6875 85.2045 80.1825 85.1001 79.8033 84.8913C79.424 84.6783 79.1321 84.4375 78.9276 84.169C78.723 83.8963 78.5653 83.6705 78.4545 83.4915H78.3267V88.6818H76.8182ZM78.3011 80.0909C78.3011 80.8324 78.4098 81.4865 78.6271 82.0533C78.8445 82.6158 79.1619 83.0568 79.5795 83.3764C79.9972 83.6918 80.5085 83.8494 81.1136 83.8494C81.7443 83.8494 82.2706 83.6832 82.6925 83.3509C83.1186 83.0142 83.4382 82.5625 83.6513 81.9957C83.8686 81.4247 83.9773 80.7898 83.9773 80.0909C83.9773 79.4006 83.8707 78.7784 83.6577 78.2244C83.4489 77.6662 83.1314 77.2251 82.7053 76.9013C82.2834 76.5732 81.7528 76.4091 81.1136 76.4091C80.5 76.4091 79.9844 76.5646 79.5668 76.8757C79.1491 77.1825 78.8338 77.6129 78.6207 78.1669C78.4077 78.7166 78.3011 79.358 78.3011 80.0909ZM91.9034 85.2045C90.9574 85.2045 90.1413 84.9957 89.4553 84.5781C88.7734 84.1562 88.2472 83.5682 87.8764 82.8139C87.5099 82.0554 87.3267 81.1733 87.3267 80.1676C87.3267 79.1619 87.5099 78.2756 87.8764 77.5085C88.2472 76.7372 88.7628 76.1364 89.4233 75.706C90.0881 75.2713 90.8636 75.054 91.75 75.054C92.2614 75.054 92.7663 75.1392 93.2649 75.3097C93.7635 75.4801 94.2173 75.7571 94.6264 76.1406C95.0355 76.5199 95.3615 77.0227 95.6044 77.6491C95.8473 78.2756 95.9688 79.0469 95.9688 79.9631V80.6023H88.4006V79.2983H94.4347C94.4347 78.7443 94.3239 78.25 94.1023 77.8153C93.8849 77.3807 93.5739 77.0376 93.169 76.7862C92.7685 76.5348 92.2955 76.4091 91.75 76.4091C91.1491 76.4091 90.6293 76.5582 90.1903 76.8565C89.7557 77.1506 89.4212 77.5341 89.1868 78.0071C88.9524 78.4801 88.8352 78.9872 88.8352 79.5284V80.3977C88.8352 81.1392 88.9631 81.7678 89.2188 82.2834C89.4787 82.7947 89.8388 83.1847 90.299 83.4531C90.7592 83.7173 91.294 83.8494 91.9034 83.8494C92.2997 83.8494 92.6577 83.794 92.9773 83.6832C93.3011 83.5682 93.5803 83.3977 93.8146 83.1719C94.049 82.9418 94.2301 82.6562 94.358 82.3153L95.8153 82.7244C95.6619 83.2188 95.4041 83.6534 95.0419 84.0284C94.6797 84.3991 94.2322 84.6889 93.6996 84.8977C93.1669 85.1023 92.5682 85.2045 91.9034 85.2045ZM98.2635 85V75.1818H99.7209V76.6648H99.8232C100.002 76.179 100.326 75.7848 100.795 75.4822C101.263 75.1797 101.792 75.0284 102.38 75.0284C102.491 75.0284 102.629 75.0305 102.795 75.0348C102.962 75.0391 103.087 75.0455 103.173 75.054V76.5881C103.121 76.5753 103.004 76.5561 102.821 76.5305C102.642 76.5007 102.452 76.4858 102.252 76.4858C101.775 76.4858 101.349 76.5859 100.974 76.7862C100.603 76.9822 100.309 77.255 100.092 77.6044C99.8786 77.9496 99.772 78.3437 99.772 78.7869V85H98.2635ZM109.948 75.1818V76.4602H104.656V75.1818H109.948ZM106.241 85V73.8267C106.241 73.2642 106.373 72.7955 106.637 72.4205C106.901 72.0455 107.244 71.7642 107.666 71.5767C108.088 71.3892 108.533 71.2955 109.002 71.2955C109.373 71.2955 109.675 71.3253 109.91 71.3849C110.144 71.4446 110.319 71.5 110.434 71.5511L109.999 72.8551C109.923 72.8295 109.816 72.7976 109.68 72.7592C109.548 72.7209 109.373 72.7017 109.156 72.7017C108.657 72.7017 108.297 72.8274 108.075 73.0788C107.858 73.3303 107.749 73.6989 107.749 74.1847V85H106.241ZM115.647 85.2045C114.76 85.2045 113.983 84.9936 113.314 84.5717C112.649 84.1499 112.129 83.5597 111.754 82.8011C111.383 82.0426 111.198 81.1562 111.198 80.142C111.198 79.1193 111.383 78.2266 111.754 77.4638C112.129 76.701 112.649 76.1087 113.314 75.6868C113.983 75.2649 114.76 75.054 115.647 75.054C116.533 75.054 117.309 75.2649 117.973 75.6868C118.642 76.1087 119.162 76.701 119.533 77.4638C119.908 78.2266 120.096 79.1193 120.096 80.142C120.096 81.1562 119.908 82.0426 119.533 82.8011C119.162 83.5597 118.642 84.1499 117.973 84.5717C117.309 84.9936 116.533 85.2045 115.647 85.2045ZM115.647 83.8494C116.32 83.8494 116.874 83.6768 117.309 83.3317C117.743 82.9865 118.065 82.5327 118.274 81.9702C118.483 81.4077 118.587 80.7983 118.587 80.142C118.587 79.4858 118.483 78.8743 118.274 78.3075C118.065 77.7408 117.743 77.2827 117.309 76.9332C116.874 76.5838 116.32 76.4091 115.647 76.4091C114.973 76.4091 114.419 76.5838 113.985 76.9332C113.55 77.2827 113.228 77.7408 113.02 78.3075C112.811 78.8743 112.706 79.4858 112.706 80.142C112.706 80.7983 112.811 81.4077 113.02 81.9702C113.228 82.5327 113.55 82.9865 113.985 83.3317C114.419 83.6768 114.973 83.8494 115.647 83.8494ZM122.398 85V75.1818H123.856V76.6648H123.958C124.137 76.179 124.461 75.7848 124.93 75.4822C125.398 75.1797 125.927 75.0284 126.515 75.0284C126.626 75.0284 126.764 75.0305 126.93 75.0348C127.096 75.0391 127.222 75.0455 127.307 75.054V76.5881C127.256 76.5753 127.139 76.5561 126.956 76.5305C126.777 76.5007 126.587 76.4858 126.387 76.4858C125.91 76.4858 125.483 76.5859 125.108 76.7862C124.738 76.9822 124.444 77.255 124.226 77.6044C124.013 77.9496 123.907 78.3437 123.907 78.7869V85H122.398ZM129.096 85V75.1818H130.553V76.7159H130.681C130.885 76.1918 131.216 75.7848 131.672 75.495C132.127 75.201 132.675 75.054 133.314 75.054C133.962 75.054 134.501 75.201 134.931 75.495C135.366 75.7848 135.705 76.1918 135.948 76.7159H136.05C136.301 76.2088 136.679 75.8061 137.181 75.5078C137.684 75.2053 138.287 75.054 138.99 75.054C139.868 75.054 140.586 75.3288 141.145 75.8786C141.703 76.424 141.982 77.2741 141.982 78.429V85H140.473V78.429C140.473 77.7045 140.275 77.1868 139.879 76.8757C139.483 76.5646 139.016 76.4091 138.479 76.4091C137.789 76.4091 137.254 76.6179 136.875 77.0355C136.495 77.4489 136.306 77.973 136.306 78.608V85H134.772V78.2756C134.772 77.7173 134.591 77.2678 134.228 76.9268C133.866 76.5817 133.4 76.4091 132.828 76.4091C132.436 76.4091 132.07 76.5135 131.729 76.7223C131.392 76.9311 131.12 77.2209 130.911 77.5916C130.706 77.9581 130.604 78.3821 130.604 78.8636V85H129.096ZM147.629 85.2301C147.007 85.2301 146.442 85.1129 145.935 84.8786C145.428 84.6399 145.026 84.2969 144.727 83.8494C144.429 83.3977 144.28 82.8523 144.28 82.2131C144.28 81.6506 144.391 81.1946 144.612 80.8452C144.834 80.4915 145.13 80.2145 145.501 80.0142C145.871 79.8139 146.281 79.6648 146.728 79.5668C147.18 79.4645 147.634 79.3835 148.089 79.3239C148.686 79.2472 149.17 79.1896 149.54 79.1513C149.915 79.1087 150.188 79.0384 150.359 78.9403C150.533 78.8423 150.621 78.6719 150.621 78.429V78.3778C150.621 77.7472 150.448 77.2571 150.103 76.9077C149.762 76.5582 149.244 76.3835 148.55 76.3835C147.83 76.3835 147.265 76.5412 146.856 76.8565C146.447 77.1719 146.159 77.5085 145.993 77.8665L144.561 77.3551C144.817 76.7585 145.158 76.294 145.584 75.9616C146.014 75.625 146.483 75.3906 146.99 75.2585C147.501 75.1222 148.004 75.054 148.499 75.054C148.814 75.054 149.176 75.0923 149.585 75.169C149.999 75.2415 150.397 75.3928 150.781 75.6229C151.168 75.853 151.49 76.2003 151.746 76.6648C152.001 77.1293 152.129 77.7514 152.129 78.5312V85H150.621V83.6705H150.544C150.442 83.8835 150.271 84.1115 150.033 84.3544C149.794 84.5973 149.477 84.804 149.08 84.9744C148.684 85.1449 148.2 85.2301 147.629 85.2301ZM147.859 83.875C148.456 83.875 148.959 83.7578 149.368 83.5234C149.781 83.2891 150.092 82.9865 150.301 82.6158C150.514 82.245 150.621 81.8551 150.621 81.446V80.0653C150.557 80.142 150.416 80.2124 150.199 80.2763C149.986 80.3359 149.739 80.3892 149.457 80.4361C149.18 80.4787 148.91 80.517 148.646 80.5511C148.386 80.581 148.175 80.6065 148.013 80.6278C147.621 80.679 147.254 80.7621 146.913 80.8771C146.577 80.9879 146.304 81.1562 146.095 81.3821C145.891 81.6037 145.788 81.9062 145.788 82.2898C145.788 82.8139 145.982 83.2102 146.37 83.4787C146.762 83.7429 147.259 83.875 147.859 83.875ZM156.391 79.0938V85H154.883V75.1818H156.34V76.7159H156.468C156.698 76.2173 157.047 75.8168 157.516 75.5142C157.985 75.2074 158.59 75.054 159.331 75.054C159.996 75.054 160.578 75.1903 161.077 75.4631C161.575 75.7315 161.963 76.1406 162.24 76.6903C162.517 77.2358 162.655 77.9261 162.655 78.7614V85H161.147V78.8636C161.147 78.0923 160.947 77.4915 160.546 77.0611C160.145 76.6264 159.596 76.4091 158.897 76.4091C158.415 76.4091 157.985 76.5135 157.606 76.7223C157.231 76.9311 156.934 77.2358 156.717 77.6364C156.5 78.0369 156.391 78.5227 156.391 79.0938ZM169.401 85.2045C168.48 85.2045 167.688 84.9872 167.023 84.5526C166.358 84.1179 165.847 83.5192 165.489 82.7564C165.131 81.9936 164.952 81.1222 164.952 80.142C164.952 79.1449 165.135 78.2649 165.501 77.5021C165.872 76.7351 166.388 76.1364 167.048 75.706C167.713 75.2713 168.489 75.054 169.375 75.054C170.065 75.054 170.688 75.1818 171.241 75.4375C171.795 75.6932 172.249 76.0511 172.603 76.5114C172.957 76.9716 173.176 77.5085 173.261 78.1222H171.753C171.638 77.6747 171.382 77.2784 170.986 76.9332C170.594 76.5838 170.065 76.4091 169.401 76.4091C168.813 76.4091 168.297 76.5625 167.854 76.8693C167.415 77.1719 167.072 77.6001 166.825 78.1541C166.582 78.7038 166.46 79.3494 166.46 80.0909C166.46 80.8494 166.58 81.5099 166.818 82.0724C167.061 82.6349 167.402 83.0717 167.841 83.3828C168.284 83.6939 168.804 83.8494 169.401 83.8494C169.793 83.8494 170.148 83.7812 170.468 83.6449C170.788 83.5085 171.058 83.3125 171.28 83.0568C171.501 82.8011 171.659 82.4943 171.753 82.1364H173.261C173.176 82.7159 172.965 83.2379 172.629 83.7024C172.296 84.1626 171.855 84.5291 171.305 84.8018C170.76 85.0703 170.125 85.2045 169.401 85.2045ZM179.583 85.2045C178.637 85.2045 177.821 84.9957 177.135 84.5781C176.453 84.1562 175.927 83.5682 175.556 82.8139C175.19 82.0554 175.006 81.1733 175.006 80.1676C175.006 79.1619 175.19 78.2756 175.556 77.5085C175.927 76.7372 176.442 76.1364 177.103 75.706C177.768 75.2713 178.543 75.054 179.43 75.054C179.941 75.054 180.446 75.1392 180.945 75.3097C181.443 75.4801 181.897 75.7571 182.306 76.1406C182.715 76.5199 183.041 77.0227 183.284 77.6491C183.527 78.2756 183.648 79.0469 183.648 79.9631V80.6023H176.08V79.2983H182.114C182.114 78.7443 182.004 78.25 181.782 77.8153C181.565 77.3807 181.254 77.0376 180.849 76.7862C180.448 76.5348 179.975 76.4091 179.43 76.4091C178.829 76.4091 178.309 76.5582 177.87 76.8565C177.435 77.1506 177.101 77.5341 176.866 78.0071C176.632 78.4801 176.515 78.9872 176.515 79.5284V80.3977C176.515 81.1392 176.643 81.7678 176.898 82.2834C177.158 82.7947 177.518 83.1847 177.979 83.4531C178.439 83.7173 178.974 83.8494 179.583 83.8494C179.979 83.8494 180.337 83.794 180.657 83.6832C180.981 83.5682 181.26 83.3977 181.494 83.1719C181.729 82.9418 181.91 82.6562 182.038 82.3153L183.495 82.7244C183.342 83.2188 183.084 83.6534 182.722 84.0284C182.359 84.3991 181.912 84.6889 181.379 84.8977C180.847 85.1023 180.248 85.2045 179.583 85.2045Z" fill="white"/>
</g>
<defs>
<filter id="filter0_d_2467_520" x="-15" y="-27" width="290" height="150" filterUnits="userSpaceOnUse" color-interpolation-filters="sRGB">
<feFlood flood-opacity="0" result="BackgroundImageFix"/>
<feColorMatrix in="SourceAlpha" type="matrix" values="0 0 0 0 0 0 0 0 0 0 0 0 0 0 0 0 0 0 127 0" result="hardAlpha"/>
<feOffset dy="-12"/>
<feGaussianBlur stdDeviation="7.5"/>
<feComposite in2="hardAlpha" operator="out"/>
<feColorMatrix type="matrix" values="0 0 0 0 1 0 0 0 0 1 0 0 0 0 1 0 0 0 0.1 0"/>
<feBlend mode="normal" in2="BackgroundImageFix" result="effect1_dropShadow_2467_520"/>
<feBlend mode="normal" in="SourceGraphic" in2="effect1_dropShadow_2467_520" result="shape"/>
</filter>
<linearGradient id="paint0_linear_2467_520" x1="130" y1="0" x2="130" y2="120" gradientUnits="userSpaceOnUse">
<stop stop-color="white" stop-opacity="0.26"/>
<stop offset="1" stop-color="#7E7D83" stop-opacity="0"/>
</linearGradient>
<clipPath id="clip0_2467_520">
<rect width="260" height="120" fill="white"/>
</clipPath>
</defs>
</svg>
