<svg width="350" height="148" viewBox="0 0 350 148" fill="none" xmlns="http://www.w3.org/2000/svg">
<g clip-path="url(#clip0_2449_3508)">
<rect width="350" height="148" rx="24" fill="url(#paint0_linear_2449_3508)"/>
<path d="M104.824 49.1616V63.707H103.062V49.1616H104.824ZM109.804 57.1445V63.707H108.128V52.7979H109.747V54.5025H109.889C110.145 53.9485 110.533 53.5034 111.054 53.1673C111.575 52.8263 112.247 52.6559 113.071 52.6559C113.81 52.6559 114.456 52.8074 115.01 53.1104C115.564 53.4087 115.995 53.8633 116.303 54.4741C116.61 55.0801 116.764 55.8472 116.764 56.7752V63.707H115.088V56.8888C115.088 56.0318 114.866 55.3642 114.42 54.886C113.975 54.4031 113.365 54.1616 112.588 54.1616C112.053 54.1616 111.575 54.2776 111.153 54.5096C110.737 54.7416 110.408 55.0801 110.166 55.5252C109.925 55.9703 109.804 56.5101 109.804 57.1445ZM124.685 52.7979V54.2184H118.804V52.7979H124.685ZM120.566 63.707V51.2923C120.566 50.6673 120.712 50.1464 121.006 49.7298C121.3 49.3131 121.681 49.0006 122.15 48.7923C122.618 48.5839 123.113 48.4798 123.634 48.4798C124.046 48.4798 124.382 48.5129 124.642 48.5792C124.903 48.6455 125.097 48.707 125.225 48.7638L124.742 50.2127C124.657 50.1843 124.538 50.1488 124.387 50.1062C124.24 50.0636 124.046 50.0423 123.804 50.0423C123.25 50.0423 122.85 50.1819 122.604 50.4613C122.363 50.7406 122.242 51.1502 122.242 51.69V63.707H120.566ZM127.034 63.707V52.7979H128.71V63.707H127.034ZM127.886 50.9798C127.56 50.9798 127.278 50.8685 127.041 50.646C126.809 50.4234 126.693 50.1559 126.693 49.8434C126.693 49.5309 126.809 49.2634 127.041 49.0408C127.278 48.8183 127.56 48.707 127.886 48.707C128.213 48.707 128.492 48.8183 128.724 49.0408C128.961 49.2634 129.08 49.5309 129.08 49.8434C129.08 50.1559 128.961 50.4234 128.724 50.646C128.492 50.8685 128.213 50.9798 127.886 50.9798ZM133.456 57.1445V63.707H131.78V52.7979H133.4V54.5025H133.542C133.797 53.9485 134.185 53.5034 134.706 53.1673C135.227 52.8263 135.9 52.6559 136.723 52.6559C137.462 52.6559 138.108 52.8074 138.662 53.1104C139.216 53.4087 139.647 53.8633 139.955 54.4741C140.263 55.0801 140.417 55.8472 140.417 56.7752V63.707H138.74V56.8888C138.74 56.0318 138.518 55.3642 138.073 54.886C137.628 54.4031 137.017 54.1616 136.24 54.1616C135.705 54.1616 135.227 54.2776 134.806 54.5096C134.389 54.7416 134.06 55.0801 133.819 55.5252C133.577 55.9703 133.456 56.5101 133.456 57.1445ZM143.479 63.707V52.7979H145.156V63.707H143.479ZM144.332 50.9798C144.005 50.9798 143.723 50.8685 143.487 50.646C143.254 50.4234 143.138 50.1559 143.138 49.8434C143.138 49.5309 143.254 49.2634 143.487 49.0408C143.723 48.8183 144.005 48.707 144.332 48.707C144.658 48.707 144.938 48.8183 145.17 49.0408C145.406 49.2634 145.525 49.5309 145.525 49.8434C145.525 50.1559 145.406 50.4234 145.17 50.646C144.938 50.8685 144.658 50.9798 144.332 50.9798ZM152.97 52.7979V54.2184H147.316V52.7979H152.97ZM148.964 50.1843H150.64V60.582C150.64 61.0555 150.709 61.4106 150.846 61.6474C150.988 61.8794 151.168 62.0356 151.386 62.1161C151.609 62.1919 151.843 62.2298 152.089 62.2298C152.274 62.2298 152.425 62.2203 152.544 62.2013C152.662 62.1777 152.757 62.1587 152.828 62.1445L153.169 63.6502C153.055 63.6928 152.896 63.7354 152.693 63.7781C152.489 63.8254 152.231 63.8491 151.919 63.8491C151.445 63.8491 150.981 63.7473 150.527 63.5437C150.077 63.3401 149.703 63.0299 149.404 62.6133C149.111 62.1966 148.964 61.671 148.964 61.0366V50.1843ZM159.948 63.9343C158.897 63.9343 157.99 63.7023 157.228 63.2383C156.47 62.7695 155.885 62.1161 155.473 61.2781C155.066 60.4353 154.863 59.4551 154.863 58.3377C154.863 57.2203 155.066 56.2354 155.473 55.3832C155.885 54.5262 156.458 53.8585 157.192 53.3803C157.931 52.8974 158.792 52.6559 159.777 52.6559C160.346 52.6559 160.907 52.7506 161.461 52.94C162.015 53.1294 162.519 53.4371 162.973 53.8633C163.428 54.2847 163.79 54.8434 164.06 55.5394C164.33 56.2354 164.465 57.0924 164.465 58.1104V58.8207H156.056V57.3718H162.76C162.76 56.7563 162.637 56.207 162.391 55.7241C162.15 55.2411 161.804 54.86 161.354 54.5806C160.909 54.3013 160.383 54.1616 159.777 54.1616C159.11 54.1616 158.532 54.3273 158.044 54.6587C157.561 54.9854 157.19 55.4116 156.929 55.9371C156.669 56.4627 156.539 57.0262 156.539 57.6275V58.5934C156.539 59.4173 156.681 60.1156 156.965 60.6886C157.254 61.2567 157.654 61.69 158.165 61.9883C158.676 62.2818 159.271 62.4286 159.948 62.4286C160.388 62.4286 160.786 62.3671 161.141 62.244C161.501 62.1161 161.811 61.9267 162.071 61.6758C162.332 61.4201 162.533 61.1029 162.675 60.7241L164.294 61.1786C164.124 61.7279 163.837 62.2108 163.435 62.6275C163.033 63.0394 162.535 63.3614 161.944 63.5934C161.352 63.8207 160.686 63.9343 159.948 63.9343ZM168.691 49.1616V63.707H167.015V49.1616H168.691ZM172.84 67.7979C172.556 67.7979 172.303 67.7743 172.08 67.7269C171.858 67.6843 171.704 67.6417 171.619 67.5991L172.045 66.1218C172.452 66.226 172.812 66.2638 173.124 66.2354C173.437 66.207 173.714 66.0674 173.955 65.8164C174.201 65.5702 174.426 65.1701 174.63 64.6161L174.942 63.7638L170.908 52.7979H172.727L175.738 61.4911H175.852L178.863 52.7979H180.681L176.05 65.2979C175.842 65.8614 175.584 66.3278 175.276 66.6971C174.969 67.0711 174.611 67.3481 174.204 67.5281C173.801 67.708 173.347 67.7979 172.84 67.7979ZM196.246 55.2411L194.74 55.6673C194.645 55.4163 194.506 55.1725 194.321 54.9357C194.141 54.6942 193.895 54.4954 193.582 54.3391C193.27 54.1829 192.87 54.1048 192.382 54.1048C191.714 54.1048 191.158 54.2586 190.713 54.5664C190.273 54.8694 190.053 55.2553 190.053 55.7241C190.053 56.1407 190.204 56.4698 190.507 56.7113C190.81 56.9528 191.284 57.154 191.928 57.315L193.547 57.7127C194.522 57.9495 195.249 58.3117 195.727 58.7994C196.205 59.2823 196.445 59.9049 196.445 60.6673C196.445 61.2923 196.265 61.851 195.905 62.3434C195.55 62.8358 195.053 63.2241 194.413 63.5082C193.774 63.7923 193.031 63.9343 192.183 63.9343C191.071 63.9343 190.15 63.6928 189.42 63.2099C188.691 62.7269 188.23 62.0214 188.036 61.0934L189.626 60.6957C189.778 61.2828 190.064 61.7231 190.486 62.0167C190.912 62.3103 191.468 62.457 192.155 62.457C192.936 62.457 193.556 62.2913 194.016 61.9599C194.48 61.6237 194.712 61.2212 194.712 60.7525C194.712 60.3737 194.579 60.0565 194.314 59.8008C194.049 59.5404 193.642 59.3462 193.092 59.2184L191.274 58.7923C190.275 58.5555 189.541 58.1886 189.072 57.6914C188.608 57.1895 188.376 56.5621 188.376 55.8093C188.376 55.1938 188.549 54.6493 188.895 54.1758C189.245 53.7023 189.721 53.3306 190.322 53.0607C190.929 52.7908 191.615 52.6559 192.382 52.6559C193.462 52.6559 194.309 52.8926 194.925 53.3661C195.545 53.8396 195.985 54.4646 196.246 55.2411ZM203.4 63.9343C202.377 63.9343 201.496 63.6928 200.757 63.2099C200.019 62.7269 199.451 62.0617 199.053 61.2141C198.655 60.3666 198.456 59.3983 198.456 58.3093C198.456 57.2013 198.66 56.2236 199.067 55.3761C199.479 54.5238 200.052 53.8585 200.786 53.3803C201.525 52.8974 202.386 52.6559 203.371 52.6559C204.138 52.6559 204.829 52.7979 205.445 53.082C206.06 53.3661 206.565 53.7638 206.958 54.2752C207.351 54.7866 207.595 55.3832 207.689 56.065H206.013C205.885 55.5678 205.601 55.1275 205.161 54.744C204.725 54.3557 204.138 54.1616 203.4 54.1616C202.746 54.1616 202.173 54.332 201.681 54.6729C201.193 55.0091 200.812 55.485 200.537 56.1005C200.267 56.7113 200.132 57.4286 200.132 58.2525C200.132 59.0953 200.265 59.8292 200.53 60.4542C200.8 61.0792 201.179 61.5645 201.667 61.9102C202.159 62.2558 202.737 62.4286 203.4 62.4286C203.835 62.4286 204.23 62.3529 204.586 62.2013C204.941 62.0498 205.241 61.832 205.488 61.5479C205.734 61.2638 205.909 60.9229 206.013 60.5252H207.689C207.595 61.1692 207.36 61.7492 206.986 62.2653C206.617 62.7766 206.127 63.1838 205.516 63.4869C204.91 63.7852 204.204 63.9343 203.4 63.9343ZM213.35 63.9627C212.658 63.9627 212.031 63.8325 211.468 63.5721C210.904 63.3069 210.457 62.9258 210.125 62.4286C209.794 61.9267 209.628 61.3207 209.628 60.6104C209.628 59.9854 209.751 59.4788 209.998 59.0906C210.244 58.6976 210.573 58.3898 210.985 58.1673C211.397 57.9447 211.851 57.779 212.348 57.6701C212.85 57.5565 213.355 57.4665 213.861 57.4002C214.524 57.315 215.061 57.2511 215.473 57.2085C215.89 57.1611 216.193 57.083 216.382 56.9741C216.577 56.8652 216.674 56.6758 216.674 56.4059V56.3491C216.674 55.6483 216.482 55.1038 216.098 54.7156C215.72 54.3273 215.144 54.1332 214.373 54.1332C213.572 54.1332 212.945 54.3084 212.49 54.6587C212.036 55.0091 211.716 55.3832 211.532 55.7809L209.941 55.2127C210.225 54.5498 210.604 54.0337 211.077 53.6644C211.555 53.2904 212.076 53.0299 212.64 52.8832C213.208 52.7317 213.766 52.6559 214.316 52.6559C214.666 52.6559 215.069 52.6985 215.523 52.7837C215.982 52.8642 216.425 53.0323 216.851 53.288C217.282 53.5437 217.64 53.9296 217.924 54.4457C218.208 54.9618 218.35 55.6531 218.35 56.5195V63.707H216.674V62.2298H216.588C216.475 62.4665 216.285 62.7198 216.02 62.9897C215.755 63.2596 215.402 63.4892 214.962 63.6786C214.522 63.868 213.984 63.9627 213.35 63.9627ZM213.605 62.457C214.268 62.457 214.827 62.3268 215.282 62.0664C215.741 61.806 216.087 61.4698 216.319 61.0579C216.555 60.646 216.674 60.2127 216.674 59.7582V58.2241C216.603 58.3093 216.446 58.3874 216.205 58.4585C215.968 58.5247 215.694 58.5839 215.381 58.636C215.073 58.6834 214.773 58.726 214.479 58.7638C214.19 58.797 213.956 58.8254 213.776 58.8491C213.34 58.9059 212.933 58.9982 212.554 59.1261C212.18 59.2492 211.877 59.4362 211.645 59.6871C211.418 59.9334 211.304 60.2695 211.304 60.6957C211.304 61.2781 211.52 61.7184 211.951 62.0167C212.386 62.3103 212.938 62.457 213.605 62.457ZM223.085 49.1616V63.707H221.409V49.1616H223.085ZM229.365 63.9627C228.674 63.9627 228.047 63.8325 227.483 63.5721C226.92 63.3069 226.472 62.9258 226.141 62.4286C225.81 61.9267 225.644 61.3207 225.644 60.6104C225.644 59.9854 225.767 59.4788 226.013 59.0906C226.259 58.6976 226.588 58.3898 227 58.1673C227.412 57.9447 227.867 57.779 228.364 57.6701C228.866 57.5565 229.37 57.4665 229.877 57.4002C230.54 57.315 231.077 57.2511 231.489 57.2085C231.906 57.1611 232.209 57.083 232.398 56.9741C232.592 56.8652 232.689 56.6758 232.689 56.4059V56.3491C232.689 55.6483 232.498 55.1038 232.114 54.7156C231.735 54.3273 231.16 54.1332 230.388 54.1332C229.588 54.1332 228.961 54.3084 228.506 54.6587C228.051 55.0091 227.732 55.3832 227.547 55.7809L225.956 55.2127C226.24 54.5498 226.619 54.0337 227.093 53.6644C227.571 53.2904 228.092 53.0299 228.655 52.8832C229.223 52.7317 229.782 52.6559 230.331 52.6559C230.682 52.6559 231.084 52.6985 231.539 52.7837C231.998 52.8642 232.441 53.0323 232.867 53.288C233.298 53.5437 233.655 53.9296 233.939 54.4457C234.223 54.9618 234.365 55.6531 234.365 56.5195V63.707H232.689V62.2298H232.604C232.49 62.4665 232.301 62.7198 232.036 62.9897C231.771 63.2596 231.418 63.4892 230.978 63.6786C230.537 63.868 230 63.9627 229.365 63.9627ZM229.621 62.457C230.284 62.457 230.843 62.3268 231.297 62.0664C231.757 61.806 232.102 61.4698 232.334 61.0579C232.571 60.646 232.689 60.2127 232.689 59.7582V58.2241C232.618 58.3093 232.462 58.3874 232.221 58.4585C231.984 58.5247 231.709 58.5839 231.397 58.636C231.089 58.6834 230.788 58.726 230.495 58.7638C230.206 58.797 229.971 58.8254 229.792 58.8491C229.356 58.9059 228.949 58.9982 228.57 59.1261C228.196 59.2492 227.893 59.4362 227.661 59.6871C227.434 59.9334 227.32 60.2695 227.32 60.6957C227.32 61.2781 227.535 61.7184 227.966 62.0167C228.402 62.3103 228.953 62.457 229.621 62.457ZM237.652 63.707V49.1616H239.328V54.5309H239.47C239.593 54.3415 239.764 54.1 239.982 53.8065C240.204 53.5082 240.521 53.243 240.933 53.011C241.35 52.7743 241.913 52.6559 242.624 52.6559C243.542 52.6559 244.352 52.8855 245.053 53.3448C245.753 53.8041 246.3 54.4551 246.693 55.2979C247.086 56.1407 247.283 57.1351 247.283 58.2809C247.283 59.4362 247.086 60.4376 246.693 61.2852C246.3 62.128 245.756 62.7814 245.06 63.2454C244.364 63.7047 243.561 63.9343 242.652 63.9343C241.951 63.9343 241.39 63.8183 240.969 63.5863C240.547 63.3496 240.223 63.082 239.996 62.7837C239.768 62.4807 239.593 62.2298 239.47 62.0309H239.271V63.707H237.652ZM239.3 58.2525C239.3 59.0763 239.42 59.8031 239.662 60.4329C239.903 61.0579 240.256 61.5479 240.72 61.9031C241.184 62.2534 241.752 62.4286 242.425 62.4286C243.125 62.4286 243.71 62.244 244.179 61.8746C244.652 61.5006 245.008 60.9987 245.244 60.369C245.486 59.7345 245.607 59.029 245.607 58.2525C245.607 57.4854 245.488 56.7942 245.251 56.1786C245.019 55.5584 244.667 55.0683 244.193 54.7085C243.724 54.3439 243.135 54.1616 242.425 54.1616C241.743 54.1616 241.17 54.3344 240.706 54.68C240.242 55.021 239.892 55.4992 239.655 56.1147C239.418 56.7255 239.3 57.4381 239.3 58.2525ZM251.523 49.1616V63.707H249.847V49.1616H251.523ZM259.167 63.9343C258.115 63.9343 257.209 63.7023 256.446 63.2383C255.689 62.7695 255.104 62.1161 254.692 61.2781C254.285 60.4353 254.081 59.4551 254.081 58.3377C254.081 57.2203 254.285 56.2354 254.692 55.3832C255.104 54.5262 255.677 53.8585 256.411 53.3803C257.15 52.8974 258.011 52.6559 258.996 52.6559C259.564 52.6559 260.125 52.7506 260.679 52.94C261.233 53.1294 261.738 53.4371 262.192 53.8633C262.647 54.2847 263.009 54.8434 263.279 55.5394C263.549 56.2354 263.684 57.0924 263.684 58.1104V58.8207H255.275V57.3718H261.979C261.979 56.7563 261.856 56.207 261.61 55.7241C261.368 55.2411 261.023 54.86 260.573 54.5806C260.128 54.3013 259.602 54.1616 258.996 54.1616C258.328 54.1616 257.751 54.3273 257.263 54.6587C256.78 54.9854 256.408 55.4116 256.148 55.9371C255.888 56.4627 255.757 57.0262 255.757 57.6275V58.5934C255.757 59.4173 255.9 60.1156 256.184 60.6886C256.472 61.2567 256.873 61.69 257.384 61.9883C257.895 62.2818 258.489 62.4286 259.167 62.4286C259.607 62.4286 260.005 62.3671 260.36 62.244C260.72 62.1161 261.03 61.9267 261.29 61.6758C261.551 61.4201 261.752 61.1029 261.894 60.7241L263.513 61.1786C263.343 61.7279 263.056 62.2108 262.654 62.6275C262.251 63.0394 261.754 63.3614 261.162 63.5934C260.57 63.8207 259.905 63.9343 259.167 63.9343Z" fill="white"/>
</g>
<defs>
<linearGradient id="paint0_linear_2449_3508" x1="175" y1="0" x2="175" y2="148" gradientUnits="userSpaceOnUse">
<stop stop-color="white" stop-opacity="0.26"/>
<stop offset="1" stop-color="#7E7D83" stop-opacity="0"/>
</linearGradient>
<clipPath id="clip0_2449_3508">
<rect width="350" height="148" fill="white"/>
</clipPath>
</defs>
</svg>
