<svg width="350" height="148" viewBox="0 0 350 148" fill="none" xmlns="http://www.w3.org/2000/svg">
<g clip-path="url(#clip0_2449_3510)">
<rect width="350" height="148" rx="24" fill="url(#paint0_linear_2449_3510)"/>
<path d="M68.8136 52.7979C68.7283 52.0782 68.3827 51.5195 67.7766 51.1218C67.1706 50.7241 66.4272 50.5252 65.5465 50.5252C64.9026 50.5252 64.3391 50.6294 63.8562 50.8377C63.378 51.046 63.0039 51.3325 62.734 51.6971C62.4689 52.0617 62.3363 52.476 62.3363 52.94C62.3363 53.3282 62.4286 53.662 62.6133 53.9414C62.8027 54.216 63.0442 54.4457 63.3377 54.6303C63.6313 54.8103 63.939 54.9594 64.261 55.0778C64.583 55.1914 64.8789 55.2837 65.1488 55.3548L66.6261 55.7525C67.0049 55.8519 67.4263 55.9892 67.8903 56.1644C68.359 56.3396 68.8065 56.5787 69.2326 56.8817C69.6635 57.18 70.0186 57.5636 70.2979 58.0323C70.5773 58.5011 70.717 59.0763 70.717 59.7582C70.717 60.5442 70.511 61.2544 70.0991 61.8888C69.6919 62.5233 69.0953 63.0276 68.3093 63.4016C67.5281 63.7757 66.5787 63.9627 65.4613 63.9627C64.4196 63.9627 63.5176 63.7946 62.7553 63.4585C61.9978 63.1223 61.4012 62.6535 60.9656 62.0522C60.5347 61.4509 60.2908 60.7525 60.234 59.957H62.0522C62.0996 60.5063 62.2842 60.9608 62.6062 61.3207C62.9329 61.6758 63.3448 61.9409 63.842 62.1161C64.3439 62.2866 64.8836 62.3718 65.4613 62.3718C66.1336 62.3718 66.7373 62.2629 67.2724 62.0451C67.8074 61.8226 68.2312 61.5148 68.5437 61.1218C68.8562 60.7241 69.0124 60.2601 69.0124 59.7298C69.0124 59.2468 68.8775 58.8538 68.6076 58.5508C68.3377 58.2478 67.9826 58.0015 67.5423 57.8121C67.1019 57.6228 66.6261 57.457 66.1147 57.315L64.3249 56.8036C63.1886 56.4769 62.2889 56.0105 61.6261 55.4045C60.9632 54.7984 60.6317 54.0053 60.6317 53.0252C60.6317 52.2108 60.8519 51.5006 61.2923 50.8945C61.7373 50.2837 62.3339 49.8103 63.082 49.4741C63.8349 49.1332 64.6753 48.9627 65.6033 48.9627C66.5408 48.9627 67.3742 49.1308 68.1033 49.467C68.8325 49.7984 69.4102 50.253 69.8363 50.8306C70.2672 51.4083 70.4944 52.064 70.5181 52.7979H68.8136ZM80.2607 59.2468V52.7979H81.9368V63.707H80.2607V61.8604H80.147C79.8913 62.4144 79.4936 62.8855 78.9538 63.2738C78.4141 63.6573 77.7322 63.8491 76.9084 63.8491C76.2266 63.8491 75.6205 63.6999 75.0902 63.4016C74.5599 63.0986 74.1432 62.6441 73.8402 62.038C73.5372 61.4272 73.3857 60.6578 73.3857 59.7298V52.7979H75.0618V59.6161C75.0618 60.4116 75.2843 61.046 75.7294 61.5195C76.1792 61.993 76.7521 62.2298 77.4482 62.2298C77.8648 62.2298 78.2886 62.1232 78.7195 61.9102C79.1551 61.6971 79.5196 61.3704 79.8132 60.93C80.1115 60.4897 80.2607 59.9286 80.2607 59.2468ZM85.0067 67.7979V52.7979H86.6261V54.5309H86.8249C86.948 54.3415 87.1185 54.1 87.3363 53.8065C87.5588 53.5082 87.8761 53.243 88.288 53.011C88.7047 52.7743 89.2681 52.6559 89.9783 52.6559C90.8969 52.6559 91.7066 52.8855 92.4073 53.3448C93.1081 53.8041 93.6549 54.4551 94.0479 55.2979C94.4409 56.1407 94.6374 57.1351 94.6374 58.2809C94.6374 59.4362 94.4409 60.4376 94.0479 61.2852C93.6549 62.128 93.1104 62.7814 92.4144 63.2454C91.7184 63.7047 90.9158 63.9343 90.0067 63.9343C89.306 63.9343 88.7449 63.8183 88.3235 63.5863C87.9021 63.3496 87.5778 63.082 87.3505 62.7837C87.1232 62.4807 86.948 62.2298 86.8249 62.0309H86.6829V67.7979H85.0067ZM86.6545 58.2525C86.6545 59.0763 86.7752 59.8031 87.0167 60.4329C87.2582 61.0579 87.6109 61.5479 88.0749 61.9031C88.5389 62.2534 89.1071 62.4286 89.7795 62.4286C90.4802 62.4286 91.065 62.244 91.5337 61.8746C92.0072 61.5006 92.3623 60.9987 92.5991 60.369C92.8406 59.7345 92.9613 59.029 92.9613 58.2525C92.9613 57.4854 92.8429 56.7942 92.6062 56.1786C92.3742 55.5584 92.0214 55.0683 91.5479 54.7085C91.0792 54.3439 90.4897 54.1616 89.7795 54.1616C89.0977 54.1616 88.5247 54.3344 88.0607 54.68C87.5967 55.021 87.2463 55.4992 87.0096 56.1147C86.7728 56.7255 86.6545 57.4381 86.6545 58.2525ZM101.768 63.9343C100.717 63.9343 99.8103 63.7023 99.0479 63.2383C98.2904 62.7695 97.7056 62.1161 97.2937 61.2781C96.8865 60.4353 96.6829 59.4551 96.6829 58.3377C96.6829 57.2203 96.8865 56.2354 97.2937 55.3832C97.7056 54.5262 98.2785 53.8585 99.0124 53.3803C99.7511 52.8974 100.613 52.6559 101.598 52.6559C102.166 52.6559 102.727 52.7506 103.281 52.94C103.835 53.1294 104.339 53.4371 104.794 53.8633C105.248 54.2847 105.61 54.8434 105.88 55.5394C106.15 56.2354 106.285 57.0924 106.285 58.1104V58.8207H97.8761V57.3718H104.581C104.581 56.7563 104.458 56.207 104.211 55.7241C103.97 55.2411 103.624 54.86 103.174 54.5806C102.729 54.3013 102.204 54.1616 101.598 54.1616C100.93 54.1616 100.352 54.3273 99.8647 54.6587C99.3817 54.9854 99.0101 55.4116 98.7496 55.9371C98.4892 56.4627 98.359 57.0262 98.359 57.6275V58.5934C98.359 59.4173 98.5011 60.1156 98.7852 60.6886C99.074 61.2567 99.4741 61.69 99.9854 61.9883C100.497 62.2818 101.091 62.4286 101.768 62.4286C102.208 62.4286 102.606 62.3671 102.961 62.244C103.321 62.1161 103.631 61.9267 103.892 61.6758C104.152 61.4201 104.353 61.1029 104.495 60.7241L106.115 61.1786C105.944 61.7279 105.658 62.2108 105.255 62.6275C104.853 63.0394 104.356 63.3614 103.764 63.5934C103.172 63.8207 102.507 63.9343 101.768 63.9343ZM108.835 63.707V52.7979H110.454V54.4457H110.568C110.767 53.9059 111.127 53.4679 111.647 53.1317C112.168 52.7956 112.755 52.6275 113.409 52.6275C113.532 52.6275 113.686 52.6299 113.87 52.6346C114.055 52.6393 114.195 52.6464 114.289 52.6559V54.3604C114.233 54.3462 114.102 54.3249 113.899 54.2965C113.7 54.2634 113.489 54.2468 113.267 54.2468C112.736 54.2468 112.263 54.3581 111.846 54.5806C111.434 54.7984 111.108 55.1014 110.866 55.4897C110.629 55.8732 110.511 56.3112 110.511 56.8036V63.707H108.835ZM120.376 63.9343C119.353 63.9343 118.473 63.6928 117.734 63.2099C116.995 62.7269 116.427 62.0617 116.029 61.2141C115.632 60.3666 115.433 59.3983 115.433 58.3093C115.433 57.2013 115.636 56.2236 116.044 55.3761C116.456 54.5238 117.029 53.8585 117.762 53.3803C118.501 52.8974 119.363 52.6559 120.348 52.6559C121.115 52.6559 121.806 52.7979 122.422 53.082C123.037 53.3661 123.541 53.7638 123.934 54.2752C124.327 54.7866 124.571 55.3832 124.666 56.065H122.99C122.862 55.5678 122.578 55.1275 122.137 54.744C121.702 54.3557 121.115 54.1616 120.376 54.1616C119.723 54.1616 119.15 54.332 118.657 54.6729C118.17 55.0091 117.788 55.485 117.514 56.1005C117.244 56.7113 117.109 57.4286 117.109 58.2525C117.109 59.0953 117.242 59.8292 117.507 60.4542C117.777 61.0792 118.155 61.5645 118.643 61.9102C119.136 62.2558 119.713 62.4286 120.376 62.4286C120.812 62.4286 121.207 62.3529 121.562 62.2013C121.917 62.0498 122.218 61.832 122.464 61.5479C122.71 61.2638 122.886 60.9229 122.99 60.5252H124.666C124.571 61.1692 124.337 61.7492 123.963 62.2653C123.593 62.7766 123.103 63.1838 122.493 63.4869C121.886 63.7852 121.181 63.9343 120.376 63.9343ZM128.792 57.1445V63.707H127.116V49.1616H128.792V54.5025H128.934C129.19 53.939 129.574 53.4916 130.085 53.1602C130.601 52.824 131.288 52.6559 132.145 52.6559C132.888 52.6559 133.539 52.805 134.098 53.1033C134.656 53.3969 135.09 53.8491 135.397 54.4599C135.71 55.0659 135.866 55.8377 135.866 56.7752V63.707H134.19V56.8888C134.19 56.0224 133.965 55.3524 133.515 54.8789C133.07 54.4007 132.452 54.1616 131.662 54.1616C131.112 54.1616 130.62 54.2776 130.184 54.5096C129.753 54.7416 129.413 55.0801 129.162 55.5252C128.915 55.9703 128.792 56.5101 128.792 57.1445ZM142.143 63.9627C141.451 63.9627 140.824 63.8325 140.261 63.5721C139.697 63.3069 139.25 62.9258 138.918 62.4286C138.587 61.9267 138.421 61.3207 138.421 60.6104C138.421 59.9854 138.544 59.4788 138.79 59.0906C139.037 58.6976 139.366 58.3898 139.778 58.1673C140.19 57.9447 140.644 57.779 141.141 57.6701C141.643 57.5565 142.147 57.4665 142.654 57.4002C143.317 57.315 143.854 57.2511 144.266 57.2085C144.683 57.1611 144.986 57.083 145.175 56.9741C145.37 56.8652 145.467 56.6758 145.467 56.4059V56.3491C145.467 55.6483 145.275 55.1038 144.891 54.7156C144.513 54.3273 143.937 54.1332 143.165 54.1332C142.365 54.1332 141.738 54.3084 141.283 54.6587C140.829 55.0091 140.509 55.3832 140.325 55.7809L138.734 55.2127C139.018 54.5498 139.397 54.0337 139.87 53.6644C140.348 53.2904 140.869 53.0299 141.433 52.8832C142.001 52.7317 142.559 52.6559 143.109 52.6559C143.459 52.6559 143.862 52.6985 144.316 52.7837C144.775 52.8642 145.218 53.0323 145.644 53.288C146.075 53.5437 146.433 53.9296 146.717 54.4457C147.001 54.9618 147.143 55.6531 147.143 56.5195V63.707H145.467V62.2298H145.381C145.268 62.4665 145.078 62.7198 144.813 62.9897C144.548 63.2596 144.195 63.4892 143.755 63.6786C143.315 63.868 142.777 63.9627 142.143 63.9627ZM142.398 62.457C143.061 62.457 143.62 62.3268 144.075 62.0664C144.534 61.806 144.879 61.4698 145.112 61.0579C145.348 60.646 145.467 60.2127 145.467 59.7582V58.2241C145.396 58.3093 145.239 58.3874 144.998 58.4585C144.761 58.5247 144.487 58.5839 144.174 58.636C143.866 58.6834 143.566 58.726 143.272 58.7638C142.983 58.797 142.749 58.8254 142.569 58.8491C142.133 58.9059 141.726 58.9982 141.347 59.1261C140.973 59.2492 140.67 59.4362 140.438 59.6871C140.211 59.9334 140.097 60.2695 140.097 60.6957C140.097 61.2781 140.313 61.7184 140.744 62.0167C141.179 62.3103 141.731 62.457 142.398 62.457ZM150.202 63.707V52.7979H151.821V54.4457H151.935C152.134 53.9059 152.494 53.4679 153.015 53.1317C153.535 52.7956 154.123 52.6275 154.776 52.6275C154.899 52.6275 155.053 52.6299 155.238 52.6346C155.422 52.6393 155.562 52.6464 155.657 52.6559V54.3604C155.6 54.3462 155.47 54.3249 155.266 54.2965C155.067 54.2634 154.856 54.2468 154.634 54.2468C154.104 54.2468 153.63 54.3581 153.213 54.5806C152.801 54.7984 152.475 55.1014 152.233 55.4897C151.997 55.8732 151.878 56.3112 151.878 56.8036V63.707H150.202ZM161.715 68.0252C160.905 68.0252 160.209 67.921 159.627 67.7127C159.044 67.5091 158.559 67.2392 158.171 66.9031C157.787 66.5716 157.482 66.2165 157.255 65.8377L158.59 64.9002C158.741 65.0991 158.933 65.3263 159.165 65.582C159.397 65.8424 159.714 66.0674 160.117 66.2567C160.524 66.4509 161.057 66.5479 161.715 66.5479C162.596 66.5479 163.322 66.3349 163.895 65.9087C164.468 65.4826 164.755 64.815 164.755 63.9059V61.69H164.613C164.489 61.8888 164.314 62.1351 164.087 62.4286C163.864 62.7174 163.542 62.9755 163.121 63.2028C162.704 63.4253 162.141 63.5366 161.431 63.5366C160.55 63.5366 159.759 63.3282 159.059 62.9116C158.363 62.4949 157.811 61.8888 157.404 61.0934C157.001 60.2979 156.8 59.332 156.8 58.1957C156.8 57.0782 156.997 56.1052 157.39 55.2766C157.783 54.4433 158.329 53.7994 159.03 53.3448C159.731 52.8855 160.541 52.6559 161.459 52.6559C162.169 52.6559 162.733 52.7743 163.15 53.011C163.571 53.243 163.893 53.5082 164.115 53.8065C164.343 54.1 164.518 54.3415 164.641 54.5309H164.811V52.7979H166.431V64.0195C166.431 64.957 166.218 65.7193 165.792 66.3065C165.37 66.8983 164.802 67.3316 164.087 67.6062C163.377 67.8855 162.586 68.0252 161.715 68.0252ZM161.658 62.0309C162.33 62.0309 162.899 61.877 163.363 61.5692C163.827 61.2615 164.179 60.8188 164.421 60.2411C164.662 59.6635 164.783 58.9722 164.783 58.1673C164.783 57.3813 164.665 56.6876 164.428 56.0863C164.191 55.485 163.841 55.0138 163.377 54.6729C162.913 54.332 162.34 54.1616 161.658 54.1616C160.948 54.1616 160.356 54.3415 159.882 54.7013C159.414 55.0612 159.061 55.5442 158.824 56.1502C158.592 56.7563 158.476 57.4286 158.476 58.1673C158.476 58.9248 158.595 59.5948 158.831 60.1772C159.073 60.7549 159.428 61.2094 159.897 61.5408C160.37 61.8675 160.957 62.0309 161.658 62.0309ZM174.073 63.9343C173.022 63.9343 172.115 63.7023 171.353 63.2383C170.595 62.7695 170.01 62.1161 169.598 61.2781C169.191 60.4353 168.988 59.4551 168.988 58.3377C168.988 57.2203 169.191 56.2354 169.598 55.3832C170.01 54.5262 170.583 53.8585 171.317 53.3803C172.056 52.8974 172.917 52.6559 173.902 52.6559C174.471 52.6559 175.032 52.7506 175.586 52.94C176.14 53.1294 176.644 53.4371 177.098 53.8633C177.553 54.2847 177.915 54.8434 178.185 55.5394C178.455 56.2354 178.59 57.0924 178.59 58.1104V58.8207H170.181V57.3718H176.885C176.885 56.7563 176.762 56.207 176.516 55.7241C176.275 55.2411 175.929 54.86 175.479 54.5806C175.034 54.3013 174.508 54.1616 173.902 54.1616C173.235 54.1616 172.657 54.3273 172.169 54.6587C171.686 54.9854 171.315 55.4116 171.054 55.9371C170.794 56.4627 170.664 57.0262 170.664 57.6275V58.5934C170.664 59.4173 170.806 60.1156 171.09 60.6886C171.379 61.2567 171.779 61.69 172.29 61.9883C172.801 62.2818 173.396 62.4286 174.073 62.4286C174.513 62.4286 174.911 62.3671 175.266 62.244C175.626 62.1161 175.936 61.9267 176.196 61.6758C176.457 61.4201 176.658 61.1029 176.8 60.7241L178.419 61.1786C178.249 61.7279 177.962 62.2108 177.56 62.6275C177.158 63.0394 176.66 63.3614 176.069 63.5934C175.477 63.8207 174.811 63.9343 174.073 63.9343ZM185.259 63.9343C184.35 63.9343 183.547 63.7047 182.851 63.2454C182.155 62.7814 181.611 62.128 181.218 61.2852C180.825 60.4376 180.628 59.4362 180.628 58.2809C180.628 57.1351 180.825 56.1407 181.218 55.2979C181.611 54.4551 182.158 53.8041 182.858 53.3448C183.559 52.8855 184.369 52.6559 185.287 52.6559C185.998 52.6559 186.559 52.7743 186.971 53.011C187.387 53.243 187.704 53.5082 187.922 53.8065C188.145 54.1 188.318 54.3415 188.441 54.5309H188.583V49.1616H190.259V63.707H188.64V62.0309H188.441C188.318 62.2298 188.142 62.4807 187.915 62.7837C187.688 63.082 187.364 63.3496 186.942 63.5863C186.521 63.8183 185.96 63.9343 185.259 63.9343ZM185.486 62.4286C186.158 62.4286 186.727 62.2534 187.191 61.9031C187.655 61.5479 188.007 61.0579 188.249 60.4329C188.49 59.8031 188.611 59.0763 188.611 58.2525C188.611 57.4381 188.493 56.7255 188.256 56.1147C188.019 55.4992 187.669 55.021 187.205 54.68C186.741 54.3344 186.168 54.1616 185.486 54.1616C184.776 54.1616 184.184 54.3439 183.711 54.7085C183.242 55.0683 182.889 55.5584 182.652 56.1786C182.42 56.7942 182.304 57.4854 182.304 58.2525C182.304 59.029 182.423 59.7345 182.659 60.369C182.901 60.9987 183.256 61.5006 183.725 61.8746C184.198 62.244 184.785 62.4286 185.486 62.4286ZM199.186 67.7979V52.7979H200.806V54.5309H201.005C201.128 54.3415 201.298 54.1 201.516 53.8065C201.739 53.5082 202.056 53.243 202.468 53.011C202.884 52.7743 203.448 52.6559 204.158 52.6559C205.077 52.6559 205.886 52.8855 206.587 53.3448C207.288 53.8041 207.835 54.4551 208.228 55.2979C208.621 56.1407 208.817 57.1351 208.817 58.2809C208.817 59.4362 208.621 60.4376 208.228 61.2852C207.835 62.128 207.29 62.7814 206.594 63.2454C205.898 63.7047 205.096 63.9343 204.186 63.9343C203.486 63.9343 202.925 63.8183 202.503 63.5863C202.082 63.3496 201.757 63.082 201.53 62.7837C201.303 62.4807 201.128 62.2298 201.005 62.0309H200.863V67.7979H199.186ZM200.834 58.2525C200.834 59.0763 200.955 59.8031 201.196 60.4329C201.438 61.0579 201.791 61.5479 202.255 61.9031C202.719 62.2534 203.287 62.4286 203.959 62.4286C204.66 62.4286 205.245 62.244 205.713 61.8746C206.187 61.5006 206.542 60.9987 206.779 60.369C207.02 59.7345 207.141 59.029 207.141 58.2525C207.141 57.4854 207.023 56.7942 206.786 56.1786C206.554 55.5584 206.201 55.0683 205.728 54.7085C205.259 54.3439 204.669 54.1616 203.959 54.1616C203.277 54.1616 202.704 54.3344 202.24 54.68C201.776 55.021 201.426 55.4992 201.189 56.1147C200.953 56.7255 200.834 57.4381 200.834 58.2525ZM215.948 63.9343C214.897 63.9343 213.99 63.7023 213.228 63.2383C212.47 62.7695 211.885 62.1161 211.473 61.2781C211.066 60.4353 210.863 59.4551 210.863 58.3377C210.863 57.2203 211.066 56.2354 211.473 55.3832C211.885 54.5262 212.458 53.8585 213.192 53.3803C213.931 52.8974 214.792 52.6559 215.777 52.6559C216.346 52.6559 216.907 52.7506 217.461 52.94C218.015 53.1294 218.519 53.4371 218.973 53.8633C219.428 54.2847 219.79 54.8434 220.06 55.5394C220.33 56.2354 220.465 57.0924 220.465 58.1104V58.8207H212.056V57.3718H218.76C218.76 56.7563 218.637 56.207 218.391 55.7241C218.15 55.2411 217.804 54.86 217.354 54.5806C216.909 54.3013 216.383 54.1616 215.777 54.1616C215.11 54.1616 214.532 54.3273 214.044 54.6587C213.561 54.9854 213.19 55.4116 212.929 55.9371C212.669 56.4627 212.539 57.0262 212.539 57.6275V58.5934C212.539 59.4173 212.681 60.1156 212.965 60.6886C213.254 61.2567 213.654 61.69 214.165 61.9883C214.676 62.2818 215.271 62.4286 215.948 62.4286C216.388 62.4286 216.786 62.3671 217.141 62.244C217.501 62.1161 217.811 61.9267 218.071 61.6758C218.332 61.4201 218.533 61.1029 218.675 60.7241L220.294 61.1786C220.124 61.7279 219.837 62.2108 219.435 62.6275C219.033 63.0394 218.535 63.3614 217.944 63.5934C217.352 63.8207 216.686 63.9343 215.948 63.9343ZM223.015 63.707V52.7979H224.634V54.4457H224.748C224.946 53.9059 225.306 53.4679 225.827 53.1317C226.348 52.7956 226.935 52.6275 227.588 52.6275C227.712 52.6275 227.865 52.6299 228.05 52.6346C228.235 52.6393 228.374 52.6464 228.469 52.6559V54.3604C228.412 54.3462 228.282 54.3249 228.078 54.2965C227.88 54.2634 227.669 54.2468 227.446 54.2468C226.916 54.2468 226.443 54.3581 226.026 54.5806C225.614 54.7984 225.287 55.1014 225.046 55.4897C224.809 55.8732 224.691 56.3112 224.691 56.8036V63.707H223.015ZM235.998 52.7979V54.2184H230.117V52.7979H235.998ZM231.878 63.707V51.2923C231.878 50.6673 232.025 50.1464 232.319 49.7298C232.612 49.3131 232.993 49.0006 233.462 48.7923C233.931 48.5839 234.426 48.4798 234.946 48.4798C235.358 48.4798 235.694 48.5129 235.955 48.5792C236.215 48.6455 236.409 48.707 236.537 48.7638L236.054 50.2127C235.969 50.1843 235.851 50.1488 235.699 50.1062C235.552 50.0636 235.358 50.0423 235.117 50.0423C234.563 50.0423 234.163 50.1819 233.917 50.4613C233.675 50.7406 233.554 51.1502 233.554 51.69V63.707H231.878ZM242.329 63.9343C241.344 63.9343 240.48 63.6999 239.737 63.2312C238.998 62.7624 238.421 62.1067 238.004 61.2638C237.592 60.421 237.386 59.4362 237.386 58.3093C237.386 57.1729 237.592 56.181 238.004 55.3335C238.421 54.4859 238.998 53.8278 239.737 53.359C240.48 52.8903 241.344 52.6559 242.329 52.6559C243.314 52.6559 244.176 52.8903 244.914 53.359C245.658 53.8278 246.235 54.4859 246.647 55.3335C247.064 56.181 247.272 57.1729 247.272 58.3093C247.272 59.4362 247.064 60.421 246.647 61.2638C246.235 62.1067 245.658 62.7624 244.914 63.2312C244.176 63.6999 243.314 63.9343 242.329 63.9343ZM242.329 62.4286C243.077 62.4286 243.693 62.2369 244.176 61.8533C244.659 61.4698 245.016 60.9656 245.248 60.3406C245.48 59.7156 245.596 59.0385 245.596 58.3093C245.596 57.5801 245.48 56.9007 245.248 56.271C245.016 55.6412 244.659 55.1322 244.176 54.744C243.693 54.3557 243.077 54.1616 242.329 54.1616C241.581 54.1616 240.966 54.3557 240.483 54.744C240 55.1322 239.642 55.6412 239.41 56.271C239.178 56.9007 239.062 57.5801 239.062 58.3093C239.062 59.0385 239.178 59.7156 239.41 60.3406C239.642 60.9656 240 61.4698 240.483 61.8533C240.966 62.2369 241.581 62.4286 242.329 62.4286ZM249.831 63.707V52.7979H251.45V54.4457H251.564C251.763 53.9059 252.123 53.4679 252.643 53.1317C253.164 52.7956 253.751 52.6275 254.405 52.6275C254.528 52.6275 254.682 52.6299 254.866 52.6346C255.051 52.6393 255.191 52.6464 255.286 52.6559V54.3604C255.229 54.3462 255.098 54.3249 254.895 54.2965C254.696 54.2634 254.485 54.2468 254.263 54.2468C253.732 54.2468 253.259 54.3581 252.842 54.5806C252.43 54.7984 252.104 55.1014 251.862 55.4897C251.625 55.8732 251.507 56.3112 251.507 56.8036V63.707H249.831ZM257.272 63.707V52.7979H258.892V54.5025H259.034C259.261 53.9201 259.628 53.4679 260.135 53.146C260.641 52.8192 261.25 52.6559 261.96 52.6559C262.68 52.6559 263.279 52.8192 263.757 53.146C264.24 53.4679 264.616 53.9201 264.886 54.5025H265C265.279 53.939 265.698 53.4916 266.257 53.1602C266.815 52.824 267.485 52.6559 268.267 52.6559C269.242 52.6559 270.04 52.9613 270.66 53.5721C271.28 54.1781 271.591 55.1228 271.591 56.4059V63.707H269.914V56.4059C269.914 55.601 269.694 55.0257 269.254 54.68C268.814 54.3344 268.295 54.1616 267.699 54.1616C266.931 54.1616 266.337 54.3936 265.916 54.8576C265.494 55.3169 265.284 55.8993 265.284 56.6048V63.707H263.579V56.2354C263.579 55.6152 263.378 55.1156 262.975 54.7369C262.573 54.3533 262.055 54.1616 261.42 54.1616C260.984 54.1616 260.577 54.2776 260.199 54.5096C259.824 54.7416 259.521 55.0636 259.289 55.4755C259.062 55.8827 258.949 56.3538 258.949 56.8888V63.707H257.272ZM277.865 63.9627C277.174 63.9627 276.547 63.8325 275.983 63.5721C275.42 63.3069 274.972 62.9258 274.641 62.4286C274.31 61.9267 274.144 61.3207 274.144 60.6104C274.144 59.9854 274.267 59.4788 274.513 59.0906C274.759 58.6976 275.088 58.3898 275.5 58.1673C275.912 57.9447 276.367 57.779 276.864 57.6701C277.366 57.5565 277.87 57.4665 278.377 57.4002C279.04 57.315 279.577 57.2511 279.989 57.2085C280.406 57.1611 280.709 57.083 280.898 56.9741C281.092 56.8652 281.189 56.6758 281.189 56.4059V56.3491C281.189 55.6483 280.998 55.1038 280.614 54.7156C280.235 54.3273 279.66 54.1332 278.888 54.1332C278.088 54.1332 277.461 54.3084 277.006 54.6587C276.551 55.0091 276.232 55.3832 276.047 55.7809L274.456 55.2127C274.74 54.5498 275.119 54.0337 275.593 53.6644C276.071 53.2904 276.592 53.0299 277.155 52.8832C277.723 52.7317 278.282 52.6559 278.831 52.6559C279.182 52.6559 279.584 52.6985 280.039 52.7837C280.498 52.8642 280.941 53.0323 281.367 53.288C281.798 53.5437 282.155 53.9296 282.439 54.4457C282.723 54.9618 282.865 55.6531 282.865 56.5195V63.707H281.189V62.2298H281.104C280.99 62.4665 280.801 62.7198 280.536 62.9897C280.271 63.2596 279.918 63.4892 279.478 63.6786C279.037 63.868 278.5 63.9627 277.865 63.9627ZM278.121 62.457C278.784 62.457 279.343 62.3268 279.797 62.0664C280.257 61.806 280.602 61.4698 280.834 61.0579C281.071 60.646 281.189 60.2127 281.189 59.7582V58.2241C281.118 58.3093 280.962 58.3874 280.721 58.4585C280.484 58.5247 280.209 58.5839 279.897 58.636C279.589 58.6834 279.288 58.726 278.995 58.7638C278.706 58.797 278.471 58.8254 278.292 58.8491C277.856 58.9059 277.449 58.9982 277.07 59.1261C276.696 59.2492 276.393 59.4362 276.161 59.6871C275.934 59.9334 275.82 60.2695 275.82 60.6957C275.82 61.2781 276.035 61.7184 276.466 62.0167C276.902 62.3103 277.453 62.457 278.121 62.457ZM287.601 57.1445V63.707H285.925V52.7979H287.544V54.5025H287.686C287.942 53.9485 288.33 53.5034 288.851 53.1673C289.372 52.8263 290.044 52.6559 290.868 52.6559C291.607 52.6559 292.253 52.8074 292.807 53.1104C293.361 53.4087 293.792 53.8633 294.099 54.4741C294.407 55.0801 294.561 55.8472 294.561 56.7752V63.707H292.885V56.8888C292.885 56.0318 292.662 55.3642 292.217 54.886C291.772 54.4031 291.161 54.1616 290.385 54.1616C289.85 54.1616 289.372 54.2776 288.95 54.5096C288.534 54.7416 288.205 55.0801 287.963 55.5252C287.722 55.9703 287.601 56.5101 287.601 57.1445ZM302.056 63.9343C301.033 63.9343 300.152 63.6928 299.414 63.2099C298.675 62.7269 298.107 62.0617 297.709 61.2141C297.311 60.3666 297.113 59.3983 297.113 58.3093C297.113 57.2013 297.316 56.2236 297.723 55.3761C298.135 54.5238 298.708 53.8585 299.442 53.3803C300.181 52.8974 301.042 52.6559 302.027 52.6559C302.794 52.6559 303.486 52.7979 304.101 53.082C304.717 53.3661 305.221 53.7638 305.614 54.2752C306.007 54.7866 306.251 55.3832 306.346 56.065H304.669C304.542 55.5678 304.257 55.1275 303.817 54.744C303.382 54.3557 302.794 54.1616 302.056 54.1616C301.402 54.1616 300.829 54.332 300.337 54.6729C299.849 55.0091 299.468 55.485 299.194 56.1005C298.924 56.7113 298.789 57.4286 298.789 58.2525C298.789 59.0953 298.921 59.8292 299.186 60.4542C299.456 61.0792 299.835 61.5645 300.323 61.9102C300.815 62.2558 301.393 62.4286 302.056 62.4286C302.491 62.4286 302.887 62.3529 303.242 62.2013C303.597 62.0498 303.898 61.832 304.144 61.5479C304.39 61.2638 304.565 60.9229 304.669 60.5252H306.346C306.251 61.1692 306.016 61.7492 305.642 62.2653C305.273 62.7766 304.783 63.1838 304.172 63.4869C303.566 63.7852 302.861 63.9343 302.056 63.9343ZM313.37 63.9343C312.319 63.9343 311.412 63.7023 310.65 63.2383C309.892 62.7695 309.307 62.1161 308.895 61.2781C308.488 60.4353 308.284 59.4551 308.284 58.3377C308.284 57.2203 308.488 56.2354 308.895 55.3832C309.307 54.5262 309.88 53.8585 310.614 53.3803C311.353 52.8974 312.214 52.6559 313.199 52.6559C313.767 52.6559 314.328 52.7506 314.882 52.94C315.436 53.1294 315.941 53.4371 316.395 53.8633C316.85 54.2847 317.212 54.8434 317.482 55.5394C317.752 56.2354 317.887 57.0924 317.887 58.1104V58.8207H309.478V57.3718H316.182C316.182 56.7563 316.059 56.207 315.813 55.7241C315.571 55.2411 315.226 54.86 314.776 54.5806C314.331 54.3013 313.805 54.1616 313.199 54.1616C312.532 54.1616 311.954 54.3273 311.466 54.6587C310.983 54.9854 310.612 55.4116 310.351 55.9371C310.091 56.4627 309.961 57.0262 309.961 57.6275V58.5934C309.961 59.4173 310.103 60.1156 310.387 60.6886C310.676 61.2567 311.076 61.69 311.587 61.9883C312.098 62.2818 312.693 62.4286 313.37 62.4286C313.81 62.4286 314.208 62.3671 314.563 62.244C314.923 62.1161 315.233 61.9267 315.493 61.6758C315.754 61.4201 315.955 61.1029 316.097 60.7241L317.716 61.1786C317.546 61.7279 317.259 62.2108 316.857 62.6275C316.454 63.0394 315.957 63.3614 315.365 63.5934C314.774 63.8207 314.108 63.9343 313.37 63.9343Z" fill="white"/>
</g>
<defs>
<linearGradient id="paint0_linear_2449_3510" x1="175" y1="0" x2="175" y2="148" gradientUnits="userSpaceOnUse">
<stop stop-color="white" stop-opacity="0.26"/>
<stop offset="1" stop-color="#7E7D83" stop-opacity="0"/>
</linearGradient>
<clipPath id="clip0_2449_3510">
<rect width="350" height="148" fill="white"/>
</clipPath>
</defs>
</svg>
