<svg width="329" height="117" viewBox="0 0 329 117" fill="none" xmlns="http://www.w3.org/2000/svg">
<g clip-path="url(#clip0_2776_390)">
<ellipse cx="210.725" cy="51.3431" rx="116.053" ry="47.3486" transform="rotate(1.98651 210.725 51.3431)" fill="#565660" fill-opacity="0.2"/>
<path d="M326.209 55.3487C325.989 61.7043 322.622 67.6975 316.621 73.0973C310.618 78.4985 302.012 83.2745 291.405 87.1789C270.193 94.9868 241.081 99.2728 209.101 98.1636C177.122 97.0544 148.376 90.7615 127.757 81.5028C117.446 76.8728 109.19 71.5119 103.577 65.7079C97.9641 59.9052 95.0208 53.6931 95.2412 47.3375C95.4617 40.9819 98.8283 34.9887 104.829 29.5889C110.832 24.1877 119.439 19.4117 130.046 15.5073C151.257 7.69941 180.369 3.41339 212.349 4.52261C244.329 5.63182 273.074 11.9247 293.694 21.1834C304.005 25.8133 312.26 31.1743 317.874 36.9783C323.486 42.781 326.429 48.9931 326.209 55.3487Z" stroke="#5A6169" stroke-opacity="0.3"/>
<g filter="url(#filter0_di_2776_390)">
<line y1="-0.5" x2="53.9401" y2="-0.5" transform="matrix(0.956686 -0.291123 0.287713 0.957717 130.078 41.623)" stroke="white"/>
</g>
<g filter="url(#filter1_di_2776_390)">
<line y1="-0.5" x2="43.3129" y2="-0.5" transform="matrix(0.932758 0.360503 -0.357143 0.93405 128.648 51.7754)" stroke="white"/>
</g>
<g filter="url(#filter2_di_2776_390)">
<line x1="189.916" y1="71.6214" x2="247.093" y2="73.6046" stroke="white"/>
</g>
<g filter="url(#filter3_di_2776_390)">
<line y1="-0.5" x2="28.0125" y2="-0.5" transform="matrix(-0.759798 0.650159 -0.645733 -0.763563 287.738 50.7324)" stroke="white"/>
</g>
<g filter="url(#filter4_di_2776_390)">
<line y1="-0.5" x2="26.1484" y2="-0.5" transform="matrix(-0.282691 0.959211 -0.958407 -0.285406 188.34 33.4395)" stroke="white"/>
</g>
<g filter="url(#filter5_di_2776_390)">
<line y1="-0.5" x2="62.0755" y2="-0.5" transform="matrix(0.814533 0.580117 -0.575745 0.817629 200.031 30.5645)" stroke="white"/>
</g>
<g filter="url(#filter6_di_2776_390)">
<line y1="-0.5" x2="84.5653" y2="-0.5" transform="matrix(0.976302 0.216413 -0.21438 0.97675 202.586 23.5957)" stroke="white"/>
</g>
<g filter="url(#filter7_di_2776_390)">
<ellipse cx="120.173" cy="45.2868" rx="10.863" ry="10.9266" transform="rotate(1.98651 120.173 45.2868)" fill="#565660" fill-opacity="0.1" shape-rendering="crispEdges"/>
<ellipse cx="120.173" cy="45.2868" rx="10.863" ry="10.9266" transform="rotate(1.98651 120.173 45.2868)" fill="#565660" fill-opacity="0.1" shape-rendering="crispEdges"/>
<ellipse cx="120.173" cy="45.2868" rx="10.863" ry="10.9266" transform="rotate(1.98651 120.173 45.2868)" fill="#565660" fill-opacity="0.1" shape-rendering="crispEdges"/>
<ellipse cx="120.173" cy="45.2868" rx="10.863" ry="10.9266" transform="rotate(1.98651 120.173 45.2868)" fill="#565660" fill-opacity="0.1" shape-rendering="crispEdges"/>
<ellipse cx="120.173" cy="45.2868" rx="10.863" ry="10.9266" transform="rotate(1.98651 120.173 45.2868)" fill="#565660" fill-opacity="0.1" shape-rendering="crispEdges"/>
<ellipse cx="120.173" cy="45.2868" rx="10.863" ry="10.9266" transform="rotate(1.98651 120.173 45.2868)" fill="#565660" fill-opacity="0.1" shape-rendering="crispEdges"/>
<ellipse cx="120.173" cy="45.2868" rx="10.863" ry="10.9266" transform="rotate(1.98651 120.173 45.2868)" fill="url(#paint0_linear_2776_390)" fill-opacity="0.5" shape-rendering="crispEdges"/>
<path d="M130.53 45.6461C130.33 51.4038 125.529 55.9055 119.812 55.7072C114.094 55.5089 109.617 50.6854 109.816 44.9276C110.016 39.1699 114.817 34.6682 120.534 34.8665C126.252 35.0648 130.73 39.8883 130.53 45.6461Z" stroke="white" shape-rendering="crispEdges"/>
</g>
<g filter="url(#filter8_di_2776_390)">
<ellipse cx="179.489" cy="69.2107" rx="10.863" ry="10.9266" transform="rotate(1.98651 179.489 69.2107)" fill="#565660" fill-opacity="0.1" shape-rendering="crispEdges"/>
<ellipse cx="179.489" cy="69.2107" rx="10.863" ry="10.9266" transform="rotate(1.98651 179.489 69.2107)" fill="#565660" fill-opacity="0.1" shape-rendering="crispEdges"/>
<ellipse cx="179.489" cy="69.2107" rx="10.863" ry="10.9266" transform="rotate(1.98651 179.489 69.2107)" fill="#565660" fill-opacity="0.1" shape-rendering="crispEdges"/>
<ellipse cx="179.489" cy="69.2107" rx="10.863" ry="10.9266" transform="rotate(1.98651 179.489 69.2107)" fill="#565660" fill-opacity="0.1" shape-rendering="crispEdges"/>
<ellipse cx="179.489" cy="69.2107" rx="10.863" ry="10.9266" transform="rotate(1.98651 179.489 69.2107)" fill="#565660" fill-opacity="0.1" shape-rendering="crispEdges"/>
<ellipse cx="179.489" cy="69.2107" rx="10.863" ry="10.9266" transform="rotate(1.98651 179.489 69.2107)" fill="#565660" fill-opacity="0.1" shape-rendering="crispEdges"/>
<ellipse cx="179.489" cy="69.2107" rx="10.863" ry="10.9266" transform="rotate(1.98651 179.489 69.2107)" fill="url(#paint1_linear_2776_390)" fill-opacity="0.5" shape-rendering="crispEdges"/>
<path d="M189.846 69.5699C189.647 75.3276 184.845 79.8293 179.128 79.631C173.411 79.4327 168.933 74.6092 169.133 68.8514C169.332 63.0937 174.134 58.592 179.851 58.7903C185.568 58.9886 190.046 63.8121 189.846 69.5699Z" stroke="white" shape-rendering="crispEdges"/>
</g>
<g filter="url(#filter9_di_2776_390)">
<ellipse cx="257.552" cy="74.8337" rx="10.863" ry="10.9266" transform="rotate(1.98651 257.552 74.8337)" fill="#565660" fill-opacity="0.1" shape-rendering="crispEdges"/>
<ellipse cx="257.552" cy="74.8337" rx="10.863" ry="10.9266" transform="rotate(1.98651 257.552 74.8337)" fill="#565660" fill-opacity="0.1" shape-rendering="crispEdges"/>
<ellipse cx="257.552" cy="74.8337" rx="10.863" ry="10.9266" transform="rotate(1.98651 257.552 74.8337)" fill="#565660" fill-opacity="0.1" shape-rendering="crispEdges"/>
<ellipse cx="257.552" cy="74.8337" rx="10.863" ry="10.9266" transform="rotate(1.98651 257.552 74.8337)" fill="#565660" fill-opacity="0.1" shape-rendering="crispEdges"/>
<ellipse cx="257.552" cy="74.8337" rx="10.863" ry="10.9266" transform="rotate(1.98651 257.552 74.8337)" fill="#565660" fill-opacity="0.1" shape-rendering="crispEdges"/>
<ellipse cx="257.552" cy="74.8337" rx="10.863" ry="10.9266" transform="rotate(1.98651 257.552 74.8337)" fill="#565660" fill-opacity="0.1" shape-rendering="crispEdges"/>
<ellipse cx="257.552" cy="74.8337" rx="10.863" ry="10.9266" transform="rotate(1.98651 257.552 74.8337)" fill="url(#paint2_linear_2776_390)" fill-opacity="0.5" shape-rendering="crispEdges"/>
<path d="M267.909 75.1929C267.709 80.9507 262.908 85.4524 257.191 85.2541C251.473 85.0558 246.995 80.2322 247.195 74.4745C247.395 68.7167 252.196 64.2151 257.913 64.4134C263.631 64.6117 268.108 69.4352 267.909 75.1929Z" stroke="white" shape-rendering="crispEdges"/>
</g>
<g filter="url(#filter10_di_2776_390)">
<ellipse cx="295.607" cy="43.3552" rx="10.863" ry="10.9266" transform="rotate(1.98651 295.607 43.3552)" fill="#565660" fill-opacity="0.1" shape-rendering="crispEdges"/>
<ellipse cx="295.607" cy="43.3552" rx="10.863" ry="10.9266" transform="rotate(1.98651 295.607 43.3552)" fill="#565660" fill-opacity="0.1" shape-rendering="crispEdges"/>
<ellipse cx="295.607" cy="43.3552" rx="10.863" ry="10.9266" transform="rotate(1.98651 295.607 43.3552)" fill="#565660" fill-opacity="0.1" shape-rendering="crispEdges"/>
<ellipse cx="295.607" cy="43.3552" rx="10.863" ry="10.9266" transform="rotate(1.98651 295.607 43.3552)" fill="#565660" fill-opacity="0.1" shape-rendering="crispEdges"/>
<ellipse cx="295.607" cy="43.3552" rx="10.863" ry="10.9266" transform="rotate(1.98651 295.607 43.3552)" fill="#565660" fill-opacity="0.1" shape-rendering="crispEdges"/>
<ellipse cx="295.607" cy="43.3552" rx="10.863" ry="10.9266" transform="rotate(1.98651 295.607 43.3552)" fill="#565660" fill-opacity="0.1" shape-rendering="crispEdges"/>
<ellipse cx="295.607" cy="43.3552" rx="10.863" ry="10.9266" transform="rotate(1.98651 295.607 43.3552)" fill="url(#paint3_linear_2776_390)" fill-opacity="0.5" shape-rendering="crispEdges"/>
<path d="M305.963 43.7144C305.764 49.4722 300.962 53.9738 295.245 53.7755C289.528 53.5772 285.05 48.7537 285.25 42.996C285.45 37.2382 290.251 32.7366 295.968 32.9349C301.685 33.1332 306.163 37.9567 305.963 43.7144Z" stroke="white" shape-rendering="crispEdges"/>
</g>
<g filter="url(#filter11_di_2776_390)">
<ellipse cx="191.946" cy="23.3611" rx="10.863" ry="10.9266" transform="rotate(1.98651 191.946 23.3611)" fill="#565660" fill-opacity="0.1" shape-rendering="crispEdges"/>
<ellipse cx="191.946" cy="23.3611" rx="10.863" ry="10.9266" transform="rotate(1.98651 191.946 23.3611)" fill="#565660" fill-opacity="0.1" shape-rendering="crispEdges"/>
<ellipse cx="191.946" cy="23.3611" rx="10.863" ry="10.9266" transform="rotate(1.98651 191.946 23.3611)" fill="#565660" fill-opacity="0.1" shape-rendering="crispEdges"/>
<ellipse cx="191.946" cy="23.3611" rx="10.863" ry="10.9266" transform="rotate(1.98651 191.946 23.3611)" fill="#565660" fill-opacity="0.1" shape-rendering="crispEdges"/>
<ellipse cx="191.946" cy="23.3611" rx="10.863" ry="10.9266" transform="rotate(1.98651 191.946 23.3611)" fill="#565660" fill-opacity="0.1" shape-rendering="crispEdges"/>
<ellipse cx="191.946" cy="23.3611" rx="10.863" ry="10.9266" transform="rotate(1.98651 191.946 23.3611)" fill="#565660" fill-opacity="0.1" shape-rendering="crispEdges"/>
<ellipse cx="191.946" cy="23.3611" rx="10.863" ry="10.9266" transform="rotate(1.98651 191.946 23.3611)" fill="url(#paint4_linear_2776_390)" fill-opacity="0.5" shape-rendering="crispEdges"/>
<path d="M202.303 23.7203C202.104 29.478 197.302 33.9797 191.585 33.7814C185.868 33.5831 181.39 28.7596 181.59 23.0018C181.789 17.2441 186.591 12.7424 192.308 12.9407C198.025 13.139 202.503 17.9625 202.303 23.7203Z" stroke="white" shape-rendering="crispEdges"/>
</g>
<ellipse cx="115.18" cy="46.7189" rx="115.18" ry="46.7189" transform="matrix(1 -4.86014e-09 -4.86014e-09 -1 0.320312 116.342)" fill="#565660" fill-opacity="0.2"/>
<path d="M230.18 69.6229C230.18 63.3516 227.049 57.3283 221.283 51.7987C215.515 46.2679 207.143 41.264 196.757 37.051C175.987 28.6263 147.258 23.4041 115.5 23.4041C83.7423 23.4041 55.014 28.6263 34.2437 37.051C23.8572 41.264 15.4852 46.2679 9.7178 51.7987C3.9517 57.3283 0.820312 63.3516 0.820312 69.6229C0.820312 75.8943 3.9517 81.9175 9.7178 87.4471C15.4852 92.978 23.8572 97.9819 34.2437 102.195C55.014 110.62 83.7423 115.842 115.5 115.842C147.258 115.842 175.987 110.62 196.757 102.195C207.143 97.9819 215.515 92.978 221.283 87.4471C227.049 81.9175 230.18 75.8943 230.18 69.6229Z" stroke="#5A6169" stroke-opacity="0.3"/>
<g filter="url(#filter12_di_2776_390)">
<line y1="-0.5" x2="59.1389" y2="-0.5" transform="matrix(0.935829 0.352455 0.352455 -0.935829 43.4453 73.5781)" stroke="white"/>
</g>
<g filter="url(#filter13_di_2776_390)">
<line y1="-0.5" x2="68.914" y2="-0.5" transform="matrix(0.959531 -0.281602 -0.281602 -0.959531 42.7305 64.5918)" stroke="white"/>
</g>
<g filter="url(#filter14_di_2776_390)">
<line y1="-0.5" x2="56.8337" y2="-0.5" transform="matrix(0.94217 -0.335134 -0.335134 -0.94217 119.27 95.1406)" stroke="white"/>
</g>
<g filter="url(#filter15_di_2776_390)">
<line y1="-0.5" x2="32.0812" y2="-0.5" transform="matrix(0.224041 -0.97458 -0.97458 -0.224041 110.645 86.875)" stroke="white"/>
</g>
<g filter="url(#filter16_di_2776_390)">
<circle cx="10.7813" cy="10.7813" r="10.7813" transform="matrix(1 -4.86014e-09 -4.86014e-09 -1 98.0703 108.076)" fill="#565660" fill-opacity="0.1" shape-rendering="crispEdges"/>
<circle cx="10.7813" cy="10.7813" r="10.7813" transform="matrix(1 -4.86014e-09 -4.86014e-09 -1 98.0703 108.076)" fill="#565660" fill-opacity="0.1" shape-rendering="crispEdges"/>
<circle cx="10.7813" cy="10.7813" r="10.7813" transform="matrix(1 -4.86014e-09 -4.86014e-09 -1 98.0703 108.076)" fill="#565660" fill-opacity="0.1" shape-rendering="crispEdges"/>
<circle cx="10.7813" cy="10.7813" r="10.7813" transform="matrix(1 -4.86014e-09 -4.86014e-09 -1 98.0703 108.076)" fill="#565660" fill-opacity="0.1" shape-rendering="crispEdges"/>
<circle cx="10.7813" cy="10.7813" r="10.7813" transform="matrix(1 -4.86014e-09 -4.86014e-09 -1 98.0703 108.076)" fill="#565660" fill-opacity="0.1" shape-rendering="crispEdges"/>
<circle cx="10.7813" cy="10.7813" r="10.7813" transform="matrix(1 -4.86014e-09 -4.86014e-09 -1 98.0703 108.076)" fill="#565660" fill-opacity="0.1" shape-rendering="crispEdges"/>
<circle cx="10.7813" cy="10.7813" r="10.7813" transform="matrix(1 -4.86014e-09 -4.86014e-09 -1 98.0703 108.076)" fill="url(#paint5_linear_2776_390)" fill-opacity="0.5" shape-rendering="crispEdges"/>
<circle cx="10.7813" cy="10.7813" r="10.2813" transform="matrix(1 -4.86014e-09 -4.86014e-09 -1 98.0703 108.076)" stroke="white" shape-rendering="crispEdges"/>
</g>
<g filter="url(#filter17_di_2776_390)">
<circle cx="10.7813" cy="10.7813" r="10.7813" transform="matrix(1 -4.86014e-09 -4.86014e-09 -1 22.5977 80.4062)" fill="#565660" fill-opacity="0.1" shape-rendering="crispEdges"/>
<circle cx="10.7813" cy="10.7813" r="10.7813" transform="matrix(1 -4.86014e-09 -4.86014e-09 -1 22.5977 80.4062)" fill="#565660" fill-opacity="0.1" shape-rendering="crispEdges"/>
<circle cx="10.7813" cy="10.7813" r="10.7813" transform="matrix(1 -4.86014e-09 -4.86014e-09 -1 22.5977 80.4062)" fill="#565660" fill-opacity="0.1" shape-rendering="crispEdges"/>
<circle cx="10.7813" cy="10.7813" r="10.7813" transform="matrix(1 -4.86014e-09 -4.86014e-09 -1 22.5977 80.4062)" fill="#565660" fill-opacity="0.1" shape-rendering="crispEdges"/>
<circle cx="10.7813" cy="10.7813" r="10.7813" transform="matrix(1 -4.86014e-09 -4.86014e-09 -1 22.5977 80.4062)" fill="#565660" fill-opacity="0.1" shape-rendering="crispEdges"/>
<circle cx="10.7813" cy="10.7813" r="10.7813" transform="matrix(1 -4.86014e-09 -4.86014e-09 -1 22.5977 80.4062)" fill="#565660" fill-opacity="0.1" shape-rendering="crispEdges"/>
<circle cx="10.7813" cy="10.7813" r="10.7813" transform="matrix(1 -4.86014e-09 -4.86014e-09 -1 22.5977 80.4062)" fill="url(#paint6_linear_2776_390)" fill-opacity="0.5" shape-rendering="crispEdges"/>
<circle cx="10.7813" cy="10.7813" r="10.2813" transform="matrix(1 -4.86014e-09 -4.86014e-09 -1 22.5977 80.4062)" stroke="white" shape-rendering="crispEdges"/>
</g>
<g filter="url(#filter18_di_2776_390)">
<circle cx="10.7813" cy="10.7813" r="10.7813" transform="matrix(1 -4.86014e-09 -4.86014e-09 -1 108.852 55.9668)" fill="#565660" fill-opacity="0.1" shape-rendering="crispEdges"/>
<circle cx="10.7813" cy="10.7813" r="10.7813" transform="matrix(1 -4.86014e-09 -4.86014e-09 -1 108.852 55.9668)" fill="#565660" fill-opacity="0.1" shape-rendering="crispEdges"/>
<circle cx="10.7813" cy="10.7813" r="10.7813" transform="matrix(1 -4.86014e-09 -4.86014e-09 -1 108.852 55.9668)" fill="#565660" fill-opacity="0.1" shape-rendering="crispEdges"/>
<circle cx="10.7813" cy="10.7813" r="10.7813" transform="matrix(1 -4.86014e-09 -4.86014e-09 -1 108.852 55.9668)" fill="#565660" fill-opacity="0.1" shape-rendering="crispEdges"/>
<circle cx="10.7813" cy="10.7813" r="10.7813" transform="matrix(1 -4.86014e-09 -4.86014e-09 -1 108.852 55.9668)" fill="#565660" fill-opacity="0.1" shape-rendering="crispEdges"/>
<circle cx="10.7813" cy="10.7813" r="10.7813" transform="matrix(1 -4.86014e-09 -4.86014e-09 -1 108.852 55.9668)" fill="#565660" fill-opacity="0.1" shape-rendering="crispEdges"/>
<circle cx="10.7813" cy="10.7813" r="10.7813" transform="matrix(1 -4.86014e-09 -4.86014e-09 -1 108.852 55.9668)" fill="url(#paint7_linear_2776_390)" fill-opacity="0.5" shape-rendering="crispEdges"/>
<circle cx="10.7813" cy="10.7813" r="10.2813" transform="matrix(1 -4.86014e-09 -4.86014e-09 -1 108.852 55.9668)" stroke="white" shape-rendering="crispEdges"/>
</g>
<g filter="url(#filter19_di_2776_390)">
<circle cx="10.7813" cy="10.7813" r="10.7813" transform="matrix(1 -4.86014e-09 -4.86014e-09 -1 169.305 80.4043)" fill="#565660" fill-opacity="0.1" shape-rendering="crispEdges"/>
<circle cx="10.7813" cy="10.7813" r="10.7813" transform="matrix(1 -4.86014e-09 -4.86014e-09 -1 169.305 80.4043)" fill="#565660" fill-opacity="0.1" shape-rendering="crispEdges"/>
<circle cx="10.7813" cy="10.7813" r="10.7813" transform="matrix(1 -4.86014e-09 -4.86014e-09 -1 169.305 80.4043)" fill="#565660" fill-opacity="0.1" shape-rendering="crispEdges"/>
<circle cx="10.7813" cy="10.7813" r="10.7813" transform="matrix(1 -4.86014e-09 -4.86014e-09 -1 169.305 80.4043)" fill="#565660" fill-opacity="0.1" shape-rendering="crispEdges"/>
<circle cx="10.7813" cy="10.7813" r="10.7813" transform="matrix(1 -4.86014e-09 -4.86014e-09 -1 169.305 80.4043)" fill="#565660" fill-opacity="0.1" shape-rendering="crispEdges"/>
<circle cx="10.7813" cy="10.7813" r="10.7813" transform="matrix(1 -4.86014e-09 -4.86014e-09 -1 169.305 80.4043)" fill="#565660" fill-opacity="0.1" shape-rendering="crispEdges"/>
<circle cx="10.7813" cy="10.7813" r="10.7813" transform="matrix(1 -4.86014e-09 -4.86014e-09 -1 169.305 80.4043)" fill="url(#paint8_linear_2776_390)" fill-opacity="0.5" shape-rendering="crispEdges"/>
<circle cx="10.7813" cy="10.7813" r="10.2813" transform="matrix(1 -4.86014e-09 -4.86014e-09 -1 169.305 80.4043)" stroke="white" shape-rendering="crispEdges"/>
</g>
</g>
<defs>
<filter id="filter0_di_2776_390" x="104.789" y="-0.0380859" width="101.895" height="66.6611" filterUnits="userSpaceOnUse" color-interpolation-filters="sRGB">
<feFlood flood-opacity="0" result="BackgroundImageFix"/>
<feColorMatrix in="SourceAlpha" type="matrix" values="0 0 0 0 0 0 0 0 0 0 0 0 0 0 0 0 0 0 127 0" result="hardAlpha"/>
<feOffset/>
<feGaussianBlur stdDeviation="12.5"/>
<feComposite in2="hardAlpha" operator="out"/>
<feColorMatrix type="matrix" values="0 0 0 0 1 0 0 0 0 1 0 0 0 0 1 0 0 0 0.6 0"/>
<feBlend mode="normal" in2="BackgroundImageFix" result="effect1_dropShadow_2776_390"/>
<feBlend mode="normal" in="SourceGraphic" in2="effect1_dropShadow_2776_390" result="shape"/>
<feColorMatrix in="SourceAlpha" type="matrix" values="0 0 0 0 0 0 0 0 0 0 0 0 0 0 0 0 0 0 127 0" result="hardAlpha"/>
<feOffset/>
<feGaussianBlur stdDeviation="2"/>
<feComposite in2="hardAlpha" operator="arithmetic" k2="-1" k3="1"/>
<feColorMatrix type="matrix" values="0 0 0 0 1 0 0 0 0 1 0 0 0 0 1 0 0 0 0.22 0"/>
<feBlend mode="normal" in2="shape" result="effect2_innerShadow_2776_390"/>
</filter>
<filter id="filter1_di_2776_390" x="103.648" y="25.8418" width="90.7578" height="66.5479" filterUnits="userSpaceOnUse" color-interpolation-filters="sRGB">
<feFlood flood-opacity="0" result="BackgroundImageFix"/>
<feColorMatrix in="SourceAlpha" type="matrix" values="0 0 0 0 0 0 0 0 0 0 0 0 0 0 0 0 0 0 127 0" result="hardAlpha"/>
<feOffset/>
<feGaussianBlur stdDeviation="12.5"/>
<feComposite in2="hardAlpha" operator="out"/>
<feColorMatrix type="matrix" values="0 0 0 0 1 0 0 0 0 1 0 0 0 0 1 0 0 0 0.6 0"/>
<feBlend mode="normal" in2="BackgroundImageFix" result="effect1_dropShadow_2776_390"/>
<feBlend mode="normal" in="SourceGraphic" in2="effect1_dropShadow_2776_390" result="shape"/>
<feColorMatrix in="SourceAlpha" type="matrix" values="0 0 0 0 0 0 0 0 0 0 0 0 0 0 0 0 0 0 127 0" result="hardAlpha"/>
<feOffset/>
<feGaussianBlur stdDeviation="2"/>
<feComposite in2="hardAlpha" operator="arithmetic" k2="-1" k3="1"/>
<feColorMatrix type="matrix" values="0 0 0 0 1 0 0 0 0 1 0 0 0 0 1 0 0 0 0.22 0"/>
<feBlend mode="normal" in2="shape" result="effect2_innerShadow_2776_390"/>
</filter>
<filter id="filter2_di_2776_390" x="164.898" y="46.1221" width="107.211" height="52.9824" filterUnits="userSpaceOnUse" color-interpolation-filters="sRGB">
<feFlood flood-opacity="0" result="BackgroundImageFix"/>
<feColorMatrix in="SourceAlpha" type="matrix" values="0 0 0 0 0 0 0 0 0 0 0 0 0 0 0 0 0 0 127 0" result="hardAlpha"/>
<feOffset/>
<feGaussianBlur stdDeviation="12.5"/>
<feComposite in2="hardAlpha" operator="out"/>
<feColorMatrix type="matrix" values="0 0 0 0 1 0 0 0 0 1 0 0 0 0 1 0 0 0 0.6 0"/>
<feBlend mode="normal" in2="BackgroundImageFix" result="effect1_dropShadow_2776_390"/>
<feBlend mode="normal" in="SourceGraphic" in2="effect1_dropShadow_2776_390" result="shape"/>
<feColorMatrix in="SourceAlpha" type="matrix" values="0 0 0 0 0 0 0 0 0 0 0 0 0 0 0 0 0 0 127 0" result="hardAlpha"/>
<feOffset/>
<feGaussianBlur stdDeviation="2"/>
<feComposite in2="hardAlpha" operator="arithmetic" k2="-1" k3="1"/>
<feColorMatrix type="matrix" values="0 0 0 0 1 0 0 0 0 1 0 0 0 0 1 0 0 0 0.22 0"/>
<feBlend mode="normal" in2="shape" result="effect2_innerShadow_2776_390"/>
</filter>
<filter id="filter3_di_2776_390" x="241.453" y="25.7324" width="71.9297" height="68.9766" filterUnits="userSpaceOnUse" color-interpolation-filters="sRGB">
<feFlood flood-opacity="0" result="BackgroundImageFix"/>
<feColorMatrix in="SourceAlpha" type="matrix" values="0 0 0 0 0 0 0 0 0 0 0 0 0 0 0 0 0 0 127 0" result="hardAlpha"/>
<feOffset/>
<feGaussianBlur stdDeviation="12.5"/>
<feComposite in2="hardAlpha" operator="out"/>
<feColorMatrix type="matrix" values="0 0 0 0 1 0 0 0 0 1 0 0 0 0 1 0 0 0 0.6 0"/>
<feBlend mode="normal" in2="BackgroundImageFix" result="effect1_dropShadow_2776_390"/>
<feBlend mode="normal" in="SourceGraphic" in2="effect1_dropShadow_2776_390" result="shape"/>
<feColorMatrix in="SourceAlpha" type="matrix" values="0 0 0 0 0 0 0 0 0 0 0 0 0 0 0 0 0 0 127 0" result="hardAlpha"/>
<feOffset/>
<feGaussianBlur stdDeviation="2"/>
<feComposite in2="hardAlpha" operator="arithmetic" k2="-1" k3="1"/>
<feColorMatrix type="matrix" values="0 0 0 0 1 0 0 0 0 1 0 0 0 0 1 0 0 0 0.22 0"/>
<feBlend mode="normal" in2="shape" result="effect2_innerShadow_2776_390"/>
</filter>
<filter id="filter4_di_2776_390" x="155.949" y="8.43945" width="58.3477" height="75.3672" filterUnits="userSpaceOnUse" color-interpolation-filters="sRGB">
<feFlood flood-opacity="0" result="BackgroundImageFix"/>
<feColorMatrix in="SourceAlpha" type="matrix" values="0 0 0 0 0 0 0 0 0 0 0 0 0 0 0 0 0 0 127 0" result="hardAlpha"/>
<feOffset/>
<feGaussianBlur stdDeviation="12.5"/>
<feComposite in2="hardAlpha" operator="out"/>
<feColorMatrix type="matrix" values="0 0 0 0 1 0 0 0 0 1 0 0 0 0 1 0 0 0 0.6 0"/>
<feBlend mode="normal" in2="BackgroundImageFix" result="effect1_dropShadow_2776_390"/>
<feBlend mode="normal" in="SourceGraphic" in2="effect1_dropShadow_2776_390" result="shape"/>
<feColorMatrix in="SourceAlpha" type="matrix" values="0 0 0 0 0 0 0 0 0 0 0 0 0 0 0 0 0 0 127 0" result="hardAlpha"/>
<feOffset/>
<feGaussianBlur stdDeviation="2"/>
<feComposite in2="hardAlpha" operator="arithmetic" k2="-1" k3="1"/>
<feColorMatrix type="matrix" values="0 0 0 0 1 0 0 0 0 1 0 0 0 0 1 0 0 0 0.22 0"/>
<feBlend mode="normal" in2="shape" result="effect2_innerShadow_2776_390"/>
</filter>
<filter id="filter5_di_2776_390" x="175.031" y="4.74707" width="101.137" height="86.8281" filterUnits="userSpaceOnUse" color-interpolation-filters="sRGB">
<feFlood flood-opacity="0" result="BackgroundImageFix"/>
<feColorMatrix in="SourceAlpha" type="matrix" values="0 0 0 0 0 0 0 0 0 0 0 0 0 0 0 0 0 0 127 0" result="hardAlpha"/>
<feOffset/>
<feGaussianBlur stdDeviation="12.5"/>
<feComposite in2="hardAlpha" operator="out"/>
<feColorMatrix type="matrix" values="0 0 0 0 1 0 0 0 0 1 0 0 0 0 1 0 0 0 0.6 0"/>
<feBlend mode="normal" in2="BackgroundImageFix" result="effect1_dropShadow_2776_390"/>
<feBlend mode="normal" in="SourceGraphic" in2="effect1_dropShadow_2776_390" result="shape"/>
<feColorMatrix in="SourceAlpha" type="matrix" values="0 0 0 0 0 0 0 0 0 0 0 0 0 0 0 0 0 0 127 0" result="hardAlpha"/>
<feOffset/>
<feGaussianBlur stdDeviation="2"/>
<feComposite in2="hardAlpha" operator="arithmetic" k2="-1" k3="1"/>
<feColorMatrix type="matrix" values="0 0 0 0 1 0 0 0 0 1 0 0 0 0 1 0 0 0 0.22 0"/>
<feBlend mode="normal" in2="shape" result="effect2_innerShadow_2776_390"/>
</filter>
<filter id="filter6_di_2776_390" x="177.586" y="-2.38086" width="132.777" height="69.2773" filterUnits="userSpaceOnUse" color-interpolation-filters="sRGB">
<feFlood flood-opacity="0" result="BackgroundImageFix"/>
<feColorMatrix in="SourceAlpha" type="matrix" values="0 0 0 0 0 0 0 0 0 0 0 0 0 0 0 0 0 0 127 0" result="hardAlpha"/>
<feOffset/>
<feGaussianBlur stdDeviation="12.5"/>
<feComposite in2="hardAlpha" operator="out"/>
<feColorMatrix type="matrix" values="0 0 0 0 1 0 0 0 0 1 0 0 0 0 1 0 0 0 0.6 0"/>
<feBlend mode="normal" in2="BackgroundImageFix" result="effect1_dropShadow_2776_390"/>
<feBlend mode="normal" in="SourceGraphic" in2="effect1_dropShadow_2776_390" result="shape"/>
<feColorMatrix in="SourceAlpha" type="matrix" values="0 0 0 0 0 0 0 0 0 0 0 0 0 0 0 0 0 0 127 0" result="hardAlpha"/>
<feOffset/>
<feGaussianBlur stdDeviation="2"/>
<feComposite in2="hardAlpha" operator="arithmetic" k2="-1" k3="1"/>
<feColorMatrix type="matrix" values="0 0 0 0 1 0 0 0 0 1 0 0 0 0 1 0 0 0 0.22 0"/>
<feBlend mode="normal" in2="shape" result="effect2_innerShadow_2776_390"/>
</filter>
<filter id="filter7_di_2776_390" x="84.3086" y="9.36035" width="71.7266" height="71.8535" filterUnits="userSpaceOnUse" color-interpolation-filters="sRGB">
<feFlood flood-opacity="0" result="BackgroundImageFix"/>
<feColorMatrix in="SourceAlpha" type="matrix" values="0 0 0 0 0 0 0 0 0 0 0 0 0 0 0 0 0 0 127 0" result="hardAlpha"/>
<feOffset/>
<feGaussianBlur stdDeviation="12.5"/>
<feComposite in2="hardAlpha" operator="out"/>
<feColorMatrix type="matrix" values="0 0 0 0 1 0 0 0 0 1 0 0 0 0 1 0 0 0 0.6 0"/>
<feBlend mode="normal" in2="BackgroundImageFix" result="effect1_dropShadow_2776_390"/>
<feBlend mode="normal" in="SourceGraphic" in2="effect1_dropShadow_2776_390" result="shape"/>
<feColorMatrix in="SourceAlpha" type="matrix" values="0 0 0 0 0 0 0 0 0 0 0 0 0 0 0 0 0 0 127 0" result="hardAlpha"/>
<feOffset/>
<feGaussianBlur stdDeviation="2"/>
<feComposite in2="hardAlpha" operator="arithmetic" k2="-1" k3="1"/>
<feColorMatrix type="matrix" values="0 0 0 0 1 0 0 0 0 1 0 0 0 0 1 0 0 0 0.22 0"/>
<feBlend mode="normal" in2="shape" result="effect2_innerShadow_2776_390"/>
</filter>
<filter id="filter8_di_2776_390" x="143.625" y="33.2842" width="71.7266" height="71.8535" filterUnits="userSpaceOnUse" color-interpolation-filters="sRGB">
<feFlood flood-opacity="0" result="BackgroundImageFix"/>
<feColorMatrix in="SourceAlpha" type="matrix" values="0 0 0 0 0 0 0 0 0 0 0 0 0 0 0 0 0 0 127 0" result="hardAlpha"/>
<feOffset/>
<feGaussianBlur stdDeviation="12.5"/>
<feComposite in2="hardAlpha" operator="out"/>
<feColorMatrix type="matrix" values="0 0 0 0 1 0 0 0 0 1 0 0 0 0 1 0 0 0 0.6 0"/>
<feBlend mode="normal" in2="BackgroundImageFix" result="effect1_dropShadow_2776_390"/>
<feBlend mode="normal" in="SourceGraphic" in2="effect1_dropShadow_2776_390" result="shape"/>
<feColorMatrix in="SourceAlpha" type="matrix" values="0 0 0 0 0 0 0 0 0 0 0 0 0 0 0 0 0 0 127 0" result="hardAlpha"/>
<feOffset/>
<feGaussianBlur stdDeviation="2"/>
<feComposite in2="hardAlpha" operator="arithmetic" k2="-1" k3="1"/>
<feColorMatrix type="matrix" values="0 0 0 0 1 0 0 0 0 1 0 0 0 0 1 0 0 0 0.22 0"/>
<feBlend mode="normal" in2="shape" result="effect2_innerShadow_2776_390"/>
</filter>
<filter id="filter9_di_2776_390" x="221.688" y="38.9072" width="71.7266" height="71.8535" filterUnits="userSpaceOnUse" color-interpolation-filters="sRGB">
<feFlood flood-opacity="0" result="BackgroundImageFix"/>
<feColorMatrix in="SourceAlpha" type="matrix" values="0 0 0 0 0 0 0 0 0 0 0 0 0 0 0 0 0 0 127 0" result="hardAlpha"/>
<feOffset/>
<feGaussianBlur stdDeviation="12.5"/>
<feComposite in2="hardAlpha" operator="out"/>
<feColorMatrix type="matrix" values="0 0 0 0 1 0 0 0 0 1 0 0 0 0 1 0 0 0 0.6 0"/>
<feBlend mode="normal" in2="BackgroundImageFix" result="effect1_dropShadow_2776_390"/>
<feBlend mode="normal" in="SourceGraphic" in2="effect1_dropShadow_2776_390" result="shape"/>
<feColorMatrix in="SourceAlpha" type="matrix" values="0 0 0 0 0 0 0 0 0 0 0 0 0 0 0 0 0 0 127 0" result="hardAlpha"/>
<feOffset/>
<feGaussianBlur stdDeviation="2"/>
<feComposite in2="hardAlpha" operator="arithmetic" k2="-1" k3="1"/>
<feColorMatrix type="matrix" values="0 0 0 0 1 0 0 0 0 1 0 0 0 0 1 0 0 0 0.22 0"/>
<feBlend mode="normal" in2="shape" result="effect2_innerShadow_2776_390"/>
</filter>
<filter id="filter10_di_2776_390" x="259.742" y="7.42871" width="71.7266" height="71.8535" filterUnits="userSpaceOnUse" color-interpolation-filters="sRGB">
<feFlood flood-opacity="0" result="BackgroundImageFix"/>
<feColorMatrix in="SourceAlpha" type="matrix" values="0 0 0 0 0 0 0 0 0 0 0 0 0 0 0 0 0 0 127 0" result="hardAlpha"/>
<feOffset/>
<feGaussianBlur stdDeviation="12.5"/>
<feComposite in2="hardAlpha" operator="out"/>
<feColorMatrix type="matrix" values="0 0 0 0 1 0 0 0 0 1 0 0 0 0 1 0 0 0 0.6 0"/>
<feBlend mode="normal" in2="BackgroundImageFix" result="effect1_dropShadow_2776_390"/>
<feBlend mode="normal" in="SourceGraphic" in2="effect1_dropShadow_2776_390" result="shape"/>
<feColorMatrix in="SourceAlpha" type="matrix" values="0 0 0 0 0 0 0 0 0 0 0 0 0 0 0 0 0 0 127 0" result="hardAlpha"/>
<feOffset/>
<feGaussianBlur stdDeviation="2"/>
<feComposite in2="hardAlpha" operator="arithmetic" k2="-1" k3="1"/>
<feColorMatrix type="matrix" values="0 0 0 0 1 0 0 0 0 1 0 0 0 0 1 0 0 0 0.22 0"/>
<feBlend mode="normal" in2="shape" result="effect2_innerShadow_2776_390"/>
</filter>
<filter id="filter11_di_2776_390" x="156.082" y="-12.5654" width="71.7266" height="71.8535" filterUnits="userSpaceOnUse" color-interpolation-filters="sRGB">
<feFlood flood-opacity="0" result="BackgroundImageFix"/>
<feColorMatrix in="SourceAlpha" type="matrix" values="0 0 0 0 0 0 0 0 0 0 0 0 0 0 0 0 0 0 127 0" result="hardAlpha"/>
<feOffset/>
<feGaussianBlur stdDeviation="12.5"/>
<feComposite in2="hardAlpha" operator="out"/>
<feColorMatrix type="matrix" values="0 0 0 0 1 0 0 0 0 1 0 0 0 0 1 0 0 0 0.6 0"/>
<feBlend mode="normal" in2="BackgroundImageFix" result="effect1_dropShadow_2776_390"/>
<feBlend mode="normal" in="SourceGraphic" in2="effect1_dropShadow_2776_390" result="shape"/>
<feColorMatrix in="SourceAlpha" type="matrix" values="0 0 0 0 0 0 0 0 0 0 0 0 0 0 0 0 0 0 127 0" result="hardAlpha"/>
<feOffset/>
<feGaussianBlur stdDeviation="2"/>
<feComposite in2="hardAlpha" operator="arithmetic" k2="-1" k3="1"/>
<feColorMatrix type="matrix" values="0 0 0 0 1 0 0 0 0 1 0 0 0 0 1 0 0 0 0.22 0"/>
<feBlend mode="normal" in2="shape" result="effect2_innerShadow_2776_390"/>
</filter>
<filter id="filter12_di_2776_390" x="18.0938" y="48.5781" width="105.695" height="71.7793" filterUnits="userSpaceOnUse" color-interpolation-filters="sRGB">
<feFlood flood-opacity="0" result="BackgroundImageFix"/>
<feColorMatrix in="SourceAlpha" type="matrix" values="0 0 0 0 0 0 0 0 0 0 0 0 0 0 0 0 0 0 127 0" result="hardAlpha"/>
<feOffset/>
<feGaussianBlur stdDeviation="12.5"/>
<feComposite in2="hardAlpha" operator="out"/>
<feColorMatrix type="matrix" values="0 0 0 0 1 0 0 0 0 1 0 0 0 0 1 0 0 0 0.6 0"/>
<feBlend mode="normal" in2="BackgroundImageFix" result="effect1_dropShadow_2776_390"/>
<feBlend mode="normal" in="SourceGraphic" in2="effect1_dropShadow_2776_390" result="shape"/>
<feColorMatrix in="SourceAlpha" type="matrix" values="0 0 0 0 0 0 0 0 0 0 0 0 0 0 0 0 0 0 127 0" result="hardAlpha"/>
<feOffset/>
<feGaussianBlur stdDeviation="2"/>
<feComposite in2="hardAlpha" operator="arithmetic" k2="-1" k3="1"/>
<feColorMatrix type="matrix" values="0 0 0 0 1 0 0 0 0 1 0 0 0 0 1 0 0 0 0.22 0"/>
<feBlend mode="normal" in2="shape" result="effect2_innerShadow_2776_390"/>
</filter>
<filter id="filter13_di_2776_390" x="17.7305" y="20.1855" width="116.406" height="70.3662" filterUnits="userSpaceOnUse" color-interpolation-filters="sRGB">
<feFlood flood-opacity="0" result="BackgroundImageFix"/>
<feColorMatrix in="SourceAlpha" type="matrix" values="0 0 0 0 0 0 0 0 0 0 0 0 0 0 0 0 0 0 127 0" result="hardAlpha"/>
<feOffset/>
<feGaussianBlur stdDeviation="12.5"/>
<feComposite in2="hardAlpha" operator="out"/>
<feColorMatrix type="matrix" values="0 0 0 0 1 0 0 0 0 1 0 0 0 0 1 0 0 0 0.6 0"/>
<feBlend mode="normal" in2="BackgroundImageFix" result="effect1_dropShadow_2776_390"/>
<feBlend mode="normal" in="SourceGraphic" in2="effect1_dropShadow_2776_390" result="shape"/>
<feColorMatrix in="SourceAlpha" type="matrix" values="0 0 0 0 0 0 0 0 0 0 0 0 0 0 0 0 0 0 127 0" result="hardAlpha"/>
<feOffset/>
<feGaussianBlur stdDeviation="2"/>
<feComposite in2="hardAlpha" operator="arithmetic" k2="-1" k3="1"/>
<feColorMatrix type="matrix" values="0 0 0 0 1 0 0 0 0 1 0 0 0 0 1 0 0 0 0.22 0"/>
<feBlend mode="normal" in2="shape" result="effect2_innerShadow_2776_390"/>
</filter>
<filter id="filter14_di_2776_390" x="94.2695" y="51.0938" width="103.883" height="69.9893" filterUnits="userSpaceOnUse" color-interpolation-filters="sRGB">
<feFlood flood-opacity="0" result="BackgroundImageFix"/>
<feColorMatrix in="SourceAlpha" type="matrix" values="0 0 0 0 0 0 0 0 0 0 0 0 0 0 0 0 0 0 127 0" result="hardAlpha"/>
<feOffset/>
<feGaussianBlur stdDeviation="12.5"/>
<feComposite in2="hardAlpha" operator="out"/>
<feColorMatrix type="matrix" values="0 0 0 0 1 0 0 0 0 1 0 0 0 0 1 0 0 0 0.6 0"/>
<feBlend mode="normal" in2="BackgroundImageFix" result="effect1_dropShadow_2776_390"/>
<feBlend mode="normal" in="SourceGraphic" in2="effect1_dropShadow_2776_390" result="shape"/>
<feColorMatrix in="SourceAlpha" type="matrix" values="0 0 0 0 0 0 0 0 0 0 0 0 0 0 0 0 0 0 127 0" result="hardAlpha"/>
<feOffset/>
<feGaussianBlur stdDeviation="2"/>
<feComposite in2="hardAlpha" operator="arithmetic" k2="-1" k3="1"/>
<feColorMatrix type="matrix" values="0 0 0 0 1 0 0 0 0 1 0 0 0 0 1 0 0 0 0.22 0"/>
<feBlend mode="normal" in2="shape" result="effect2_innerShadow_2776_390"/>
</filter>
<filter id="filter15_di_2776_390" x="85.6445" y="30.6094" width="58.1602" height="81.4893" filterUnits="userSpaceOnUse" color-interpolation-filters="sRGB">
<feFlood flood-opacity="0" result="BackgroundImageFix"/>
<feColorMatrix in="SourceAlpha" type="matrix" values="0 0 0 0 0 0 0 0 0 0 0 0 0 0 0 0 0 0 127 0" result="hardAlpha"/>
<feOffset/>
<feGaussianBlur stdDeviation="12.5"/>
<feComposite in2="hardAlpha" operator="out"/>
<feColorMatrix type="matrix" values="0 0 0 0 1 0 0 0 0 1 0 0 0 0 1 0 0 0 0.6 0"/>
<feBlend mode="normal" in2="BackgroundImageFix" result="effect1_dropShadow_2776_390"/>
<feBlend mode="normal" in="SourceGraphic" in2="effect1_dropShadow_2776_390" result="shape"/>
<feColorMatrix in="SourceAlpha" type="matrix" values="0 0 0 0 0 0 0 0 0 0 0 0 0 0 0 0 0 0 127 0" result="hardAlpha"/>
<feOffset/>
<feGaussianBlur stdDeviation="2"/>
<feComposite in2="hardAlpha" operator="arithmetic" k2="-1" k3="1"/>
<feColorMatrix type="matrix" values="0 0 0 0 1 0 0 0 0 1 0 0 0 0 1 0 0 0 0.22 0"/>
<feBlend mode="normal" in2="shape" result="effect2_innerShadow_2776_390"/>
</filter>
<filter id="filter16_di_2776_390" x="73.0703" y="61.5137" width="71.5625" height="71.5625" filterUnits="userSpaceOnUse" color-interpolation-filters="sRGB">
<feFlood flood-opacity="0" result="BackgroundImageFix"/>
<feColorMatrix in="SourceAlpha" type="matrix" values="0 0 0 0 0 0 0 0 0 0 0 0 0 0 0 0 0 0 127 0" result="hardAlpha"/>
<feOffset/>
<feGaussianBlur stdDeviation="12.5"/>
<feComposite in2="hardAlpha" operator="out"/>
<feColorMatrix type="matrix" values="0 0 0 0 1 0 0 0 0 1 0 0 0 0 1 0 0 0 0.6 0"/>
<feBlend mode="normal" in2="BackgroundImageFix" result="effect1_dropShadow_2776_390"/>
<feBlend mode="normal" in="SourceGraphic" in2="effect1_dropShadow_2776_390" result="shape"/>
<feColorMatrix in="SourceAlpha" type="matrix" values="0 0 0 0 0 0 0 0 0 0 0 0 0 0 0 0 0 0 127 0" result="hardAlpha"/>
<feOffset/>
<feGaussianBlur stdDeviation="2"/>
<feComposite in2="hardAlpha" operator="arithmetic" k2="-1" k3="1"/>
<feColorMatrix type="matrix" values="0 0 0 0 1 0 0 0 0 1 0 0 0 0 1 0 0 0 0.22 0"/>
<feBlend mode="normal" in2="shape" result="effect2_innerShadow_2776_390"/>
</filter>
<filter id="filter17_di_2776_390" x="-2.40234" y="33.8438" width="71.5625" height="71.5625" filterUnits="userSpaceOnUse" color-interpolation-filters="sRGB">
<feFlood flood-opacity="0" result="BackgroundImageFix"/>
<feColorMatrix in="SourceAlpha" type="matrix" values="0 0 0 0 0 0 0 0 0 0 0 0 0 0 0 0 0 0 127 0" result="hardAlpha"/>
<feOffset/>
<feGaussianBlur stdDeviation="12.5"/>
<feComposite in2="hardAlpha" operator="out"/>
<feColorMatrix type="matrix" values="0 0 0 0 1 0 0 0 0 1 0 0 0 0 1 0 0 0 0.6 0"/>
<feBlend mode="normal" in2="BackgroundImageFix" result="effect1_dropShadow_2776_390"/>
<feBlend mode="normal" in="SourceGraphic" in2="effect1_dropShadow_2776_390" result="shape"/>
<feColorMatrix in="SourceAlpha" type="matrix" values="0 0 0 0 0 0 0 0 0 0 0 0 0 0 0 0 0 0 127 0" result="hardAlpha"/>
<feOffset/>
<feGaussianBlur stdDeviation="2"/>
<feComposite in2="hardAlpha" operator="arithmetic" k2="-1" k3="1"/>
<feColorMatrix type="matrix" values="0 0 0 0 1 0 0 0 0 1 0 0 0 0 1 0 0 0 0.22 0"/>
<feBlend mode="normal" in2="shape" result="effect2_innerShadow_2776_390"/>
</filter>
<filter id="filter18_di_2776_390" x="83.8516" y="9.4043" width="71.5625" height="71.5625" filterUnits="userSpaceOnUse" color-interpolation-filters="sRGB">
<feFlood flood-opacity="0" result="BackgroundImageFix"/>
<feColorMatrix in="SourceAlpha" type="matrix" values="0 0 0 0 0 0 0 0 0 0 0 0 0 0 0 0 0 0 127 0" result="hardAlpha"/>
<feOffset/>
<feGaussianBlur stdDeviation="12.5"/>
<feComposite in2="hardAlpha" operator="out"/>
<feColorMatrix type="matrix" values="0 0 0 0 1 0 0 0 0 1 0 0 0 0 1 0 0 0 0.6 0"/>
<feBlend mode="normal" in2="BackgroundImageFix" result="effect1_dropShadow_2776_390"/>
<feBlend mode="normal" in="SourceGraphic" in2="effect1_dropShadow_2776_390" result="shape"/>
<feColorMatrix in="SourceAlpha" type="matrix" values="0 0 0 0 0 0 0 0 0 0 0 0 0 0 0 0 0 0 127 0" result="hardAlpha"/>
<feOffset/>
<feGaussianBlur stdDeviation="2"/>
<feComposite in2="hardAlpha" operator="arithmetic" k2="-1" k3="1"/>
<feColorMatrix type="matrix" values="0 0 0 0 1 0 0 0 0 1 0 0 0 0 1 0 0 0 0.22 0"/>
<feBlend mode="normal" in2="shape" result="effect2_innerShadow_2776_390"/>
</filter>
<filter id="filter19_di_2776_390" x="144.305" y="33.8418" width="71.5625" height="71.5625" filterUnits="userSpaceOnUse" color-interpolation-filters="sRGB">
<feFlood flood-opacity="0" result="BackgroundImageFix"/>
<feColorMatrix in="SourceAlpha" type="matrix" values="0 0 0 0 0 0 0 0 0 0 0 0 0 0 0 0 0 0 127 0" result="hardAlpha"/>
<feOffset/>
<feGaussianBlur stdDeviation="12.5"/>
<feComposite in2="hardAlpha" operator="out"/>
<feColorMatrix type="matrix" values="0 0 0 0 1 0 0 0 0 1 0 0 0 0 1 0 0 0 0.6 0"/>
<feBlend mode="normal" in2="BackgroundImageFix" result="effect1_dropShadow_2776_390"/>
<feBlend mode="normal" in="SourceGraphic" in2="effect1_dropShadow_2776_390" result="shape"/>
<feColorMatrix in="SourceAlpha" type="matrix" values="0 0 0 0 0 0 0 0 0 0 0 0 0 0 0 0 0 0 127 0" result="hardAlpha"/>
<feOffset/>
<feGaussianBlur stdDeviation="2"/>
<feComposite in2="hardAlpha" operator="arithmetic" k2="-1" k3="1"/>
<feColorMatrix type="matrix" values="0 0 0 0 1 0 0 0 0 1 0 0 0 0 1 0 0 0 0.22 0"/>
<feBlend mode="normal" in2="shape" result="effect2_innerShadow_2776_390"/>
</filter>
<linearGradient id="paint0_linear_2776_390" x1="120.173" y1="34.3602" x2="120.173" y2="56.2134" gradientUnits="userSpaceOnUse">
<stop stop-color="#F6F6F7"/>
<stop offset="1" stop-color="#7E808F"/>
</linearGradient>
<linearGradient id="paint1_linear_2776_390" x1="179.489" y1="58.2841" x2="179.489" y2="80.1373" gradientUnits="userSpaceOnUse">
<stop stop-color="#F6F6F7"/>
<stop offset="1" stop-color="#7E808F"/>
</linearGradient>
<linearGradient id="paint2_linear_2776_390" x1="257.552" y1="63.9071" x2="257.552" y2="85.7603" gradientUnits="userSpaceOnUse">
<stop stop-color="#F6F6F7"/>
<stop offset="1" stop-color="#7E808F"/>
</linearGradient>
<linearGradient id="paint3_linear_2776_390" x1="295.607" y1="32.4286" x2="295.607" y2="54.2818" gradientUnits="userSpaceOnUse">
<stop stop-color="#F6F6F7"/>
<stop offset="1" stop-color="#7E808F"/>
</linearGradient>
<linearGradient id="paint4_linear_2776_390" x1="191.946" y1="12.4344" x2="191.946" y2="34.2877" gradientUnits="userSpaceOnUse">
<stop stop-color="#F6F6F7"/>
<stop offset="1" stop-color="#7E808F"/>
</linearGradient>
<linearGradient id="paint5_linear_2776_390" x1="10.7813" y1="0" x2="10.7813" y2="21.5626" gradientUnits="userSpaceOnUse">
<stop stop-color="#F6F6F7"/>
<stop offset="1" stop-color="#7E808F"/>
</linearGradient>
<linearGradient id="paint6_linear_2776_390" x1="10.7813" y1="0" x2="10.7813" y2="21.5626" gradientUnits="userSpaceOnUse">
<stop stop-color="#F6F6F7"/>
<stop offset="1" stop-color="#7E808F"/>
</linearGradient>
<linearGradient id="paint7_linear_2776_390" x1="10.7813" y1="0" x2="10.7813" y2="21.5626" gradientUnits="userSpaceOnUse">
<stop stop-color="#F6F6F7"/>
<stop offset="1" stop-color="#7E808F"/>
</linearGradient>
<linearGradient id="paint8_linear_2776_390" x1="10.7813" y1="0" x2="10.7813" y2="21.5626" gradientUnits="userSpaceOnUse">
<stop stop-color="#F6F6F7"/>
<stop offset="1" stop-color="#7E808F"/>
</linearGradient>
<clipPath id="clip0_2776_390">
<rect width="328.03" height="116.342" fill="white" transform="translate(0.320312)"/>
</clipPath>
</defs>
</svg>
