<svg width="430" height="257" viewBox="0 0 430 257" fill="none" xmlns="http://www.w3.org/2000/svg">
<g clip-path="url(#clip0_2775_328)">
<circle cx="288.954" cy="92.4642" r="32.7591" stroke="white" stroke-width="2"/>
<circle cx="221.439" cy="92.4642" r="32.7591" stroke="white" stroke-width="2"/>
<circle cx="255.197" cy="34.1009" r="32.7591" stroke="white" stroke-width="2"/>
<circle cx="270.358" cy="42.3974" r="14.163" stroke="white" stroke-width="2"/>
<circle cx="304.12" cy="100.761" r="14.163" stroke="white" stroke-width="2"/>
<circle cx="236.601" cy="100.761" r="14.163" stroke="white" stroke-width="2"/>
<circle cx="240.034" cy="42.3974" r="14.163" stroke="white" stroke-width="2"/>
<circle cx="273.792" cy="100.761" r="14.163" stroke="white" stroke-width="2"/>
<circle cx="206.272" cy="100.761" r="14.163" stroke="white" stroke-width="2"/>
<path d="M269.644 16.6493C269.644 24.4538 263.193 30.8123 255.195 30.8123C247.197 30.8123 240.746 24.4538 240.746 16.6493C240.746 8.84486 247.197 2.48633 255.195 2.48633C263.193 2.48633 269.644 8.84486 269.644 16.6493Z" stroke="white" stroke-width="2"/>
<path d="M303.406 75.0126C303.406 82.8171 296.955 89.1756 288.957 89.1756C280.959 89.1756 274.508 82.8171 274.508 75.0126C274.508 67.2081 280.959 60.8496 288.957 60.8496C296.955 60.8496 303.406 67.2081 303.406 75.0126Z" stroke="white" stroke-width="2"/>
<path d="M235.886 75.0126C235.886 82.8171 229.435 89.1756 221.437 89.1756C213.44 89.1756 206.988 82.8171 206.988 75.0126C206.988 67.2081 213.44 60.8496 221.437 60.8496C229.435 60.8496 235.886 67.2081 235.886 75.0126Z" stroke="white" stroke-width="2"/>
<path d="M35.018 126.796C14.7625 126.796 0 112.033 0 91.778V83.0235H48.9222V89.8898H54.0719V80.4486L22.8303 74.4407C9.0978 71.8658 0 61.9097 0 49.5504V38.2211C0 17.9656 14.7625 3.20312 35.018 3.20312H67.9761C88.2315 3.20312 102.994 17.9656 102.994 38.2211V46.9756H54.0719V40.1093H48.9222V49.5504L80.1637 55.5584C93.8962 58.1333 102.994 68.0894 102.994 80.4486V91.778C102.994 112.033 88.2315 126.796 67.9761 126.796H35.018Z" fill="white"/>
<path d="M126.11 125.079V41.8259H102.422V4.91969H196.833V41.8259H173.316V125.079H126.11Z" fill="white"/>
<path d="M330.439 125.079V4.91969H391.549C411.804 4.91969 426.567 19.6822 426.567 39.9377V53.1552C426.567 64.9995 421.589 74.9556 413.349 81.1353C423.305 84.7401 430 94.1812 430 105.854V125.079H382.794V88.1732H377.645V125.079H330.439ZM377.645 59.5065H382.794V33.4147H377.645V59.5065Z" fill="white"/>
<path d="M9.0978 256.111V145.564H84.1118L85.691 222.157H89.6391V145.564H133.068V256.111H58.0543L56.4751 179.517H52.5269V256.111H9.0978Z" fill="white"/>
<path d="M140.958 256.111V145.564H227.817V179.517H184.387V184.255H227.817V217.419H184.387V222.157H227.817V256.111H140.958Z" fill="white"/>
<path d="M255.076 256.111V179.517H233.282V145.564H320.141V179.517H298.505V256.111H255.076Z" fill="white"/>
</g>
<defs>
<clipPath id="clip0_2775_328">
<rect width="430" height="255.768" fill="white" transform="translate(0 0.341797)"/>
</clipPath>
</defs>
</svg>
