<svg width="20" height="18" viewBox="0 0 20 18" fill="none" xmlns="http://www.w3.org/2000/svg">
<g clip-path="url(#clip0_2473_592)">
<path d="M19.2358 0.703668C19.1306 0.612883 19.0027 0.552505 18.8658 0.529039C18.7289 0.505572 18.5882 0.519907 18.4588 0.5705L1.26902 7.29764C1.0254 7.39237 0.819153 7.56368 0.68132 7.78577C0.543486 8.00787 0.481532 8.26873 0.504782 8.52908C0.528033 8.78943 0.635231 9.03518 0.810238 9.22934C0.985245 9.4235 1.21859 9.55555 1.47514 9.60561L5.92908 10.4801V15.4464C5.9282 15.7169 6.00859 15.9814 6.15983 16.2057C6.31106 16.43 6.52617 16.6037 6.77729 16.7043C7.02801 16.8066 7.30374 16.8312 7.56862 16.7748C7.83349 16.7184 8.07527 16.5836 8.2625 16.3879L10.4102 14.1605L13.8174 17.1428C14.0632 17.3608 14.3803 17.4815 14.7089 17.4821C14.8529 17.482 14.996 17.4593 15.133 17.4151C15.3569 17.344 15.5582 17.2156 15.717 17.0425C15.8758 16.8694 15.9865 16.6578 16.038 16.4286L19.4809 1.45094C19.5117 1.31586 19.5052 1.17495 19.462 1.04331C19.4188 0.911666 19.3406 0.794258 19.2358 0.703668ZM14.7106 16.1249L7.69759 9.97543L17.7913 2.74106L14.7106 16.1249Z" fill="white"/>
</g>
<defs>
<clipPath id="clip0_2473_592">
<rect width="19" height="16.964" fill="white" transform="translate(0.5 0.518066)"/>
</clipPath>
</defs>
</svg>
