<svg width="260" height="120" viewBox="0 0 260 120" fill="none" xmlns="http://www.w3.org/2000/svg">
<g clip-path="url(#clip0_2467_518)">
<g filter="url(#filter0_d_2467_518)">
<rect width="260" height="120" rx="20" fill="url(#paint0_linear_2467_518)" shape-rendering="crispEdges"/>
</g>
<path d="M59.6412 49.6161V62.707H58.0559V49.6161H59.6412ZM64.1236 56.8008V62.707H62.6151V52.8888H64.0724V54.4229H64.2003C64.4304 53.9244 64.7798 53.5238 65.2486 53.2212C65.7173 52.9144 66.3224 52.761 67.0639 52.761C67.7287 52.761 68.3104 52.8974 68.8089 53.1701C69.3075 53.4386 69.6953 53.8477 69.9723 54.3974C70.2493 54.9428 70.3878 55.6332 70.3878 56.4684V62.707H68.8793V56.5707C68.8793 55.7994 68.679 55.1985 68.2784 54.7681C67.8778 54.3335 67.3281 54.1161 66.6293 54.1161C66.1477 54.1161 65.7173 54.2205 65.3381 54.4293C64.9631 54.6381 64.6669 54.9428 64.4496 55.3434C64.2322 55.744 64.1236 56.2298 64.1236 56.8008ZM77.5165 52.8888V54.1673H72.2239V52.8888H77.5165ZM73.8091 62.707V51.5337C73.8091 50.9712 73.9412 50.5025 74.2054 50.1275C74.4696 49.7525 74.8127 49.4712 75.2346 49.2837C75.6564 49.0962 76.1017 49.0025 76.5705 49.0025C76.9412 49.0025 77.2438 49.0323 77.4782 49.092C77.7125 49.1516 77.8873 49.207 78.0023 49.2582L77.5676 50.5621C77.4909 50.5366 77.3844 50.5046 77.248 50.4663C77.1159 50.4279 76.9412 50.4087 76.7239 50.4087C76.2253 50.4087 75.8652 50.5344 75.6436 50.7859C75.4263 51.0373 75.3176 51.4059 75.3176 51.8917V62.707H73.8091ZM79.6307 62.707V52.8888H81.1392V62.707H79.6307ZM80.3977 51.2525C80.1037 51.2525 79.8501 51.1523 79.6371 50.9521C79.4283 50.7518 79.3239 50.511 79.3239 50.2298C79.3239 49.9485 79.4283 49.7077 79.6371 49.5075C79.8501 49.3072 80.1037 49.207 80.3977 49.207C80.6918 49.207 80.9432 49.3072 81.152 49.5075C81.3651 49.7077 81.4716 49.9485 81.4716 50.2298C81.4716 50.511 81.3651 50.7518 81.152 50.9521C80.9432 51.1523 80.6918 51.2525 80.3977 51.2525ZM85.4107 56.8008V62.707H83.9022V52.8888H85.3596V54.4229H85.4874C85.7175 53.9244 86.0669 53.5238 86.5357 53.2212C87.0044 52.9144 87.6096 52.761 88.351 52.761C89.0158 52.761 89.5975 52.8974 90.0961 53.1701C90.5946 53.4386 90.9824 53.8477 91.2594 54.3974C91.5364 54.9428 91.6749 55.6332 91.6749 56.4684V62.707H90.1664V56.5707C90.1664 55.7994 89.9661 55.1985 89.5655 54.7681C89.165 54.3335 88.6152 54.1161 87.9164 54.1161C87.4348 54.1161 87.0044 54.2205 86.6252 54.4293C86.2502 54.6381 85.954 54.9428 85.7367 55.3434C85.5194 55.744 85.4107 56.2298 85.4107 56.8008ZM94.4315 62.707V52.8888H95.94V62.707H94.4315ZM95.1985 51.2525C94.9045 51.2525 94.6509 51.1523 94.4379 50.9521C94.229 50.7518 94.1246 50.511 94.1246 50.2298C94.1246 49.9485 94.229 49.7077 94.4379 49.5075C94.6509 49.3072 94.9045 49.207 95.1985 49.207C95.4925 49.207 95.744 49.3072 95.9528 49.5075C96.1658 49.7077 96.2724 49.9485 96.2724 50.2298C96.2724 50.511 96.1658 50.7518 95.9528 50.9521C95.744 51.1523 95.4925 51.2525 95.1985 51.2525ZM102.973 52.8888V54.1673H97.8848V52.8888H102.973ZM99.3677 50.5366H100.876V59.8945C100.876 60.3207 100.938 60.6403 101.062 60.8533C101.189 61.0621 101.351 61.2028 101.547 61.2752C101.748 61.3434 101.959 61.3775 102.18 61.3775C102.346 61.3775 102.483 61.369 102.589 61.3519C102.696 61.3306 102.781 61.3136 102.845 61.3008L103.152 62.6559C103.05 62.6942 102.907 62.7326 102.724 62.771C102.54 62.8136 102.308 62.8349 102.027 62.8349C101.601 62.8349 101.183 62.7433 100.774 62.56C100.369 62.3768 100.032 62.0977 99.764 61.7227C99.4998 61.3477 99.3677 60.8746 99.3677 60.3036V50.5366ZM109.253 62.9116C108.307 62.9116 107.491 62.7028 106.805 62.2852C106.123 61.8633 105.597 61.2752 105.226 60.521C104.86 59.7624 104.676 58.8803 104.676 57.8746C104.676 56.869 104.86 55.9826 105.226 55.2156C105.597 54.4442 106.112 53.8434 106.773 53.413C107.438 52.9783 108.213 52.761 109.1 52.761C109.611 52.761 110.116 52.8462 110.615 53.0167C111.113 53.1871 111.567 53.4641 111.976 53.8477C112.385 54.2269 112.711 54.7298 112.954 55.3562C113.197 55.9826 113.318 56.7539 113.318 57.6701V58.3093H105.75V57.0053H111.784C111.784 56.4513 111.673 55.957 111.452 55.5224C111.235 55.0877 110.923 54.7447 110.519 54.4933C110.118 54.2418 109.645 54.1161 109.1 54.1161C108.499 54.1161 107.979 54.2653 107.54 54.5636C107.105 54.8576 106.771 55.2411 106.536 55.7141C106.302 56.1871 106.185 56.6942 106.185 57.2354V58.1048C106.185 58.8462 106.313 59.4748 106.568 59.9904C106.828 60.5018 107.188 60.8917 107.649 61.1602C108.109 61.4244 108.644 61.5565 109.253 61.5565C109.649 61.5565 110.007 61.5011 110.327 61.3903C110.651 61.2752 110.93 61.1048 111.164 60.8789C111.399 60.6488 111.58 60.3633 111.708 60.0224L113.165 60.4315C113.012 60.9258 112.754 61.3604 112.392 61.7354C112.029 62.1062 111.582 62.396 111.049 62.6048C110.517 62.8093 109.918 62.9116 109.253 62.9116ZM117.122 49.6161V62.707H115.613V49.6161H117.122ZM120.856 66.3888C120.6 66.3888 120.373 66.3675 120.172 66.3249C119.972 66.2866 119.833 66.2482 119.757 66.2099L120.14 64.8803C120.507 64.9741 120.831 65.0082 121.112 64.9826C121.393 64.957 121.642 64.8313 121.86 64.6055C122.081 64.3839 122.284 64.0238 122.467 63.5252L122.748 62.7582L119.118 52.8888H120.754L123.464 60.7127H123.566L126.277 52.8888H127.913L123.745 64.1388C123.558 64.646 123.326 65.0657 123.049 65.3981C122.772 65.7347 122.45 65.984 122.083 66.146C121.721 66.3079 121.312 66.3888 120.856 66.3888ZM141.921 55.0877L140.566 55.4712C140.481 55.2454 140.355 55.0259 140.189 54.8129C140.027 54.5955 139.805 54.4165 139.524 54.2759C139.243 54.1353 138.883 54.065 138.444 54.065C137.843 54.065 137.342 54.2035 136.942 54.4805C136.545 54.7532 136.347 55.1005 136.347 55.5224C136.347 55.8974 136.484 56.1935 136.756 56.4109C137.029 56.6282 137.455 56.8093 138.035 56.9542L139.492 57.3121C140.37 57.5252 141.024 57.8512 141.455 58.2901C141.885 58.7248 142.1 59.2852 142.1 59.9712C142.1 60.5337 141.938 61.0366 141.614 61.4798C141.295 61.9229 140.847 62.2724 140.272 62.5281C139.697 62.7837 139.028 62.9116 138.265 62.9116C137.263 62.9116 136.435 62.6942 135.778 62.2596C135.122 61.8249 134.707 61.19 134.532 60.3548L135.964 59.9968C136.1 60.5252 136.358 60.9215 136.737 61.1857C137.121 61.4499 137.621 61.582 138.239 61.582C138.942 61.582 139.501 61.4329 139.914 61.1346C140.332 60.832 140.54 60.4698 140.54 60.0479C140.54 59.707 140.421 59.4215 140.183 59.1914C139.944 58.957 139.577 58.7823 139.083 58.6673L137.447 58.2837C136.548 58.0707 135.887 57.7404 135.465 57.293C135.048 56.8413 134.839 56.2766 134.839 55.5991C134.839 55.0451 134.994 54.555 135.305 54.1289C135.621 53.7028 136.049 53.3683 136.59 53.1254C137.136 52.8825 137.754 52.761 138.444 52.761C139.415 52.761 140.178 52.9741 140.732 53.4002C141.29 53.8263 141.687 54.3888 141.921 55.0877ZM148.36 62.9116C147.439 62.9116 146.646 62.6942 145.982 62.2596C145.317 61.8249 144.806 61.2262 144.448 60.4634C144.09 59.7006 143.911 58.8292 143.911 57.8491C143.911 56.8519 144.094 55.9719 144.46 55.2092C144.831 54.4421 145.347 53.8434 146.007 53.413C146.672 52.9783 147.448 52.761 148.334 52.761C149.024 52.761 149.646 52.8888 150.2 53.1445C150.754 53.4002 151.208 53.7582 151.562 54.2184C151.916 54.6786 152.135 55.2156 152.22 55.8292H150.712C150.597 55.3817 150.341 54.9854 149.945 54.6403C149.553 54.2908 149.024 54.1161 148.36 54.1161C147.771 54.1161 147.256 54.2695 146.813 54.5763C146.374 54.8789 146.031 55.3072 145.784 55.8612C145.541 56.4109 145.419 57.0565 145.419 57.7979C145.419 58.5565 145.539 59.217 145.777 59.7795C146.02 60.342 146.361 60.7788 146.8 61.0898C147.243 61.4009 147.763 61.5565 148.36 61.5565C148.752 61.5565 149.107 61.4883 149.427 61.3519C149.747 61.2156 150.017 61.0195 150.239 60.7638C150.46 60.5082 150.618 60.2013 150.712 59.8434H152.22C152.135 60.4229 151.924 60.945 151.588 61.4094C151.255 61.8697 150.814 62.2362 150.264 62.5089C149.719 62.7773 149.084 62.9116 148.36 62.9116ZM157.315 62.9371C156.693 62.9371 156.128 62.82 155.621 62.5856C155.114 62.3469 154.711 62.0039 154.413 61.5565C154.115 61.1048 153.965 60.5593 153.965 59.9201C153.965 59.3576 154.076 58.9016 154.298 58.5522C154.519 58.1985 154.816 57.9215 155.186 57.7212C155.557 57.521 155.966 57.3718 156.414 57.2738C156.865 57.1715 157.319 57.0906 157.775 57.0309C158.372 56.9542 158.855 56.8967 159.226 56.8583C159.601 56.8157 159.874 56.7454 160.044 56.6474C160.219 56.5494 160.306 56.3789 160.306 56.136V56.0849C160.306 55.4542 160.134 54.9641 159.789 54.6147C159.448 54.2653 158.93 54.0906 158.235 54.0906C157.515 54.0906 156.95 54.2482 156.541 54.5636C156.132 54.8789 155.845 55.2156 155.678 55.5735L154.247 55.0621C154.502 54.4656 154.843 54.0011 155.269 53.6687C155.7 53.332 156.169 53.0977 156.676 52.9656C157.187 52.8292 157.69 52.761 158.184 52.761C158.499 52.761 158.862 52.7994 159.271 52.8761C159.684 52.9485 160.083 53.0998 160.466 53.3299C160.854 53.56 161.176 53.9073 161.431 54.3718C161.687 54.8363 161.815 55.4585 161.815 56.2383V62.707H160.306V61.3775H160.23C160.127 61.5906 159.957 61.8185 159.718 62.0614C159.48 62.3043 159.162 62.511 158.766 62.6815C158.369 62.8519 157.886 62.9371 157.315 62.9371ZM157.545 61.582C158.142 61.582 158.644 61.4648 159.053 61.2305C159.467 60.9961 159.778 60.6935 159.987 60.3228C160.2 59.9521 160.306 59.5621 160.306 59.1531V57.7724C160.242 57.8491 160.102 57.9194 159.884 57.9833C159.671 58.043 159.424 58.0962 159.143 58.1431C158.866 58.1857 158.595 58.2241 158.331 58.2582C158.071 58.288 157.86 58.3136 157.698 58.3349C157.306 58.386 156.94 58.4691 156.599 58.5842C156.262 58.695 155.99 58.8633 155.781 59.0891C155.576 59.3107 155.474 59.6133 155.474 59.9968C155.474 60.521 155.668 60.9173 156.056 61.1857C156.448 61.4499 156.944 61.582 157.545 61.582ZM166.077 49.6161V62.707H164.568V49.6161H166.077ZM171.729 62.9371C171.107 62.9371 170.542 62.82 170.035 62.5856C169.528 62.3469 169.125 62.0039 168.827 61.5565C168.529 61.1048 168.379 60.5593 168.379 59.9201C168.379 59.3576 168.49 58.9016 168.712 58.5522C168.933 58.1985 169.23 57.9215 169.6 57.7212C169.971 57.521 170.38 57.3718 170.828 57.2738C171.279 57.1715 171.733 57.0906 172.189 57.0309C172.786 56.9542 173.269 56.8967 173.64 56.8583C174.015 56.8157 174.288 56.7454 174.458 56.6474C174.633 56.5494 174.72 56.3789 174.72 56.136V56.0849C174.72 55.4542 174.548 54.9641 174.203 54.6147C173.862 54.2653 173.344 54.0906 172.649 54.0906C171.929 54.0906 171.365 54.2482 170.955 54.5636C170.546 54.8789 170.259 55.2156 170.093 55.5735L168.661 55.0621C168.916 54.4656 169.257 54.0011 169.683 53.6687C170.114 53.332 170.583 53.0977 171.09 52.9656C171.601 52.8292 172.104 52.761 172.598 52.761C172.914 52.761 173.276 52.7994 173.685 52.8761C174.098 52.9485 174.497 53.0998 174.88 53.3299C175.268 53.56 175.59 53.9073 175.845 54.3718C176.101 54.8363 176.229 55.4585 176.229 56.2383V62.707H174.72V61.3775H174.644C174.541 61.5906 174.371 61.8185 174.132 62.0614C173.894 62.3043 173.576 62.511 173.18 62.6815C172.784 62.8519 172.3 62.9371 171.729 62.9371ZM171.959 61.582C172.556 61.582 173.058 61.4648 173.468 61.2305C173.881 60.9961 174.192 60.6935 174.401 60.3228C174.614 59.9521 174.72 59.5621 174.72 59.1531V57.7724C174.656 57.8491 174.516 57.9194 174.298 57.9833C174.085 58.043 173.838 58.0962 173.557 58.1431C173.28 58.1857 173.009 58.2241 172.745 58.2582C172.485 58.288 172.274 58.3136 172.112 58.3349C171.72 58.386 171.354 58.4691 171.013 58.5842C170.676 58.695 170.404 58.8633 170.195 59.0891C169.99 59.3107 169.888 59.6133 169.888 59.9968C169.888 60.521 170.082 60.9173 170.47 61.1857C170.862 61.4499 171.358 61.582 171.959 61.582ZM179.187 62.707V49.6161H180.695V54.4485H180.823C180.934 54.2781 181.087 54.0607 181.283 53.7965C181.484 53.5281 181.769 53.2894 182.14 53.0806C182.515 52.8675 183.022 52.761 183.661 52.761C184.488 52.761 185.217 52.9677 185.847 53.381C186.478 53.7944 186.97 54.3803 187.324 55.1388C187.678 55.8974 187.854 56.7923 187.854 57.8235C187.854 58.8633 187.678 59.7646 187.324 60.5273C186.97 61.2859 186.48 61.8739 185.854 62.2915C185.227 62.7049 184.505 62.9116 183.687 62.9116C183.056 62.9116 182.551 62.8072 182.172 62.5984C181.793 62.3853 181.501 62.1445 181.296 61.8761C181.092 61.6033 180.934 61.3775 180.823 61.1985H180.644V62.707H179.187ZM180.67 57.7979C180.67 58.5394 180.778 59.1935 180.996 59.7603C181.213 60.3228 181.531 60.7638 181.948 61.0835C182.366 61.3988 182.877 61.5565 183.482 61.5565C184.113 61.5565 184.639 61.3903 185.061 61.0579C185.487 60.7212 185.807 60.2695 186.02 59.7028C186.237 59.1317 186.346 58.4968 186.346 57.7979C186.346 57.1076 186.239 56.4854 186.026 55.9315C185.817 55.3732 185.5 54.9322 185.074 54.6083C184.652 54.2802 184.121 54.1161 183.482 54.1161C182.869 54.1161 182.353 54.2717 181.935 54.5827C181.518 54.8896 181.202 55.32 180.989 55.8739C180.776 56.4237 180.67 57.065 180.67 57.7979ZM191.67 49.6161V62.707H190.162V49.6161H191.67ZM198.55 62.9116C197.604 62.9116 196.788 62.7028 196.102 62.2852C195.42 61.8633 194.894 61.2752 194.523 60.521C194.156 59.7624 193.973 58.8803 193.973 57.8746C193.973 56.869 194.156 55.9826 194.523 55.2156C194.894 54.4442 195.409 53.8434 196.07 53.413C196.735 52.9783 197.51 52.761 198.396 52.761C198.908 52.761 199.413 52.8462 199.911 53.0167C200.41 53.1871 200.864 53.4641 201.273 53.8477C201.682 54.2269 202.008 54.7298 202.251 55.3562C202.494 55.9826 202.615 56.7539 202.615 57.6701V58.3093H195.047V57.0053H201.081C201.081 56.4513 200.97 55.957 200.749 55.5224C200.531 55.0877 200.22 54.7447 199.816 54.4933C199.415 54.2418 198.942 54.1161 198.396 54.1161C197.796 54.1161 197.276 54.2653 196.837 54.5636C196.402 54.8576 196.068 55.2411 195.833 55.7141C195.599 56.1871 195.482 56.6942 195.482 57.2354V58.1048C195.482 58.8462 195.61 59.4748 195.865 59.9904C196.125 60.5018 196.485 60.8917 196.945 61.1602C197.406 61.4244 197.941 61.5565 198.55 61.5565C198.946 61.5565 199.304 61.5011 199.624 61.3903C199.948 61.2752 200.227 61.1048 200.461 60.8789C200.695 60.6488 200.877 60.3633 201.004 60.0224L202.462 60.4315C202.308 60.9258 202.051 61.3604 201.688 61.7354C201.326 62.1062 200.879 62.396 200.346 62.6048C199.813 62.8093 199.215 62.9116 198.55 62.9116Z" fill="white"/>
</g>
<defs>
<filter id="filter0_d_2467_518" x="-15" y="-27" width="290" height="150" filterUnits="userSpaceOnUse" color-interpolation-filters="sRGB">
<feFlood flood-opacity="0" result="BackgroundImageFix"/>
<feColorMatrix in="SourceAlpha" type="matrix" values="0 0 0 0 0 0 0 0 0 0 0 0 0 0 0 0 0 0 127 0" result="hardAlpha"/>
<feOffset dy="-12"/>
<feGaussianBlur stdDeviation="7.5"/>
<feComposite in2="hardAlpha" operator="out"/>
<feColorMatrix type="matrix" values="0 0 0 0 1 0 0 0 0 1 0 0 0 0 1 0 0 0 0.1 0"/>
<feBlend mode="normal" in2="BackgroundImageFix" result="effect1_dropShadow_2467_518"/>
<feBlend mode="normal" in="SourceGraphic" in2="effect1_dropShadow_2467_518" result="shape"/>
</filter>
<linearGradient id="paint0_linear_2467_518" x1="130" y1="0" x2="130" y2="120" gradientUnits="userSpaceOnUse">
<stop stop-color="white" stop-opacity="0.26"/>
<stop offset="1" stop-color="#7E7D83" stop-opacity="0"/>
</linearGradient>
<clipPath id="clip0_2467_518">
<rect width="260" height="120" fill="white"/>
</clipPath>
</defs>
</svg>
