<svg width="512" height="150" viewBox="0 0 512 150" fill="none" xmlns="http://www.w3.org/2000/svg">
<g clip-path="url(#clip0_2766_6014)">
<circle cx="343.733" cy="109.276" r="38.0453" stroke="white" stroke-width="4"/>
<circle cx="263.659" cy="109.276" r="38.0453" stroke="white" stroke-width="4"/>
<circle cx="303.69" cy="40.0453" r="38.0453" stroke="white" stroke-width="4"/>
<path d="M337.66 49.8869C337.66 58.7159 330.503 65.8733 321.674 65.8733C312.845 65.8733 305.688 58.7159 305.688 49.8869C305.688 41.0578 312.845 33.9004 321.674 33.9004C330.503 33.9004 337.66 41.0578 337.66 49.8869Z" stroke="white" stroke-width="4"/>
<path d="M377.711 119.117C377.711 127.946 370.554 135.104 361.725 135.104C352.896 135.104 345.738 127.946 345.738 119.117C345.738 110.288 352.896 103.131 361.725 103.131C370.554 103.131 377.711 110.288 377.711 119.117Z" stroke="white" stroke-width="4"/>
<path d="M297.617 119.117C297.617 127.946 290.46 135.104 281.631 135.104C272.802 135.104 265.645 127.946 265.645 119.117C265.645 110.288 272.802 103.131 281.631 103.131C290.46 103.131 297.617 110.288 297.617 119.117Z" stroke="white" stroke-width="4"/>
<path d="M301.707 49.8869C301.707 58.7159 294.55 65.8733 285.721 65.8733C276.892 65.8733 269.734 58.7159 269.734 49.8869C269.734 41.0578 276.892 33.9004 285.721 33.9004C294.55 33.9004 301.707 41.0578 301.707 49.8869Z" stroke="white" stroke-width="4"/>
<path d="M341.735 119.117C341.735 127.946 334.577 135.104 325.748 135.104C316.919 135.104 309.762 127.946 309.762 119.117C309.762 110.288 316.919 103.131 325.748 103.131C334.577 103.131 341.735 110.288 341.735 119.117Z" stroke="white" stroke-width="4"/>
<path d="M261.645 119.117C261.645 127.946 254.487 135.104 245.658 135.104C236.829 135.104 229.672 127.946 229.672 119.117C229.672 110.288 236.829 103.131 245.658 103.131C254.487 103.131 261.645 110.288 261.645 119.117Z" stroke="white" stroke-width="4"/>
<path d="M319.999 19.3439C319.999 28.1379 312.725 35.3304 303.673 35.3304C294.622 35.3304 287.348 28.1379 287.348 19.3439C287.348 10.5499 294.622 3.35742 303.673 3.35742C312.725 3.35742 319.999 10.5499 319.999 19.3439Z" stroke="white" stroke-width="4"/>
<path d="M360.062 88.5744C360.062 97.3684 352.788 104.561 343.736 104.561C334.684 104.561 327.41 97.3684 327.41 88.5744C327.41 79.7804 334.684 72.5879 343.736 72.5879C352.788 72.5879 360.062 79.7804 360.062 88.5744Z" stroke="white" stroke-width="4"/>
<path d="M279.972 88.5744C279.972 97.3684 272.698 104.561 263.646 104.561C254.594 104.561 247.32 97.3684 247.32 88.5744C247.32 79.7804 254.594 72.5879 263.646 72.5879C272.698 72.5879 279.972 79.7804 279.972 88.5744Z" stroke="white" stroke-width="4"/>
<g opacity="0.91">
<path d="M42.5151 150C18.4879 150 0.976562 132.489 0.976562 108.462V98.0771H59.0084V106.222H65.117V95.0227L28.0581 87.896C11.7684 84.8417 0.976562 73.0317 0.976562 58.3711V44.9321C0.976562 20.9049 18.4879 3.39355 42.5151 3.39355H81.6102C105.637 3.39355 123.149 20.9049 123.149 44.9321V55.3168H65.117V47.1719H59.0084V58.3711L96.0673 65.4978C112.357 68.5521 123.149 80.3621 123.149 95.0227V108.462C123.149 132.489 105.637 150 81.6102 150H42.5151Z" fill="white"/>
<path d="M150.57 147.964V49.2082H122.47V5.42976H234.461V49.2082H206.565V147.964H150.57Z" fill="white"/>
</g>
<path opacity="0.91" d="M392.926 147.964V5.42969H465.415C489.442 5.42969 506.953 22.941 506.953 46.9683V62.647C506.953 76.6968 501.048 88.5068 491.274 95.8372C503.084 100.113 511.026 111.312 511.026 125.158V147.964H455.03V104.186H448.921V147.964H392.926ZM448.921 70.181H455.03V39.2307H448.921V70.181Z" fill="white"/>
</g>
<defs>
<clipPath id="clip0_2766_6014">
<rect width="510.05" height="150" fill="white" transform="translate(0.976562)"/>
</clipPath>
</defs>
</svg>
