<svg width="326" height="356" viewBox="0 0 326 356" fill="none" xmlns="http://www.w3.org/2000/svg">
<g clip-path="url(#clip0_2469_538)">
<path d="M162.156 355.351C157.508 355.351 153.078 354.417 149.765 352.499L5.03208 268.932C1.79179 267.063 0.0078125 264.466 0.0078125 261.614C0.0078125 258.191 2.58062 254.745 7.05878 252.16L147.738 170.946C156.149 166.092 168.94 165.558 176.234 169.781L320.967 253.349C324.207 255.218 325.991 257.815 325.991 260.667C325.991 264.089 323.418 267.536 318.94 270.121L178.26 351.334C173.661 353.992 167.751 355.351 162.156 355.351ZM163.843 167.463C158.345 167.463 152.532 168.798 148.005 171.419L7.32577 252.633C3.01752 255.121 0.55393 258.398 0.55393 261.614C0.55393 264.259 2.24082 266.686 5.29908 268.458L150.032 352.026C157.18 356.152 169.717 355.631 177.993 350.861L318.673 269.648C322.981 267.16 325.445 263.883 325.445 260.667C325.445 258.021 323.758 255.594 320.7 253.822L175.967 170.254C172.726 168.385 168.394 167.475 163.843 167.475V167.463Z" fill="#DCFCF7"/>
<path style="mix-blend-mode:lighten" opacity="0.3" d="M210.72 229.465C163.985 256.443 88.2202 256.443 41.4969 229.465C-5.23854 202.487 -5.23854 158.737 41.4969 131.759C88.2323 104.781 163.997 104.781 210.72 131.759C257.456 158.737 257.456 202.487 210.72 229.465Z" fill="url(#paint0_radial_2469_538)"/>
<path style="mix-blend-mode:lighten" d="M137.783 185.594C139.166 179.72 135.538 173.847 129.664 172.451C123.79 171.067 117.916 174.696 116.521 180.57C115.137 186.444 118.766 192.317 124.64 193.713C130.513 195.097 136.387 191.468 137.783 185.594Z" fill="url(#paint1_radial_2469_538)"/>
<path d="M130.285 183.094C130.285 184.817 128.889 186.213 127.166 186.213C125.443 186.213 124.047 184.817 124.047 183.094C124.047 181.371 125.443 179.975 127.166 179.975C128.889 179.975 130.285 181.371 130.285 183.094Z" fill="#DCFCF7"/>
<path style="mix-blend-mode:lighten" d="M17.0239 257.73C23.0554 257.73 27.9462 252.839 27.9462 246.808C27.9462 240.776 23.0554 235.885 17.0239 235.885C10.9923 235.885 6.10156 240.776 6.10156 246.808C6.10156 252.839 10.9923 257.73 17.0239 257.73Z" fill="url(#paint2_radial_2469_538)"/>
<path d="M20.1441 246.808C20.1441 248.531 18.7485 249.927 17.0252 249.927C15.3019 249.927 13.9062 248.531 13.9062 246.808C13.9062 245.085 15.3019 243.689 17.0252 243.689C18.7485 243.689 20.1441 245.085 20.1441 246.808Z" fill="#DCFCF7"/>
<path style="mix-blend-mode:lighten" d="M256.102 317.002C262.134 317.002 267.024 312.111 267.024 306.08C267.024 300.048 262.134 295.157 256.102 295.157C250.07 295.157 245.18 300.048 245.18 306.08C245.18 312.111 250.07 317.002 256.102 317.002Z" fill="url(#paint3_radial_2469_538)"/>
<path d="M256.096 309.198C257.819 309.198 259.214 307.803 259.214 306.079C259.214 304.356 257.819 302.96 256.096 302.96C254.372 302.96 252.977 304.356 252.977 306.079C252.977 307.803 254.372 309.198 256.096 309.198Z" fill="#DCFCF7"/>
<path style="mix-blend-mode:lighten" d="M276.352 305.06C282.384 305.06 287.274 300.169 287.274 294.138C287.274 288.106 282.384 283.215 276.352 283.215C270.32 283.215 265.43 288.106 265.43 294.138C265.43 300.169 270.32 305.06 276.352 305.06Z" fill="url(#paint4_radial_2469_538)"/>
<path d="M279.457 294.138C279.457 295.861 278.061 297.257 276.338 297.257C274.614 297.257 273.219 295.861 273.219 294.138C273.219 292.415 274.614 291.019 276.338 291.019C278.061 291.019 279.457 292.415 279.457 294.138Z" fill="#DCFCF7"/>
<path style="mix-blend-mode:lighten" d="M296.61 293.312C302.641 293.312 307.532 288.422 307.532 282.39C307.532 276.359 302.641 271.468 296.61 271.468C290.578 271.468 285.688 276.359 285.688 282.39C285.688 288.422 290.578 293.312 296.61 293.312Z" fill="url(#paint5_radial_2469_538)"/>
<path d="M299.714 282.39C299.714 284.114 298.319 285.509 296.596 285.509C294.872 285.509 293.477 284.114 293.477 282.39C293.477 280.667 294.872 279.271 296.596 279.271C298.319 279.271 299.714 280.667 299.714 282.39Z" fill="#DCFCF7"/>
<path d="M149.206 328.458L46.0505 268.907C38.2107 264.381 39.1937 256.48 48.2471 251.249L147.009 194.235C156.063 189.004 169.752 188.446 177.592 192.973L280.747 252.524C288.587 257.05 287.604 264.951 278.55 270.182L179.788 327.196C170.735 332.427 157.046 332.985 149.206 328.458Z" fill="#22252D"/>
<path d="M299.181 199.769V178.446H244.157L179.108 140.885C170.431 135.873 155.261 136.504 145.237 142.293L82.6154 178.446H27.5547V200.983H27.6032C27.3605 204.381 29.2537 207.645 33.4163 210.06L147.664 276.019C156.341 281.031 171.511 280.4 181.535 274.611L290.916 211.456C296.693 208.118 299.484 203.798 299.169 199.769H299.181Z" fill="#787A91"/>
<path opacity="0.5" d="M299.181 199.769V178.446H244.157L179.108 140.885C170.431 135.873 155.261 136.504 145.237 142.293L82.6154 178.446H27.5547V200.983H27.6032C27.3605 204.381 29.2537 207.645 33.4163 210.06L147.664 276.019C156.341 281.031 171.511 280.4 181.535 274.611L290.916 211.456C296.693 208.118 299.484 203.798 299.169 199.769H299.181Z" fill="url(#paint6_linear_2469_538)"/>
<path d="M179.119 140.885C174.944 138.47 169.277 137.378 163.391 137.524V279.368C169.75 279.21 176.34 277.609 181.558 274.611L290.939 211.456C296.716 208.118 299.507 203.798 299.192 199.769V178.446H244.167L179.119 140.885Z" fill="url(#paint7_linear_2469_538)"/>
<path d="M147.687 253.483L33.4392 187.524C24.762 182.512 25.8421 173.762 35.8663 167.973L145.247 104.818C155.272 99.0288 170.442 98.3977 179.119 103.41L293.366 169.369C302.044 174.381 300.963 183.131 290.939 188.92L181.558 252.075C171.534 257.864 156.364 258.495 147.687 253.483Z" fill="#787A91"/>
<path opacity="0.5" d="M147.687 253.483L33.4392 187.524C24.762 182.512 25.8421 173.762 35.8663 167.973L145.247 104.818C155.272 99.0288 170.442 98.3977 179.119 103.41L293.366 169.369C302.044 174.381 300.963 183.131 290.939 188.92L181.558 252.075C171.534 257.864 156.364 258.495 147.687 253.483Z" fill="url(#paint8_linear_2469_538)"/>
<path d="M150.732 238.907L58.6815 185.764C51.6912 181.723 52.5649 174.672 60.6353 170.012L148.766 119.126C156.849 114.466 169.058 113.956 176.06 117.997L268.111 171.14C275.101 175.182 274.228 182.233 266.157 186.893L178.026 237.779C169.944 242.439 157.735 242.949 150.732 238.907Z" fill="#E5FFF6"/>
<path d="M60.6396 176.893L148.771 126.007C156.853 121.347 169.062 120.837 176.064 124.878L268.115 178.021C269.839 179.016 271.089 180.206 271.865 181.48C273.892 177.754 272.727 173.786 268.115 171.128L176.064 117.985C169.074 113.944 156.853 114.453 148.771 119.114L60.6396 169.999C54.5595 173.507 52.557 178.373 54.9357 182.293C55.9915 180.364 57.8847 178.483 60.6396 176.893Z" fill="#BFE8DA"/>
<path opacity="0.5" d="M151.527 253.482L37.279 187.524C28.6019 182.511 26.5266 175.145 39.7062 167.973L149.087 104.817C154.014 101.965 160.192 100.376 166.223 100.084C159.051 99.7566 151.235 101.359 145.252 104.817L35.8713 167.973C25.847 173.761 24.7548 182.511 33.4441 187.524L147.692 253.482C152.109 256.031 158.189 257.111 164.427 256.808C159.585 256.589 155.022 255.497 151.527 253.482Z" fill="url(#paint9_linear_2469_538)"/>
<path opacity="0.5" d="M290.94 198.446L181.559 261.602C171.534 267.39 156.365 268.021 147.687 263.009L33.4398 197.051C29.265 194.648 27.3718 191.371 27.6267 187.973H27.5781V192.645H27.6267C27.384 196.043 29.2771 199.308 33.4398 201.723L147.687 267.682C156.365 272.694 171.534 272.063 181.559 266.274L290.94 203.119C296.716 199.781 299.508 195.461 299.192 191.432V186.759C299.52 190.788 296.729 195.109 290.94 198.446Z" fill="url(#paint10_linear_2469_538)"/>
<path d="M271.101 192.232C272.351 192.949 272.351 194.126 271.101 194.842C269.851 195.558 267.836 195.558 266.586 194.842C265.336 194.126 265.336 192.961 266.586 192.232C267.836 191.504 269.851 191.516 271.101 192.232Z" fill="#FCF8F3"/>
<path d="M278.124 188.167C279.374 188.883 279.374 190.048 278.124 190.776C276.874 191.504 274.859 191.492 273.609 190.776C272.359 190.06 272.359 188.883 273.609 188.167C274.859 187.451 276.874 187.451 278.124 188.167Z" fill="#FCF8F3"/>
<path d="M285.163 184.113C286.413 184.829 286.413 186.007 285.163 186.723C283.913 187.439 281.898 187.439 280.648 186.723C279.398 186.007 279.398 184.842 280.648 184.113C281.898 183.385 283.913 183.397 285.163 184.113Z" fill="#FCF8F3"/>
<path opacity="0.5" d="M153.465 226.031L81.2562 184.344C75.7708 181.177 76.4625 175.643 82.7974 171.99L151.924 132.075C158.259 128.422 167.846 128.021 173.331 131.189L245.54 172.876C251.026 176.043 250.334 181.577 243.999 185.23L174.873 225.145C168.538 228.798 158.95 229.198 153.465 226.031Z" fill="#272744"/>
<path opacity="0.5" d="M299.177 178.446C299.201 178.045 299.213 177.633 299.177 177.244V117.669L204.529 118.094L179.104 103.422C170.427 98.4094 155.257 99.0405 145.232 104.829L121.604 118.47L27.5625 118.883V178.458H27.611C27.3683 181.856 29.2615 185.121 33.4242 187.536L147.672 253.494C156.349 258.507 171.519 257.875 181.543 252.087L290.924 188.931C296.13 185.922 298.91 182.123 299.177 178.446Z" fill="#E5FFF6"/>
<path d="M299.181 117.669V96.3465H244.157L179.108 58.7858C170.431 53.7737 155.261 54.4048 145.237 60.1936L82.6154 96.3465H27.5547V118.883H27.6032C27.3605 122.281 29.2537 125.546 33.4163 127.961L147.664 193.919C156.341 198.931 171.511 198.3 181.535 192.512L290.916 129.356C296.693 126.019 299.484 121.698 299.169 117.669H299.181Z" fill="#787A91"/>
<path opacity="0.5" d="M299.181 117.669V96.3465H244.157L179.108 58.7858C170.431 53.7737 155.261 54.4048 145.237 60.1936L82.6154 96.3465H27.5547V118.883H27.6032C27.3605 122.281 29.2537 125.546 33.4163 127.961L147.664 193.919C156.341 198.931 171.511 198.3 181.535 192.512L290.916 129.356C296.693 126.019 299.484 121.698 299.169 117.669H299.181Z" fill="url(#paint11_linear_2469_538)"/>
<path d="M179.119 58.7856C174.944 56.3706 169.277 55.2783 163.391 55.424V197.269C169.75 197.111 176.34 195.521 181.558 192.511L290.939 129.356C296.716 126.019 299.507 121.698 299.192 117.669V96.3463H244.167L179.119 58.7856Z" fill="url(#paint12_linear_2469_538)"/>
<path d="M147.687 171.371L33.4392 105.412C24.762 100.4 25.8421 91.65 35.8663 85.8611L145.247 22.7058C155.272 16.917 170.442 16.2859 179.119 21.298L293.366 87.2568C302.044 92.2689 300.963 101.019 290.939 106.808L181.558 169.963C171.534 175.752 156.364 176.383 147.687 171.371Z" fill="#787A91"/>
<path opacity="0.5" d="M147.687 171.371L33.4392 105.412C24.762 100.4 25.8421 91.65 35.8663 85.8611L145.247 22.7058C155.272 16.917 170.442 16.2859 179.119 21.298L293.366 87.2568C302.044 92.2689 300.963 101.019 290.939 106.808L181.558 169.963C171.534 175.752 156.364 176.383 147.687 171.371Z" fill="url(#paint13_linear_2469_538)"/>
<path opacity="0.5" d="M151.527 171.371L37.279 105.412C28.6019 100.4 26.5266 93.0336 39.7062 85.8613L149.087 22.7059C154.014 19.854 160.192 18.2642 166.223 17.9729C159.051 17.6453 151.235 19.2472 145.252 22.7059L35.8713 85.8613C25.847 91.6501 24.7548 100.4 33.4441 105.412L147.692 171.371C152.109 173.92 158.189 175 164.427 174.696C159.585 174.478 155.022 173.386 151.527 171.371Z" fill="url(#paint14_linear_2469_538)"/>
<path opacity="0.5" d="M290.94 116.347L181.559 179.502C171.534 185.291 156.365 185.922 147.687 180.91L33.4398 114.951C29.265 112.548 27.3718 109.271 27.6267 105.873H27.5781V110.546H27.6267C27.384 113.944 29.2771 117.208 33.4398 119.623L147.687 185.582C156.365 190.594 171.534 189.963 181.559 184.174L290.94 121.019C296.716 117.682 299.508 113.361 299.192 109.332V104.66C299.52 108.689 296.729 113.009 290.94 116.347Z" fill="url(#paint15_linear_2469_538)"/>
<path opacity="0.2" d="M154.314 101.116C156.692 102.487 156.692 104.708 154.314 106.08C151.935 107.451 148.1 107.451 145.721 106.08C143.343 104.708 143.343 102.487 145.721 101.116C148.088 99.7446 151.935 99.7446 154.314 101.116Z" fill="#E5FFF6"/>
<path opacity="0.6" d="M167.704 93.3855C170.083 94.7568 170.083 96.9777 167.704 98.349C165.326 99.7204 161.491 99.7204 159.112 98.349C156.733 96.9777 156.733 94.7568 159.112 93.3855C161.479 92.0141 165.326 92.0141 167.704 93.3855Z" fill="#E5FFF6"/>
<path d="M181.072 85.655C183.45 87.0263 183.45 89.2472 181.072 90.6186C178.693 91.9899 174.858 91.9899 172.479 90.6186C170.101 89.2472 170.101 87.0263 172.479 85.655C174.858 84.2836 178.693 84.2836 181.072 85.655Z" fill="#E5FFF6"/>
<path opacity="0.5" d="M162.648 155.169C158.412 155.169 154.359 154.308 151.349 152.572L66.871 103.798C63.8006 102.026 62.1016 99.526 62.1016 96.7712C62.1016 93.5066 64.4923 90.2542 68.6671 87.8513L149.541 41.1523C157.174 36.7469 168.801 36.2736 175.439 40.1086L259.917 88.8828C262.987 90.6547 264.687 93.1547 264.687 95.9095C264.687 99.1741 262.296 102.427 258.121 104.829L177.247 151.528C173.085 153.931 167.733 155.169 162.648 155.169ZM152.199 151.067C158.364 154.635 169.213 154.162 176.386 150.024L257.259 103.325C260.876 101.237 262.963 98.5188 262.963 95.8974C262.963 93.7858 261.58 91.8197 259.068 90.3634L174.589 41.5892C168.424 38.0212 157.575 38.4945 150.403 42.6328L69.5287 89.3319C65.9001 91.4193 63.8249 94.1256 63.8249 96.7591C63.8249 98.8707 65.2084 100.837 67.7326 102.293L152.211 151.067H152.199Z" fill="#272744"/>
<path d="M162.156 188.422C157.508 188.422 153.078 187.487 149.765 185.57L5.03208 102.002C1.79179 100.133 0.0078125 97.5358 0.0078125 94.6839C0.0078125 91.2616 2.58062 87.8149 7.05878 85.23L147.738 4.01642C156.149 -0.837951 168.94 -1.37193 176.234 2.85137L320.967 86.4193C324.207 88.2883 325.991 90.8853 325.991 93.7373C325.991 97.1596 323.418 100.606 318.94 103.191L178.26 184.405C173.661 187.063 167.751 188.422 162.156 188.422ZM163.843 0.545543C158.345 0.545543 152.532 1.8805 148.005 4.50186L7.32577 85.7154C3.01752 88.2033 0.55393 91.48 0.55393 94.696C0.55393 97.3417 2.24082 99.7688 5.29908 101.541L150.032 185.109C157.18 189.235 169.729 188.713 177.993 183.944L318.673 102.73C322.981 100.242 325.445 96.9654 325.445 93.7494C325.445 91.1038 323.758 88.6766 320.7 86.9048L175.967 3.33681C172.726 1.46788 168.394 0.557682 163.843 0.557682V0.545543Z" fill="#DCFCF7"/>
<path style="mix-blend-mode:lighten" d="M127.165 27.0868C133.196 27.0868 138.087 22.1961 138.087 16.1645C138.087 10.133 133.196 5.24219 127.165 5.24219C121.133 5.24219 116.242 10.133 116.242 16.1645C116.242 22.1961 121.133 27.0868 127.165 27.0868Z" fill="url(#paint16_radial_2469_538)"/>
<path d="M130.285 16.1643C130.285 17.8876 128.889 19.2833 127.166 19.2833C125.443 19.2833 124.047 17.8876 124.047 16.1643C124.047 14.441 125.443 13.0454 127.166 13.0454C128.889 13.0454 130.285 14.441 130.285 16.1643Z" fill="#DCFCF7"/>
<path style="mix-blend-mode:lighten" d="M17.0239 90.8124C23.0554 90.8124 27.9462 85.9217 27.9462 79.8901C27.9462 73.8586 23.0554 68.9678 17.0239 68.9678C10.9923 68.9678 6.10156 73.8586 6.10156 79.8901C6.10156 85.9217 10.9923 90.8124 17.0239 90.8124Z" fill="url(#paint17_radial_2469_538)"/>
<path d="M17.0252 83.0093C18.7485 83.0093 20.1441 81.6137 20.1441 79.8904C20.1441 78.1671 18.7485 76.7715 17.0252 76.7715C15.3019 76.7715 13.9062 78.1671 13.9062 79.8904C13.9062 81.6137 15.3019 83.0093 17.0252 83.0093Z" fill="#DCFCF7"/>
<path style="mix-blend-mode:lighten" d="M260.269 149.235C265.839 146.929 268.485 140.533 266.179 134.963C263.873 129.392 257.478 126.747 251.907 129.053C246.337 131.359 243.691 137.754 245.997 143.325C248.303 148.895 254.698 151.541 260.269 149.235Z" fill="url(#paint18_radial_2469_538)"/>
<path d="M259.214 139.15C259.214 140.873 257.819 142.269 256.096 142.269C254.372 142.269 252.977 140.873 252.977 139.15C252.977 137.426 254.372 136.031 256.096 136.031C257.819 136.031 259.214 137.426 259.214 139.15Z" fill="#DCFCF7"/>
<path style="mix-blend-mode:lighten" d="M276.352 138.143C282.384 138.143 287.274 133.252 287.274 127.22C287.274 121.189 282.384 116.298 276.352 116.298C270.32 116.298 265.43 121.189 265.43 127.22C265.43 133.252 270.32 138.143 276.352 138.143Z" fill="url(#paint19_radial_2469_538)"/>
<path d="M276.353 130.339C278.077 130.339 279.472 128.944 279.472 127.22C279.472 125.497 278.077 124.102 276.353 124.102C274.63 124.102 273.234 125.497 273.234 127.22C273.234 128.944 274.63 130.339 276.353 130.339Z" fill="#DCFCF7"/>
<path style="mix-blend-mode:lighten" d="M296.61 126.383C302.641 126.383 307.532 121.492 307.532 115.46C307.532 109.429 302.641 104.538 296.61 104.538C290.578 104.538 285.688 109.429 285.688 115.46C285.688 121.492 290.578 126.383 296.61 126.383Z" fill="url(#paint20_radial_2469_538)"/>
<path d="M299.714 115.461C299.714 117.184 298.319 118.58 296.596 118.58C294.872 118.58 293.477 117.184 293.477 115.461C293.477 113.737 294.872 112.342 296.596 112.342C298.319 112.342 299.714 113.737 299.714 115.461Z" fill="#DCFCF7"/>
</g>
<defs>
<radialGradient id="paint0_radial_2469_538" cx="0" cy="0" r="1" gradientUnits="userSpaceOnUse" gradientTransform="translate(323.612 300.457) rotate(30) scale(97.7063 85)">
<stop stop-color="#B6DED1"/>
<stop offset="0.09" stop-color="#94B3AB"/>
<stop offset="0.17" stop-color="#79938F"/>
<stop offset="0.26" stop-color="#627878"/>
<stop offset="0.35" stop-color="#4E5F61"/>
<stop offset="0.44" stop-color="#404B50"/>
<stop offset="0.54" stop-color="#363E44"/>
<stop offset="0.66" stop-color="#30343D"/>
<stop offset="0.82" stop-color="#2F323B"/>
</radialGradient>
<radialGradient id="paint1_radial_2469_538" cx="0" cy="0" r="1" gradientUnits="userSpaceOnUse" gradientTransform="translate(127.14 183.07) scale(10.9223)">
<stop stop-color="#BFE8DA"/>
<stop offset="0.02" stop-color="#B3D8CD"/>
<stop offset="0.1" stop-color="#99B9B4"/>
<stop offset="0.18" stop-color="#83A0A0"/>
<stop offset="0.26" stop-color="#71858A"/>
<stop offset="0.35" stop-color="#6B7479"/>
<stop offset="0.44" stop-color="#575D6B"/>
<stop offset="0.54" stop-color="#4E5162"/>
<stop offset="0.66" stop-color="#40425C"/>
<stop offset="0.82" stop-color="#3E3E5B"/>
</radialGradient>
<radialGradient id="paint2_radial_2469_538" cx="0" cy="0" r="1" gradientUnits="userSpaceOnUse" gradientTransform="translate(17.0239 246.783) scale(10.9223 10.9223)">
<stop stop-color="#BFE8DA"/>
<stop offset="0.02" stop-color="#B3D8CD"/>
<stop offset="0.1" stop-color="#99B9B4"/>
<stop offset="0.18" stop-color="#83A0A0"/>
<stop offset="0.26" stop-color="#71858A"/>
<stop offset="0.35" stop-color="#6B7479"/>
<stop offset="0.44" stop-color="#575D6B"/>
<stop offset="0.54" stop-color="#4E5162"/>
<stop offset="0.66" stop-color="#40425C"/>
<stop offset="0.82" stop-color="#3E3E5B"/>
</radialGradient>
<radialGradient id="paint3_radial_2469_538" cx="0" cy="0" r="1" gradientUnits="userSpaceOnUse" gradientTransform="translate(256.102 306.055) scale(10.9223)">
<stop stop-color="#B6DED1"/>
<stop offset="0.09" stop-color="#94B3AB"/>
<stop offset="0.17" stop-color="#79938F"/>
<stop offset="0.26" stop-color="#627878"/>
<stop offset="0.35" stop-color="#4E5F61"/>
<stop offset="0.44" stop-color="#404B50"/>
<stop offset="0.54" stop-color="#363E44"/>
<stop offset="0.66" stop-color="#30343D"/>
<stop offset="0.82" stop-color="#2F323B"/>
</radialGradient>
<radialGradient id="paint4_radial_2469_538" cx="0" cy="0" r="1" gradientUnits="userSpaceOnUse" gradientTransform="translate(276.352 294.113) scale(10.9223)">
<stop stop-color="#B6DED1"/>
<stop offset="0.09" stop-color="#94B3AB"/>
<stop offset="0.17" stop-color="#79938F"/>
<stop offset="0.26" stop-color="#627878"/>
<stop offset="0.35" stop-color="#4E5F61"/>
<stop offset="0.44" stop-color="#404B50"/>
<stop offset="0.54" stop-color="#363E44"/>
<stop offset="0.66" stop-color="#30343D"/>
<stop offset="0.82" stop-color="#2F323B"/>
</radialGradient>
<radialGradient id="paint5_radial_2469_538" cx="0" cy="0" r="1" gradientUnits="userSpaceOnUse" gradientTransform="translate(296.61 282.366) scale(10.9223)">
<stop stop-color="#B6DED1"/>
<stop offset="0.09" stop-color="#94B3AB"/>
<stop offset="0.17" stop-color="#79938F"/>
<stop offset="0.26" stop-color="#627878"/>
<stop offset="0.35" stop-color="#4E5F61"/>
<stop offset="0.44" stop-color="#404B50"/>
<stop offset="0.54" stop-color="#363E44"/>
<stop offset="0.66" stop-color="#30343D"/>
<stop offset="0.82" stop-color="#2F323B"/>
</radialGradient>
<linearGradient id="paint6_linear_2469_538" x1="-32.4696" y1="208.458" x2="239.169" y2="208.458" gradientUnits="userSpaceOnUse">
<stop stop-color="#BFE8DA"/>
<stop offset="0.1" stop-color="#AACDC4"/>
<stop offset="0.34" stop-color="#88A5A4"/>
<stop offset="0.56" stop-color="#6D7F85"/>
<stop offset="0.75" stop-color="#59616E"/>
<stop offset="0.91" stop-color="#494B60"/>
<stop offset="1" stop-color="#3E3E5B"/>
</linearGradient>
<linearGradient id="paint7_linear_2469_538" x1="163.391" y1="208.446" x2="299.216" y2="208.446" gradientUnits="userSpaceOnUse">
<stop stop-color="#66677C"/>
<stop offset="1" stop-color="#3E3E5B"/>
</linearGradient>
<linearGradient id="paint8_linear_2469_538" x1="27.5775" y1="178.446" x2="299.228" y2="178.446" gradientUnits="userSpaceOnUse">
<stop stop-color="#BFE8DA"/>
<stop offset="0.1" stop-color="#AACDC4"/>
<stop offset="0.34" stop-color="#88A5A4"/>
<stop offset="0.56" stop-color="#6D7F85"/>
<stop offset="0.75" stop-color="#59616E"/>
<stop offset="0.91" stop-color="#494B60"/>
<stop offset="1" stop-color="#3E3E5B"/>
</linearGradient>
<linearGradient id="paint9_linear_2469_538" x1="27.5703" y1="178.458" x2="166.223" y2="178.458" gradientUnits="userSpaceOnUse">
<stop stop-color="#BFE8DA"/>
<stop offset="0.1" stop-color="#AACDC4"/>
<stop offset="0.34" stop-color="#88A5A4"/>
<stop offset="0.56" stop-color="#6D7F85"/>
<stop offset="0.75" stop-color="#59616E"/>
<stop offset="0.91" stop-color="#494B60"/>
<stop offset="1" stop-color="#3E3E5B"/>
</linearGradient>
<linearGradient id="paint10_linear_2469_538" x1="64.5199" y1="257.5" x2="291.899" y2="108.883" gradientUnits="userSpaceOnUse">
<stop stop-color="#BFE8DA"/>
<stop offset="0.1" stop-color="#AACDC4"/>
<stop offset="0.34" stop-color="#88A5A4"/>
<stop offset="0.56" stop-color="#6D7F85"/>
<stop offset="0.75" stop-color="#59616E"/>
<stop offset="0.91" stop-color="#494B60"/>
<stop offset="1" stop-color="#3E3E5B"/>
</linearGradient>
<linearGradient id="paint11_linear_2469_538" x1="-74.9817" y1="126.359" x2="-73.7681" y2="126.359" gradientUnits="userSpaceOnUse">
<stop stop-color="#BFE8DA"/>
<stop offset="0.1" stop-color="#AACDC4"/>
<stop offset="0.34" stop-color="#88A5A4"/>
<stop offset="0.56" stop-color="#6D7F85"/>
<stop offset="0.75" stop-color="#59616E"/>
<stop offset="0.91" stop-color="#494B60"/>
<stop offset="1" stop-color="#3E3E5B"/>
</linearGradient>
<linearGradient id="paint12_linear_2469_538" x1="-74.9832" y1="126.346" x2="-73.7696" y2="126.346" gradientUnits="userSpaceOnUse">
<stop stop-color="#66677C"/>
<stop offset="1" stop-color="#3E3E5B"/>
</linearGradient>
<linearGradient id="paint13_linear_2469_538" x1="27.5775" y1="96.3344" x2="299.228" y2="96.3344" gradientUnits="userSpaceOnUse">
<stop stop-color="#BFE8DA"/>
<stop offset="0.1" stop-color="#AACDC4"/>
<stop offset="0.34" stop-color="#88A5A4"/>
<stop offset="0.56" stop-color="#6D7F85"/>
<stop offset="0.75" stop-color="#59616E"/>
<stop offset="0.91" stop-color="#494B60"/>
<stop offset="1" stop-color="#3E3E5B"/>
</linearGradient>
<linearGradient id="paint14_linear_2469_538" x1="27.5703" y1="96.3467" x2="166.223" y2="96.3467" gradientUnits="userSpaceOnUse">
<stop stop-color="#BFE8DA"/>
<stop offset="0.1" stop-color="#AACDC4"/>
<stop offset="0.34" stop-color="#88A5A4"/>
<stop offset="0.56" stop-color="#6D7F85"/>
<stop offset="0.75" stop-color="#59616E"/>
<stop offset="0.91" stop-color="#494B60"/>
<stop offset="1" stop-color="#3E3E5B"/>
</linearGradient>
<linearGradient id="paint15_linear_2469_538" x1="64.5199" y1="175.4" x2="291.899" y2="26.7713" gradientUnits="userSpaceOnUse">
<stop stop-color="#BFE8DA"/>
<stop offset="0.1" stop-color="#AACDC4"/>
<stop offset="0.34" stop-color="#88A5A4"/>
<stop offset="0.56" stop-color="#6D7F85"/>
<stop offset="0.75" stop-color="#59616E"/>
<stop offset="0.91" stop-color="#494B60"/>
<stop offset="1" stop-color="#3E3E5B"/>
</linearGradient>
<radialGradient id="paint16_radial_2469_538" cx="0" cy="0" r="1" gradientUnits="userSpaceOnUse" gradientTransform="translate(127.165 16.1402) scale(10.9223)">
<stop stop-color="#B6DED1"/>
<stop offset="0.09" stop-color="#94B3AB"/>
<stop offset="0.17" stop-color="#79938F"/>
<stop offset="0.26" stop-color="#627878"/>
<stop offset="0.35" stop-color="#4E5F61"/>
<stop offset="0.44" stop-color="#404B50"/>
<stop offset="0.54" stop-color="#363E44"/>
<stop offset="0.66" stop-color="#30343D"/>
<stop offset="0.82" stop-color="#2F323B"/>
</radialGradient>
<radialGradient id="paint17_radial_2469_538" cx="0" cy="0" r="1" gradientUnits="userSpaceOnUse" gradientTransform="translate(17.0239 79.8658) scale(10.9223)">
<stop stop-color="#B6DED1"/>
<stop offset="0.09" stop-color="#94B3AB"/>
<stop offset="0.17" stop-color="#79938F"/>
<stop offset="0.26" stop-color="#627878"/>
<stop offset="0.35" stop-color="#4E5F61"/>
<stop offset="0.44" stop-color="#404B50"/>
<stop offset="0.54" stop-color="#363E44"/>
<stop offset="0.66" stop-color="#30343D"/>
<stop offset="0.82" stop-color="#2F323B"/>
</radialGradient>
<radialGradient id="paint18_radial_2469_538" cx="0" cy="0" r="1" gradientUnits="userSpaceOnUse" gradientTransform="translate(256.082 139.125) scale(10.9223 10.9223)">
<stop stop-color="#B6DED1"/>
<stop offset="0.09" stop-color="#94B3AB"/>
<stop offset="0.17" stop-color="#79938F"/>
<stop offset="0.26" stop-color="#627878"/>
<stop offset="0.35" stop-color="#4E5F61"/>
<stop offset="0.44" stop-color="#404B50"/>
<stop offset="0.54" stop-color="#363E44"/>
<stop offset="0.66" stop-color="#30343D"/>
<stop offset="0.82" stop-color="#2F323B"/>
</radialGradient>
<radialGradient id="paint19_radial_2469_538" cx="0" cy="0" r="1" gradientUnits="userSpaceOnUse" gradientTransform="translate(276.352 127.196) scale(10.9223)">
<stop stop-color="#B6DED1"/>
<stop offset="0.09" stop-color="#94B3AB"/>
<stop offset="0.17" stop-color="#79938F"/>
<stop offset="0.26" stop-color="#627878"/>
<stop offset="0.35" stop-color="#4E5F61"/>
<stop offset="0.44" stop-color="#404B50"/>
<stop offset="0.54" stop-color="#363E44"/>
<stop offset="0.66" stop-color="#30343D"/>
<stop offset="0.82" stop-color="#2F323B"/>
</radialGradient>
<radialGradient id="paint20_radial_2469_538" cx="0" cy="0" r="1" gradientUnits="userSpaceOnUse" gradientTransform="translate(296.61 115.436) scale(10.9223)">
<stop stop-color="#B6DED1"/>
<stop offset="0.09" stop-color="#94B3AB"/>
<stop offset="0.17" stop-color="#79938F"/>
<stop offset="0.26" stop-color="#627878"/>
<stop offset="0.35" stop-color="#4E5F61"/>
<stop offset="0.44" stop-color="#404B50"/>
<stop offset="0.54" stop-color="#363E44"/>
<stop offset="0.66" stop-color="#30343D"/>
<stop offset="0.82" stop-color="#2F323B"/>
</radialGradient>
<clipPath id="clip0_2469_538">
<rect width="325.983" height="355.351" fill="white" transform="translate(0.0078125)"/>
</clipPath>
</defs>
</svg>
